<?xml version="1.0" encoding="utf-8"?>
<!-- Generator: Adobe Illustrator 19.1.0, SVG Export Plug-In . SVG Version: 6.00 Build 0)  -->
<svg version="1.1" id="Layer_1" xmlns="http://www.w3.org/2000/svg" xmlns:xlink="http://www.w3.org/1999/xlink" x="0px" y="0px"
	 viewBox="100 -9.2 300 78.2" style="enable-background:new 100 -9.2 300 78.2;" xml:space="preserve">
<style type="text/css">
	.st0{fill:#FFFFFF;}
</style>
<g>
	<path class="st0" d="M115.5,0.6c-1.1-3.2-2.5-4.5-4.7-4.5c-2.3,0-3.5,1.4-3.5,3.7c0,5.1,14.3,5.4,14.3,15.9c0,5.7-3.9,9.5-10.7,9.5
		c-5.2,0-9.2-2.8-10.9-9.4l6.3-1.3c0.7,4,3.1,5.5,5,5.5c2.2,0,3.9-1.5,3.9-4c0-6.3-14.3-6.4-14.3-15.8c0-5.7,3.4-9.4,10.1-9.4
		c5.7,0,9.2,3.4,10.3,8.1L115.5,0.6z"/>
	<path class="st0" d="M134.1,14.8c0,3.7,1.6,4.7,4.2,4.7s4.2-1,4.2-4.7v-2.2h6.4V14c0,8.2-4.4,11.2-10.6,11.2
		c-6.2,0-10.6-3-10.6-11.2V2c0-8.2,4.4-11.2,10.6-11.2c6.2,0,10.6,3,10.6,11.2v0.1h-6.4V1.2c0-3.7-1.6-4.7-4.2-4.7
		c-2.5,0-4.2,1-4.2,4.7L134.1,14.8L134.1,14.8z"/>
	<path class="st0" d="M155.6,24.7V-8.7h6.4v33.5C161.9,24.7,155.6,24.7,155.6,24.7z"/>
	<path class="st0" d="M169.2,24.7V-8.7h17.5v5.7h-11.1v7.7h8.5v5.7h-8.5v8.8h11.6v5.7H169.2z"/>
	<path class="st0" d="M193.9,24.7V-8.7h7l8.9,19.8h0.1V-8.7h5.8v33.5h-6.1l-9.8-21.6h-0.1v21.6H193.9z"/>
	<path class="st0" d="M228.8,14.8c0,3.7,1.6,4.7,4.2,4.7s4.2-1,4.2-4.7v-2.2h6.4V14c0,8.2-4.4,11.2-10.6,11.2s-10.6-3-10.6-11.2V2
		c0-8.2,4.4-11.2,10.6-11.2s10.6,3,10.6,11.2v0.1h-6.4V1.2c0-3.7-1.6-4.7-4.2-4.7c-2.5,0-4.2,1-4.2,4.7V14.8z"/>
	<path class="st0" d="M249.8,24.7V-8.7h17.5v5.7h-11.1v7.7h8.5v5.7h-8.5v8.8h11.6v5.7H249.8z"/>
</g>
<g>
	<path class="st0" d="M287.5,24.7l7.4-24h3.9l7.4,24h-2.8l-2.3-7.5h-8.6l-2.3,7.5H287.5z M293.2,15h7.3L297,2.6h-0.4L293.2,15z"/>
	<path class="st0" d="M311.4,24.7v-24h3.8l10.5,18.5h0.1V0.8h2.4v24H326L313.9,3.3h-0.1v21.4H311.4z"/>
	<path class="st0" d="M335.9,0.8h6.4c6.5,0,10.8,4.1,10.8,12c0,7-3.8,12-10.9,12h-6.3L335.9,0.8L335.9,0.8z M338.6,22.5h3.6
		c5.5,0,8.4-3.3,8.4-9.7c0-7-3.3-9.7-8.2-9.7h-3.7V22.5L338.6,22.5z"/>
</g>
<g>
	<path class="st0" d="M101.8,68.5V35.1h9.2c7.9,0,11.7,3.7,11.7,10s-3.8,10-11.7,10h-2.8v13.4H101.8z M108.2,49.8h3.4
		c3.2,0,4.7-1.6,4.7-4.7s-1.6-4.7-4.7-4.7h-3.4V49.8z"/>
	<path class="st0" d="M135.1,35.1v23.4c0,3.2,1.4,4.9,4.5,4.9s4.5-1.7,4.5-4.9V35.1h6.4v23.4c0,7.4-4.4,10.5-10.9,10.5
		c-6.6,0-10.9-3.1-10.9-10.5V35.1H135.1z"/>
	<path class="st0" d="M157.7,35.1h9c6.9,0,10.8,2.9,10.8,8.6c0,2.9-1.4,5.3-4.1,7c3.5,2.2,4.9,4.1,4.9,8.2c0,6.6-4.4,9.6-11.2,9.6
		h-9.4C157.7,68.5,157.7,35.1,157.7,35.1z M164.1,48.3h2.2c2.9,0,4.8-1.7,4.8-3.9c0-2.5-1.4-4-4.4-4h-2.5L164.1,48.3L164.1,48.3z
		 M164.1,63.3h2.7c3.3,0,5.1-1.9,5.1-4.9c0-3.2-2.2-4.8-5.6-4.8h-2.2V63.3z"/>
	<path class="st0" d="M184.6,68.5V35.1h6.4v27.8h10.3v5.7H184.6z"/>
	<path class="st0" d="M206.7,68.5V35.1h6.4v33.5H206.7z"/>
	<path class="st0" d="M226.2,58.6c0,3.7,1.6,4.7,4.2,4.7c2.5,0,4.2-1,4.2-4.7v-2.2h6.4v1.4c0,8.2-4.4,11.2-10.6,11.2
		s-10.6-3-10.6-11.2v-12c0-8.2,4.4-11.2,10.6-11.2s10.6,3,10.6,11.2v0.1h-6.4V45c0-3.7-1.6-4.7-4.2-4.7c-2.5,0-4.2,1-4.2,4.7V58.6z"
		/>
	<path class="st0" d="M261.6,68.5V35.1h9.2c7.9,0,11.7,3.7,11.7,10s-3.8,10-11.7,10H268v13.4H261.6z M268,49.8h3.4
		c3.2,0,4.7-1.6,4.7-4.7s-1.6-4.7-4.7-4.7H268V49.8z"/>
	<path class="st0" d="M287.6,45.8c0-8.2,4.4-11.2,10.6-11.2c6.2,0,10.6,3,10.6,11.2v12c0,8.2-4.4,11.2-10.6,11.2
		c-6.2,0-10.6-3-10.6-11.2V45.8z M294,58.6c0,3.7,1.6,4.7,4.2,4.7c2.5,0,4.2-1,4.2-4.7V45c0-3.7-1.6-4.7-4.2-4.7
		c-2.5,0-4.2,1-4.2,4.7V58.6z"/>
	<path class="st0" d="M315.1,68.5V35.1h6.4v27.8h10.3v5.7H315.1z"/>
	<path class="st0" d="M337.2,68.5V35.1h6.4v33.5H337.2z"/>
	<path class="st0" d="M356.6,58.6c0,3.7,1.6,4.7,4.2,4.7s4.2-1,4.2-4.7v-2.2h6.4v1.4c0,8.2-4.4,11.2-10.6,11.2
		c-6.2,0-10.6-3-10.6-11.2v-12c0-8.2,4.4-11.2,10.6-11.2c6.2,0,10.6,3,10.6,11.2v0.1H365V45c0-3.7-1.6-4.7-4.2-4.7
		c-2.5,0-4.2,1-4.2,4.7V58.6z"/>
	<path class="st0" d="M387.8,48.6l5.4-13.5h6.8L390.9,55v13.5h-6.4V55l-9.1-19.9h6.8L387.8,48.6z"/>
</g>
</svg>
