<?xml version="1.0" encoding="utf-8"?>
<!-- Generator: Adobe Illustrator 21.0.0, SVG Export Plug-In . SVG Version: 6.00 Build 0)  -->
<svg version="1.1" id="Layer_1" xmlns="http://www.w3.org/2000/svg" xmlns:xlink="http://www.w3.org/1999/xlink" x="0px" y="0px"
	 viewBox="0 0 26.9 26.2" style="enable-background:new 0 0 26.9 26.2;" xml:space="preserve">
<style type="text/css">
	.st0{display:none;}
	.st1{display:inline;fill:none;stroke:#BCBEC0;stroke-width:0.25;stroke-miterlimit:10;}
</style>
<title>ad-to-cart</title>
<g id="Layer_2">
	<g id="grid" class="st0">
		<rect x="0.8" y="0.1" class="st1" width="2.4" height="2.4"/>
		<rect x="3.2" y="0.1" class="st1" width="2.4" height="2.4"/>
		<rect x="5.5" y="0.1" class="st1" width="2.4" height="2.4"/>
		<rect x="7.9" y="0.1" class="st1" width="2.4" height="2.4"/>
		<rect x="10.3" y="0.1" class="st1" width="2.4" height="2.4"/>
		<rect x="12.6" y="0.1" class="st1" width="2.4" height="2.4"/>
		<rect x="15" y="0.1" class="st1" width="2.4" height="2.4"/>
		<rect x="17.4" y="0.1" class="st1" width="2.4" height="2.4"/>
		<rect x="19.7" y="0.1" class="st1" width="2.4" height="2.4"/>
		<rect x="22.1" y="0.1" class="st1" width="2.4" height="2.4"/>
		<rect x="24.4" y="0.1" class="st1" width="2.4" height="2.4"/>
		<rect x="0.8" y="2.5" class="st1" width="2.4" height="2.4"/>
		<rect x="3.2" y="2.5" class="st1" width="2.4" height="2.4"/>
		<rect x="5.5" y="2.5" class="st1" width="2.4" height="2.4"/>
		<rect x="7.9" y="2.5" class="st1" width="2.4" height="2.4"/>
		<rect x="10.3" y="2.5" class="st1" width="2.4" height="2.4"/>
		<rect x="12.6" y="2.5" class="st1" width="2.4" height="2.4"/>
		<rect x="15" y="2.5" class="st1" width="2.4" height="2.4"/>
		<rect x="17.4" y="2.5" class="st1" width="2.4" height="2.4"/>
		<rect x="19.7" y="2.5" class="st1" width="2.4" height="2.4"/>
		<rect x="22.1" y="2.5" class="st1" width="2.4" height="2.4"/>
		<rect x="24.4" y="2.5" class="st1" width="2.4" height="2.4"/>
		<rect x="0.8" y="4.8" class="st1" width="2.4" height="2.4"/>
		<rect x="3.2" y="4.8" class="st1" width="2.4" height="2.4"/>
		<rect x="5.5" y="4.8" class="st1" width="2.4" height="2.4"/>
		<rect x="7.9" y="4.8" class="st1" width="2.4" height="2.4"/>
		<rect x="10.3" y="4.8" class="st1" width="2.4" height="2.4"/>
		<rect x="12.6" y="4.8" class="st1" width="2.4" height="2.4"/>
		<rect x="15" y="4.8" class="st1" width="2.4" height="2.4"/>
		<rect x="17.4" y="4.8" class="st1" width="2.4" height="2.4"/>
		<rect x="19.7" y="4.8" class="st1" width="2.4" height="2.4"/>
		<rect x="22.1" y="4.8" class="st1" width="2.4" height="2.4"/>
		<rect x="24.4" y="4.8" class="st1" width="2.4" height="2.4"/>
		<rect x="0.8" y="7.2" class="st1" width="2.4" height="2.4"/>
		<rect x="3.2" y="7.2" class="st1" width="2.4" height="2.4"/>
		<rect x="5.5" y="7.2" class="st1" width="2.4" height="2.4"/>
		<rect x="7.9" y="7.2" class="st1" width="2.4" height="2.4"/>
		<rect x="10.3" y="7.2" class="st1" width="2.4" height="2.4"/>
		<rect x="12.6" y="7.2" class="st1" width="2.4" height="2.4"/>
		<rect x="15" y="7.2" class="st1" width="2.4" height="2.4"/>
		<rect x="17.4" y="7.2" class="st1" width="2.4" height="2.4"/>
		<rect x="19.7" y="7.2" class="st1" width="2.4" height="2.4"/>
		<rect x="22.1" y="7.2" class="st1" width="2.4" height="2.4"/>
		<rect x="24.4" y="7.2" class="st1" width="2.4" height="2.4"/>
		<rect x="0.8" y="9.6" class="st1" width="2.4" height="2.4"/>
		<rect x="3.2" y="9.6" class="st1" width="2.4" height="2.4"/>
		<rect x="5.5" y="9.6" class="st1" width="2.4" height="2.4"/>
		<rect x="7.9" y="9.6" class="st1" width="2.4" height="2.4"/>
		<rect x="10.3" y="9.6" class="st1" width="2.4" height="2.4"/>
		<rect x="12.6" y="9.6" class="st1" width="2.4" height="2.4"/>
		<rect x="15" y="9.6" class="st1" width="2.4" height="2.4"/>
		<rect x="17.4" y="9.6" class="st1" width="2.4" height="2.4"/>
		<rect x="19.7" y="9.6" class="st1" width="2.4" height="2.4"/>
		<rect x="22.1" y="9.6" class="st1" width="2.4" height="2.4"/>
		<rect x="24.4" y="9.6" class="st1" width="2.4" height="2.4"/>
		<rect x="0.8" y="11.9" class="st1" width="2.4" height="2.4"/>
		<rect x="3.2" y="11.9" class="st1" width="2.4" height="2.4"/>
		<rect x="5.5" y="11.9" class="st1" width="2.4" height="2.4"/>
		<rect x="7.9" y="11.9" class="st1" width="2.4" height="2.4"/>
		<rect x="10.3" y="11.9" class="st1" width="2.4" height="2.4"/>
		<rect x="12.6" y="11.9" class="st1" width="2.4" height="2.4"/>
		<rect x="15" y="11.9" class="st1" width="2.4" height="2.4"/>
		<rect x="17.4" y="11.9" class="st1" width="2.4" height="2.4"/>
		<rect x="19.7" y="11.9" class="st1" width="2.4" height="2.4"/>
		<rect x="22.1" y="11.9" class="st1" width="2.4" height="2.4"/>
		<rect x="24.4" y="11.9" class="st1" width="2.4" height="2.4"/>
		<rect x="0.8" y="14.3" class="st1" width="2.4" height="2.4"/>
		<rect x="3.2" y="14.3" class="st1" width="2.4" height="2.4"/>
		<rect x="5.5" y="14.3" class="st1" width="2.4" height="2.4"/>
		<rect x="7.9" y="14.3" class="st1" width="2.4" height="2.4"/>
		<rect x="10.3" y="14.3" class="st1" width="2.4" height="2.4"/>
		<rect x="12.6" y="14.3" class="st1" width="2.4" height="2.4"/>
		<rect x="15" y="14.3" class="st1" width="2.4" height="2.4"/>
		<rect x="17.4" y="14.3" class="st1" width="2.4" height="2.4"/>
		<rect x="19.7" y="14.3" class="st1" width="2.4" height="2.4"/>
		<rect x="22.1" y="14.3" class="st1" width="2.4" height="2.4"/>
		<rect x="24.4" y="14.3" class="st1" width="2.4" height="2.4"/>
		<rect x="0.8" y="16.7" class="st1" width="2.4" height="2.4"/>
		<rect x="3.2" y="16.7" class="st1" width="2.4" height="2.4"/>
		<rect x="5.5" y="16.7" class="st1" width="2.4" height="2.4"/>
		<rect x="7.9" y="16.7" class="st1" width="2.4" height="2.4"/>
		<rect x="10.3" y="16.7" class="st1" width="2.4" height="2.4"/>
		<rect x="12.6" y="16.7" class="st1" width="2.4" height="2.4"/>
		<rect x="15" y="16.7" class="st1" width="2.4" height="2.4"/>
		<rect x="17.4" y="16.7" class="st1" width="2.4" height="2.4"/>
		<rect x="19.7" y="16.7" class="st1" width="2.4" height="2.4"/>
		<rect x="22.1" y="16.7" class="st1" width="2.4" height="2.4"/>
		<rect x="24.4" y="16.7" class="st1" width="2.4" height="2.4"/>
		<rect x="0.8" y="19" class="st1" width="2.4" height="2.4"/>
		<rect x="3.2" y="19" class="st1" width="2.4" height="2.4"/>
		<rect x="5.5" y="19" class="st1" width="2.4" height="2.4"/>
		<rect x="7.9" y="19" class="st1" width="2.4" height="2.4"/>
		<rect x="10.3" y="19" class="st1" width="2.4" height="2.4"/>
		<rect x="12.6" y="19" class="st1" width="2.4" height="2.4"/>
		<rect x="15" y="19" class="st1" width="2.4" height="2.4"/>
		<rect x="17.4" y="19" class="st1" width="2.4" height="2.4"/>
		<rect x="19.7" y="19" class="st1" width="2.4" height="2.4"/>
		<rect x="22.1" y="19" class="st1" width="2.4" height="2.4"/>
		<rect x="24.4" y="19" class="st1" width="2.4" height="2.4"/>
		<rect x="0.8" y="21.4" class="st1" width="2.4" height="2.4"/>
		<rect x="3.2" y="21.4" class="st1" width="2.4" height="2.4"/>
		<rect x="5.5" y="21.4" class="st1" width="2.4" height="2.4"/>
		<rect x="7.9" y="21.4" class="st1" width="2.4" height="2.4"/>
		<rect x="10.3" y="21.4" class="st1" width="2.4" height="2.4"/>
		<rect x="12.6" y="21.4" class="st1" width="2.4" height="2.4"/>
		<rect x="15" y="21.4" class="st1" width="2.4" height="2.4"/>
		<rect x="17.4" y="21.4" class="st1" width="2.4" height="2.4"/>
		<rect x="19.7" y="21.4" class="st1" width="2.4" height="2.4"/>
		<rect x="22.1" y="21.4" class="st1" width="2.4" height="2.4"/>
		<rect x="24.4" y="21.4" class="st1" width="2.4" height="2.4"/>
		<rect x="0.8" y="23.8" class="st1" width="2.4" height="2.4"/>
		<rect x="3.2" y="23.8" class="st1" width="2.4" height="2.4"/>
		<rect x="5.5" y="23.8" class="st1" width="2.4" height="2.4"/>
		<rect x="7.9" y="23.8" class="st1" width="2.4" height="2.4"/>
		<rect x="10.3" y="23.8" class="st1" width="2.4" height="2.4"/>
		<rect x="12.6" y="23.8" class="st1" width="2.4" height="2.4"/>
		<rect x="15" y="23.8" class="st1" width="2.4" height="2.4"/>
		<rect x="17.4" y="23.8" class="st1" width="2.4" height="2.4"/>
		<rect x="19.7" y="23.8" class="st1" width="2.4" height="2.4"/>
		<rect x="22.1" y="23.8" class="st1" width="2.4" height="2.4"/>
		<rect x="24.4" y="23.8" class="st1" width="2.4" height="2.4"/>
	</g>
	<g id="Layer_1-2">
		<polygon points="11.9,12.2 13.8,12.2 13.8,8 17.4,8 17.4,6.2 13.8,6.2 13.8,2.5 11.9,2.5 11.9,6.2 7.8,6.2 7.8,8 11.9,8 		"/>
		<polygon points="22.9,20.9 25.6,8.5 19.7,8.5 19.7,10.3 23.3,10.3 21.5,19 8.6,19 6.4,8.6 0,8.6 0,12.2 1.8,12.2 1.8,10.4 
			4.9,10.4 6.9,20 6.9,20 6.9,24.5 9.2,24.5 9.2,25.9 11,25.9 11,24.5 21.1,24.5 21.1,25.9 22.9,25.9 22.9,22.7 8.7,22.7 8.7,20.9 
					"/>
	</g>
</g>
</svg>
