<?xml version="1.0" encoding="utf-8"?>
<!-- Generator: Adobe Illustrator 21.0.0, SVG Export Plug-In . SVG Version: 6.00 Build 0)  -->
<svg version="1.1" id="Layer_1" xmlns="http://www.w3.org/2000/svg" xmlns:xlink="http://www.w3.org/1999/xlink" x="0px" y="0px"
	 viewBox="0 0 26.2 26.2" style="enable-background:new 0 0 26.2 26.2;" xml:space="preserve">
<style type="text/css">
	.st0{display:none;}
	.st1{display:inline;fill:none;stroke:#BCBEC0;stroke-width:0.25;stroke-miterlimit:10;}
	.st2{fill:none;stroke:#000000;stroke-width:2;stroke-miterlimit:10;}
</style>
<title>arrow-button</title>
<g id="Layer_2">
	<g id="grid" class="st0">
		<rect x="0.1" y="0.1" class="st1" width="2.4" height="2.4"/>
		<rect x="2.5" y="0.1" class="st1" width="2.4" height="2.4"/>
		<rect x="4.8" y="0.1" class="st1" width="2.4" height="2.4"/>
		<rect x="7.2" y="0.1" class="st1" width="2.4" height="2.4"/>
		<rect x="9.6" y="0.1" class="st1" width="2.4" height="2.4"/>
		<rect x="11.9" y="0.1" class="st1" width="2.4" height="2.4"/>
		<rect x="14.3" y="0.1" class="st1" width="2.4" height="2.4"/>
		<rect x="16.7" y="0.1" class="st1" width="2.4" height="2.4"/>
		<rect x="19" y="0.1" class="st1" width="2.4" height="2.4"/>
		<rect x="21.4" y="0.1" class="st1" width="2.4" height="2.4"/>
		<rect x="23.8" y="0.1" class="st1" width="2.4" height="2.4"/>
		<rect x="0.1" y="2.5" class="st1" width="2.4" height="2.4"/>
		<rect x="2.5" y="2.5" class="st1" width="2.4" height="2.4"/>
		<rect x="4.8" y="2.5" class="st1" width="2.4" height="2.4"/>
		<rect x="7.2" y="2.5" class="st1" width="2.4" height="2.4"/>
		<rect x="9.6" y="2.5" class="st1" width="2.4" height="2.4"/>
		<rect x="11.9" y="2.5" class="st1" width="2.4" height="2.4"/>
		<rect x="14.3" y="2.5" class="st1" width="2.4" height="2.4"/>
		<rect x="16.7" y="2.5" class="st1" width="2.4" height="2.4"/>
		<rect x="19" y="2.5" class="st1" width="2.4" height="2.4"/>
		<rect x="21.4" y="2.5" class="st1" width="2.4" height="2.4"/>
		<rect x="23.8" y="2.5" class="st1" width="2.4" height="2.4"/>
		<rect x="0.1" y="4.8" class="st1" width="2.4" height="2.4"/>
		<rect x="2.5" y="4.8" class="st1" width="2.4" height="2.4"/>
		<rect x="4.8" y="4.8" class="st1" width="2.4" height="2.4"/>
		<rect x="7.2" y="4.8" class="st1" width="2.4" height="2.4"/>
		<rect x="9.6" y="4.8" class="st1" width="2.4" height="2.4"/>
		<rect x="11.9" y="4.8" class="st1" width="2.4" height="2.4"/>
		<rect x="14.3" y="4.8" class="st1" width="2.4" height="2.4"/>
		<rect x="16.7" y="4.8" class="st1" width="2.4" height="2.4"/>
		<rect x="19" y="4.8" class="st1" width="2.4" height="2.4"/>
		<rect x="21.4" y="4.8" class="st1" width="2.4" height="2.4"/>
		<rect x="23.8" y="4.8" class="st1" width="2.4" height="2.4"/>
		<rect x="0.1" y="7.2" class="st1" width="2.4" height="2.4"/>
		<rect x="2.5" y="7.2" class="st1" width="2.4" height="2.4"/>
		<rect x="4.8" y="7.2" class="st1" width="2.4" height="2.4"/>
		<rect x="7.2" y="7.2" class="st1" width="2.4" height="2.4"/>
		<rect x="9.6" y="7.2" class="st1" width="2.4" height="2.4"/>
		<rect x="11.9" y="7.2" class="st1" width="2.4" height="2.4"/>
		<rect x="14.3" y="7.2" class="st1" width="2.4" height="2.4"/>
		<rect x="16.7" y="7.2" class="st1" width="2.4" height="2.4"/>
		<rect x="19" y="7.2" class="st1" width="2.4" height="2.4"/>
		<rect x="21.4" y="7.2" class="st1" width="2.4" height="2.4"/>
		<rect x="23.8" y="7.2" class="st1" width="2.4" height="2.4"/>
		<rect x="0.1" y="9.6" class="st1" width="2.4" height="2.4"/>
		<rect x="2.5" y="9.6" class="st1" width="2.4" height="2.4"/>
		<rect x="4.8" y="9.6" class="st1" width="2.4" height="2.4"/>
		<rect x="7.2" y="9.6" class="st1" width="2.4" height="2.4"/>
		<rect x="9.6" y="9.6" class="st1" width="2.4" height="2.4"/>
		<rect x="11.9" y="9.6" class="st1" width="2.4" height="2.4"/>
		<rect x="14.3" y="9.6" class="st1" width="2.4" height="2.4"/>
		<rect x="16.7" y="9.6" class="st1" width="2.4" height="2.4"/>
		<rect x="19" y="9.6" class="st1" width="2.4" height="2.4"/>
		<rect x="21.4" y="9.6" class="st1" width="2.4" height="2.4"/>
		<rect x="23.8" y="9.6" class="st1" width="2.4" height="2.4"/>
		<rect x="0.1" y="11.9" class="st1" width="2.4" height="2.4"/>
		<rect x="2.5" y="11.9" class="st1" width="2.4" height="2.4"/>
		<rect x="4.8" y="11.9" class="st1" width="2.4" height="2.4"/>
		<rect x="7.2" y="11.9" class="st1" width="2.4" height="2.4"/>
		<rect x="9.6" y="11.9" class="st1" width="2.4" height="2.4"/>
		<rect x="11.9" y="11.9" class="st1" width="2.4" height="2.4"/>
		<rect x="14.3" y="11.9" class="st1" width="2.4" height="2.4"/>
		<rect x="16.7" y="11.9" class="st1" width="2.4" height="2.4"/>
		<rect x="19" y="11.9" class="st1" width="2.4" height="2.4"/>
		<rect x="21.4" y="11.9" class="st1" width="2.4" height="2.4"/>
		<rect x="23.8" y="11.9" class="st1" width="2.4" height="2.4"/>
		<rect x="0.1" y="14.3" class="st1" width="2.4" height="2.4"/>
		<rect x="2.5" y="14.3" class="st1" width="2.4" height="2.4"/>
		<rect x="4.8" y="14.3" class="st1" width="2.4" height="2.4"/>
		<rect x="7.2" y="14.3" class="st1" width="2.4" height="2.4"/>
		<rect x="9.6" y="14.3" class="st1" width="2.4" height="2.4"/>
		<rect x="11.9" y="14.3" class="st1" width="2.4" height="2.4"/>
		<rect x="14.3" y="14.3" class="st1" width="2.4" height="2.4"/>
		<rect x="16.7" y="14.3" class="st1" width="2.4" height="2.4"/>
		<rect x="19" y="14.3" class="st1" width="2.4" height="2.4"/>
		<rect x="21.4" y="14.3" class="st1" width="2.4" height="2.4"/>
		<rect x="23.8" y="14.3" class="st1" width="2.4" height="2.4"/>
		<rect x="0.1" y="16.7" class="st1" width="2.4" height="2.4"/>
		<rect x="2.5" y="16.7" class="st1" width="2.4" height="2.4"/>
		<rect x="4.8" y="16.7" class="st1" width="2.4" height="2.4"/>
		<rect x="7.2" y="16.7" class="st1" width="2.4" height="2.4"/>
		<rect x="9.6" y="16.7" class="st1" width="2.4" height="2.4"/>
		<rect x="11.9" y="16.7" class="st1" width="2.4" height="2.4"/>
		<rect x="14.3" y="16.7" class="st1" width="2.4" height="2.4"/>
		<rect x="16.7" y="16.7" class="st1" width="2.4" height="2.4"/>
		<rect x="19" y="16.7" class="st1" width="2.4" height="2.4"/>
		<rect x="21.4" y="16.7" class="st1" width="2.4" height="2.4"/>
		<rect x="23.8" y="16.7" class="st1" width="2.4" height="2.4"/>
		<rect x="0.1" y="19" class="st1" width="2.4" height="2.4"/>
		<rect x="2.5" y="19" class="st1" width="2.4" height="2.4"/>
		<rect x="4.8" y="19" class="st1" width="2.4" height="2.4"/>
		<rect x="7.2" y="19" class="st1" width="2.4" height="2.4"/>
		<rect x="9.6" y="19" class="st1" width="2.4" height="2.4"/>
		<rect x="11.9" y="19" class="st1" width="2.4" height="2.4"/>
		<rect x="14.3" y="19" class="st1" width="2.4" height="2.4"/>
		<rect x="16.7" y="19" class="st1" width="2.4" height="2.4"/>
		<rect x="19" y="19" class="st1" width="2.4" height="2.4"/>
		<rect x="21.4" y="19" class="st1" width="2.4" height="2.4"/>
		<rect x="23.8" y="19" class="st1" width="2.4" height="2.4"/>
		<rect x="0.1" y="21.4" class="st1" width="2.4" height="2.4"/>
		<rect x="2.5" y="21.4" class="st1" width="2.4" height="2.4"/>
		<rect x="4.8" y="21.4" class="st1" width="2.4" height="2.4"/>
		<rect x="7.2" y="21.4" class="st1" width="2.4" height="2.4"/>
		<rect x="9.6" y="21.4" class="st1" width="2.4" height="2.4"/>
		<rect x="11.9" y="21.4" class="st1" width="2.4" height="2.4"/>
		<rect x="14.3" y="21.4" class="st1" width="2.4" height="2.4"/>
		<rect x="16.7" y="21.4" class="st1" width="2.4" height="2.4"/>
		<rect x="19" y="21.4" class="st1" width="2.4" height="2.4"/>
		<rect x="21.4" y="21.4" class="st1" width="2.4" height="2.4"/>
		<rect x="23.8" y="21.4" class="st1" width="2.4" height="2.4"/>
		<rect x="0.1" y="23.8" class="st1" width="2.4" height="2.4"/>
		<rect x="2.5" y="23.8" class="st1" width="2.4" height="2.4"/>
		<rect x="4.8" y="23.8" class="st1" width="2.4" height="2.4"/>
		<rect x="7.2" y="23.8" class="st1" width="2.4" height="2.4"/>
		<rect x="9.6" y="23.8" class="st1" width="2.4" height="2.4"/>
		<rect x="11.9" y="23.8" class="st1" width="2.4" height="2.4"/>
		<rect x="14.3" y="23.8" class="st1" width="2.4" height="2.4"/>
		<rect x="16.7" y="23.8" class="st1" width="2.4" height="2.4"/>
		<rect x="19" y="23.8" class="st1" width="2.4" height="2.4"/>
		<rect x="21.4" y="23.8" class="st1" width="2.4" height="2.4"/>
		<rect x="23.8" y="23.8" class="st1" width="2.4" height="2.4"/>
	</g>
	<g id="Layer_1-2">
		<polyline class="st2" points="8.2,2.7 17.9,12.4 8.2,22.1 		"/>
	</g>
</g>
</svg>
