<?xml version="1.0" encoding="utf-8"?>
<!-- Generator: Adobe Illustrator 21.0.0, SVG Export Plug-In . SVG Version: 6.00 Build 0)  -->
<svg version="1.1" id="Layer_1" xmlns="http://www.w3.org/2000/svg" xmlns:xlink="http://www.w3.org/1999/xlink" x="0px" y="0px"
	 viewBox="0 0 26.2 28" style="enable-background:new 0 0 26.2 28;" xml:space="preserve">
<style type="text/css">
	.st0{display:none;}
	.st1{display:inline;fill:none;stroke:#BCBEC0;stroke-width:0.25;stroke-miterlimit:10;}
</style>
<title>notify-me-alert</title>
<g id="Layer_2">
	<g id="grid" class="st0">
		<rect x="0.1" y="0.8" class="st1" width="2.4" height="2.4"/>
		<rect x="2.5" y="0.8" class="st1" width="2.4" height="2.4"/>
		<rect x="4.8" y="0.8" class="st1" width="2.4" height="2.4"/>
		<rect x="7.2" y="0.8" class="st1" width="2.4" height="2.4"/>
		<rect x="9.6" y="0.8" class="st1" width="2.4" height="2.4"/>
		<rect x="11.9" y="0.8" class="st1" width="2.4" height="2.4"/>
		<rect x="14.3" y="0.8" class="st1" width="2.4" height="2.4"/>
		<rect x="16.7" y="0.8" class="st1" width="2.4" height="2.4"/>
		<rect x="19" y="0.8" class="st1" width="2.4" height="2.4"/>
		<rect x="21.4" y="0.8" class="st1" width="2.4" height="2.4"/>
		<rect x="23.8" y="0.8" class="st1" width="2.4" height="2.4"/>
		<rect x="0.1" y="3.2" class="st1" width="2.4" height="2.4"/>
		<rect x="2.5" y="3.2" class="st1" width="2.4" height="2.4"/>
		<rect x="4.8" y="3.2" class="st1" width="2.4" height="2.4"/>
		<rect x="7.2" y="3.2" class="st1" width="2.4" height="2.4"/>
		<rect x="9.6" y="3.2" class="st1" width="2.4" height="2.4"/>
		<rect x="11.9" y="3.2" class="st1" width="2.4" height="2.4"/>
		<rect x="14.3" y="3.2" class="st1" width="2.4" height="2.4"/>
		<rect x="16.7" y="3.2" class="st1" width="2.4" height="2.4"/>
		<rect x="19" y="3.2" class="st1" width="2.4" height="2.4"/>
		<rect x="21.4" y="3.2" class="st1" width="2.4" height="2.4"/>
		<rect x="23.8" y="3.2" class="st1" width="2.4" height="2.4"/>
		<rect x="0.1" y="5.6" class="st1" width="2.4" height="2.4"/>
		<rect x="2.5" y="5.6" class="st1" width="2.4" height="2.4"/>
		<rect x="4.8" y="5.6" class="st1" width="2.4" height="2.4"/>
		<rect x="7.2" y="5.6" class="st1" width="2.4" height="2.4"/>
		<rect x="9.6" y="5.6" class="st1" width="2.4" height="2.4"/>
		<rect x="11.9" y="5.6" class="st1" width="2.4" height="2.4"/>
		<rect x="14.3" y="5.6" class="st1" width="2.4" height="2.4"/>
		<rect x="16.7" y="5.6" class="st1" width="2.4" height="2.4"/>
		<rect x="19" y="5.6" class="st1" width="2.4" height="2.4"/>
		<rect x="21.4" y="5.6" class="st1" width="2.4" height="2.4"/>
		<rect x="23.8" y="5.6" class="st1" width="2.4" height="2.4"/>
		<rect x="0.1" y="7.9" class="st1" width="2.4" height="2.4"/>
		<rect x="2.5" y="7.9" class="st1" width="2.4" height="2.4"/>
		<rect x="4.8" y="7.9" class="st1" width="2.4" height="2.4"/>
		<rect x="7.2" y="7.9" class="st1" width="2.4" height="2.4"/>
		<rect x="9.6" y="7.9" class="st1" width="2.4" height="2.4"/>
		<rect x="11.9" y="7.9" class="st1" width="2.4" height="2.4"/>
		<rect x="14.3" y="7.9" class="st1" width="2.4" height="2.4"/>
		<rect x="16.7" y="7.9" class="st1" width="2.4" height="2.4"/>
		<rect x="19" y="7.9" class="st1" width="2.4" height="2.4"/>
		<rect x="21.4" y="7.9" class="st1" width="2.4" height="2.4"/>
		<rect x="23.8" y="7.9" class="st1" width="2.4" height="2.4"/>
		<rect x="0.1" y="10.3" class="st1" width="2.4" height="2.4"/>
		<rect x="2.5" y="10.3" class="st1" width="2.4" height="2.4"/>
		<rect x="4.8" y="10.3" class="st1" width="2.4" height="2.4"/>
		<rect x="7.2" y="10.3" class="st1" width="2.4" height="2.4"/>
		<rect x="9.6" y="10.3" class="st1" width="2.4" height="2.4"/>
		<rect x="11.9" y="10.3" class="st1" width="2.4" height="2.4"/>
		<rect x="14.3" y="10.3" class="st1" width="2.4" height="2.4"/>
		<rect x="16.7" y="10.3" class="st1" width="2.4" height="2.4"/>
		<rect x="19" y="10.3" class="st1" width="2.4" height="2.4"/>
		<rect x="21.4" y="10.3" class="st1" width="2.4" height="2.4"/>
		<rect x="23.8" y="10.3" class="st1" width="2.4" height="2.4"/>
		<rect x="0.1" y="12.7" class="st1" width="2.4" height="2.4"/>
		<rect x="2.5" y="12.7" class="st1" width="2.4" height="2.4"/>
		<rect x="4.8" y="12.7" class="st1" width="2.4" height="2.4"/>
		<rect x="7.2" y="12.7" class="st1" width="2.4" height="2.4"/>
		<rect x="9.6" y="12.7" class="st1" width="2.4" height="2.4"/>
		<rect x="11.9" y="12.7" class="st1" width="2.4" height="2.4"/>
		<rect x="14.3" y="12.7" class="st1" width="2.4" height="2.4"/>
		<rect x="16.7" y="12.7" class="st1" width="2.4" height="2.4"/>
		<rect x="19" y="12.7" class="st1" width="2.4" height="2.4"/>
		<rect x="21.4" y="12.7" class="st1" width="2.4" height="2.4"/>
		<rect x="23.8" y="12.7" class="st1" width="2.4" height="2.4"/>
		<rect x="0.1" y="15" class="st1" width="2.4" height="2.4"/>
		<rect x="2.5" y="15" class="st1" width="2.4" height="2.4"/>
		<rect x="4.8" y="15" class="st1" width="2.4" height="2.4"/>
		<rect x="7.2" y="15" class="st1" width="2.4" height="2.4"/>
		<rect x="9.6" y="15" class="st1" width="2.4" height="2.4"/>
		<rect x="11.9" y="15" class="st1" width="2.4" height="2.4"/>
		<rect x="14.3" y="15" class="st1" width="2.4" height="2.4"/>
		<rect x="16.7" y="15" class="st1" width="2.4" height="2.4"/>
		<rect x="19" y="15" class="st1" width="2.4" height="2.4"/>
		<rect x="21.4" y="15" class="st1" width="2.4" height="2.4"/>
		<rect x="23.8" y="15" class="st1" width="2.4" height="2.4"/>
		<rect x="0.1" y="17.4" class="st1" width="2.4" height="2.4"/>
		<rect x="2.5" y="17.4" class="st1" width="2.4" height="2.4"/>
		<rect x="4.8" y="17.4" class="st1" width="2.4" height="2.4"/>
		<rect x="7.2" y="17.4" class="st1" width="2.4" height="2.4"/>
		<rect x="9.6" y="17.4" class="st1" width="2.4" height="2.4"/>
		<rect x="11.9" y="17.4" class="st1" width="2.4" height="2.4"/>
		<rect x="14.3" y="17.4" class="st1" width="2.4" height="2.4"/>
		<rect x="16.7" y="17.4" class="st1" width="2.4" height="2.4"/>
		<rect x="19" y="17.4" class="st1" width="2.4" height="2.4"/>
		<rect x="21.4" y="17.4" class="st1" width="2.4" height="2.4"/>
		<rect x="23.8" y="17.4" class="st1" width="2.4" height="2.4"/>
		<rect x="0.1" y="19.8" class="st1" width="2.4" height="2.4"/>
		<rect x="2.5" y="19.8" class="st1" width="2.4" height="2.4"/>
		<rect x="4.8" y="19.8" class="st1" width="2.4" height="2.4"/>
		<rect x="7.2" y="19.8" class="st1" width="2.4" height="2.4"/>
		<rect x="9.6" y="19.8" class="st1" width="2.4" height="2.4"/>
		<rect x="11.9" y="19.8" class="st1" width="2.4" height="2.4"/>
		<rect x="14.3" y="19.8" class="st1" width="2.4" height="2.4"/>
		<rect x="16.7" y="19.8" class="st1" width="2.4" height="2.4"/>
		<rect x="19" y="19.8" class="st1" width="2.4" height="2.4"/>
		<rect x="21.4" y="19.8" class="st1" width="2.4" height="2.4"/>
		<rect x="23.8" y="19.8" class="st1" width="2.4" height="2.4"/>
		<rect x="0.1" y="22.1" class="st1" width="2.4" height="2.4"/>
		<rect x="2.5" y="22.1" class="st1" width="2.4" height="2.4"/>
		<rect x="4.8" y="22.1" class="st1" width="2.4" height="2.4"/>
		<rect x="7.2" y="22.1" class="st1" width="2.4" height="2.4"/>
		<rect x="9.6" y="22.1" class="st1" width="2.4" height="2.4"/>
		<rect x="11.9" y="22.1" class="st1" width="2.4" height="2.4"/>
		<rect x="14.3" y="22.1" class="st1" width="2.4" height="2.4"/>
		<rect x="16.7" y="22.1" class="st1" width="2.4" height="2.4"/>
		<rect x="19" y="22.1" class="st1" width="2.4" height="2.4"/>
		<rect x="21.4" y="22.1" class="st1" width="2.4" height="2.4"/>
		<rect x="23.8" y="22.1" class="st1" width="2.4" height="2.4"/>
		<rect x="0.1" y="24.5" class="st1" width="2.4" height="2.4"/>
		<rect x="2.5" y="24.5" class="st1" width="2.4" height="2.4"/>
		<rect x="4.8" y="24.5" class="st1" width="2.4" height="2.4"/>
		<rect x="7.2" y="24.5" class="st1" width="2.4" height="2.4"/>
		<rect x="9.6" y="24.5" class="st1" width="2.4" height="2.4"/>
		<rect x="11.9" y="24.5" class="st1" width="2.4" height="2.4"/>
		<rect x="14.3" y="24.5" class="st1" width="2.4" height="2.4"/>
		<rect x="16.7" y="24.5" class="st1" width="2.4" height="2.4"/>
		<rect x="19" y="24.5" class="st1" width="2.4" height="2.4"/>
		<rect x="21.4" y="24.5" class="st1" width="2.4" height="2.4"/>
		<rect x="23.8" y="24.5" class="st1" width="2.4" height="2.4"/>
	</g>
	<g id="Layer_1-2">
		<path d="M24.7,14.6l-2.4-2.5L21,4.6h-2.2V2.8L15.9,0h-5.4L7.3,2.8v1.8H5.2l-1.1,7.6l-2.3,2.4v8.7h7.3v2.7l2.5,1.9h3l2.3-1.9v-2.7
			h7.8L24.7,14.6z M9.1,3.6l2-1.8h4l1.8,1.8v1H9.1V3.6z M5.8,13l1-6.6h12.6l1.1,6.7l2.3,2.3v2.5H3.6v-2.4L5.8,13z M15.1,25.2l-1.1,1
			h-1.8L11,25.2v-1.8h4.1L15.1,25.2z M3.6,21.5v-1.8h19.3v1.8H3.6z"/>
	</g>
</g>
</svg>
