<svg xmlns="http://www.w3.org/2000/svg" viewBox="0 0 18 18"><title>pinterest</title><g id="Layer_2" data-name="Layer 2"><g id="Layer_1-2" data-name="Layer 1"><path d="M9,0a9,9,0,1,0,9,9A9,9,0,0,0,9,0ZM9,17.16a8.15,8.15,0,0,1-2.41-.36,9.12,9.12,0,0,0,1-2.14l.51-1.94a2.18,2.18,0,0,0,1.87.94c2.46,0,4.23-2.26,4.23-5.07a4.79,4.79,0,0,0-5-4.71c-3.52,0-5.39,2.36-5.39,4.93A3.66,3.66,0,0,0,5.44,12c.15.07.24,0,.27-.11l.23-.92a.24.24,0,0,0-.06-.23,3.17,3.17,0,0,1-.61-1.86A3.53,3.53,0,0,1,9,5.3a3.22,3.22,0,0,1,3.41,3.32c0,2.21-1.11,3.73-2.56,3.73a1.18,1.18,0,0,1-1.21-1.47,16.43,16.43,0,0,0,.68-2.72A1,1,0,0,0,8.23,7c-.82,0-1.48.85-1.48,2A2.94,2.94,0,0,0,7,10.2L6,14.25a7.82,7.82,0,0,0,0,2.34,8.15,8.15,0,1,1,3,.56Z"/></g></g></svg>