<svg xmlns="http://www.w3.org/2000/svg" viewBox="0 0 18 14.63"><title>twitter</title><g id="Layer_2" data-name="Layer 2"><g id="Layer_1-2" data-name="Layer 1"><path d="M18,1.73a7.38,7.38,0,0,1-2.12.58,3.7,3.7,0,0,0,1.62-2,7.39,7.39,0,0,1-2.35.9A3.7,3.7,0,0,0,8.86,4.53,10.48,10.48,0,0,1,1.25.68,3.7,3.7,0,0,0,2.4,5.61,3.68,3.68,0,0,1,.72,5.14v0a3.7,3.7,0,0,0,3,3.62A3.7,3.7,0,0,1,2,8.88a3.7,3.7,0,0,0,3.45,2.56A7.41,7.41,0,0,1,.88,13,7.52,7.52,0,0,1,0,13a10.45,10.45,0,0,0,5.66,1.66A10.44,10.44,0,0,0,16.17,4.12q0-.24,0-.48A7.51,7.51,0,0,0,18,1.73Z"/></g></g></svg>