<svg xmlns="http://www.w3.org/2000/svg" viewBox="0 0 21.77 20.16"><defs><style>.cls-1,.cls-2{fill:#fff;stroke-miterlimit:10;}.cls-1{stroke:#fff;stroke-width:0.16px;}.cls-2{stroke:#000;}</style></defs><title>twitter-outline</title><g id="Layer_2" data-name="Layer 2"><g id="Layer_1-2" data-name="Layer 1"><rect class="cls-1" x="0.83" y="0.08" width="20" height="20"/><path class="cls-2" d="M20.39,5.5a7.5,7.5,0,0,1-2.16.59A3.76,3.76,0,0,0,19.89,4a7.51,7.51,0,0,1-2.38.91,3.76,3.76,0,0,0-6.39,3.42A10.65,10.65,0,0,1,3.37,4.43a3.76,3.76,0,0,0,1.16,5A3.74,3.74,0,0,1,2.83,9V9a3.76,3.76,0,0,0,3,3.68,3.76,3.76,0,0,1-1.69.06,3.76,3.76,0,0,0,3.51,2.61A7.53,7.53,0,0,1,3,17a7.61,7.61,0,0,1-.9-.05A10.62,10.62,0,0,0,7.85,18.6,10.6,10.6,0,0,0,18.53,7.93q0-.24,0-.49A7.63,7.63,0,0,0,20.39,5.5Z"/></g></g></svg>