<?xml version="1.0" encoding="utf-8"?>
<!-- Generator: Adobe Illustrator 19.1.0, SVG Export Plug-In . SVG Version: 6.00 Build 0)  -->
<svg version="1.1" id="Layer_1" xmlns="http://www.w3.org/2000/svg" xmlns:xlink="http://www.w3.org/1999/xlink" x="0px" y="0px"
	 viewBox="0 0 160 76.599" style="enable-background:new 0 0 160 76.599;" xml:space="preserve">
<style type="text/css">
	.st0{fill:#FFFFFF;}
</style>
<g>
	<g>
		<line class="st0" x1="82.3654" y1="5.5499" x2="82.3654" y2="5.9136"/>
		<path class="st0" d="M8.5669,17.4669H0.0026v-0.3637h0.6317c0.881,0,1.2067-0.2876,1.2067-1.2645V7.3506
			c0-1.0149-0.3059-1.4364-1.5127-1.4364H0.0604V5.5504h5.6518v0.3637H5.0032c-1.2449,0-1.5721,0.1339-1.5721,1.3208v8.8336
			c0,0.5174,0.2115,0.7091,0.7669,0.7091h2.8168c1.1306,0,1.4747-0.4413,2.6829-2.1075h0.3452L8.5669,17.4669z"/>
		<path class="st0" d="M16.784,17.7737c-3.7556,0-6.9161-2.4148-6.9161-5.997c0-3.8134,2.9309-6.5144,7.0119-6.5144
			c3.6217,0,6.7248,2.4711,6.7248,5.9194C23.6047,15.0528,20.5016,17.7737,16.784,17.7737 M16.3823,5.7415
			c-3.3735,0-4.7143,3.1424-4.7143,5.4403c0,3.5835,2.4333,6.1126,5.5177,6.1126c3.1229,0,4.6186-2.7587,4.6186-5.4796
			C21.8044,8.2509,19.543,5.7415,16.3823,5.7415"/>
		<path class="st0" d="M36.24,17.6005L26.3154,7.2164v8.2201c0,1.3788,0.3074,1.6664,1.9355,1.6664v0.3637H23.806v-0.3637h0.0763
			c1.1884,0,1.5716-0.4032,1.5716-1.2845V6.3929c-0.4411-0.3072-0.9389-0.4595-1.6099-0.4793V5.5499h3.0085l9.0238,9.4072V7.332
			c0-1.1688-0.3439-1.3801-1.8779-1.4184V5.5499h4.4847v0.3637c-1.4382,0-1.744,0.2495-1.744,0.9969v10.69H36.24z"/>
		<path class="st0" d="M41.2031,7.4648c0-1.2447-0.3256-1.5506-1.4564-1.5506h-0.3834V5.5505
			c0.7093-0.0396,1.6481-0.0776,2.7011-0.1156c1.0547-0.0393,2.2231-0.0578,3.22-0.0578c5.0567,0,7.2983,2.5672,7.2983,5.7292
			c0,2.8929-2.2416,6.3609-7.0885,6.3609h-6.1309v-0.3637h0.3258c1.0347,0,1.514-0.2878,1.514-1.3986V7.4648z M42.7932,16.0488
			c0,0.7867,0.0578,1.0547,1.5705,1.0547c2.5685,0,3.6398-0.3652,4.8284-1.5536c0.7089-0.6895,1.5901-2.164,1.5901-4.1376
			c0-1.4184-0.4017-2.9889-1.5323-4.1195c-0.8813-0.881-2.2416-1.5521-4.9243-1.5521c-0.7852,0-1.3027,0.0578-1.5325,0.0761V16.0488
			z"/>
		<path class="st0" d="M60.6667,17.7737c-3.7556,0-6.9163-2.4148-6.9163-5.997c0-3.8134,2.9309-6.5144,7.0135-6.5144
			c3.6204,0,6.7233,2.4711,6.7233,5.9194C67.4871,15.0528,64.3842,17.7737,60.6667,17.7737 M60.2649,5.7415
			c-3.3735,0-4.7143,3.1424-4.7143,5.4403c0,3.5835,2.4348,6.1126,5.5177,6.1126c3.1239,0,4.6184-2.7587,4.6184-5.4796
			C65.6868,8.2509,63.4256,5.7415,60.2649,5.7415"/>
		<path class="st0" d="M82.3654,5.9137c-1.4377,0-1.7423,0.2495-1.7423,0.9967v10.6902H80.124L70.1992,7.2164v8.2201
			c0,1.3788,0.3061,1.6664,1.9342,1.6664v0.3637H67.69V17.103h0.0746c1.1886,0,1.5721-0.4032,1.5721-1.2845V6.393
			c-0.4413-0.3074-0.9376-0.4595-1.6086-0.4793V5.55h3.007l9.0238,9.4072V7.3319c0-1.1686-0.3441-1.3801-1.8777-1.4182V5.55h4.4843"
			/>
		<path class="st0" d="M14.225,74.117v-0.3226h-0.1692c-1.022,0-1.3619-0.2736-1.3619-1.4846v-7.0601
			c0-1.0558,0.2708-1.3631,1.2929-1.3969V63.527h-2.725l-4.0841,8.5952L3.0754,63.527H0.5069v0.3074
			c0.8301,0.0535,1.022,0.2749,1.0345,0.9122v7.9044c0,0.7854-0.3396,1.1435-1.3956,1.1435H0.0783v0.3226H4.027v-0.3226
			c-1.448,0-1.7199-0.2566-1.7199-1.4846v-7.2815h0.0028L6.649,74.117h0.3918l4.2377-9.0887h0.003v7.4859
			c0,0.8866-0.2384,1.2802-1.3449,1.2802H9.4095v0.3226H14.225z"/>
		<path class="st0" d="M23.4674,74.1174l0.2721-2.5361h-0.3074c-0.4245,1.4633-0.7826,1.9228-1.9738,1.9228h-2.6207
			c-0.6302,0-0.9191-0.1522-0.9191-0.9361v-3.6245h2.8759c0.6977,0,1.022,0.1354,1.1587,1.3451h0.3228v-3.234h-0.3228
			c-0.0858,0.9866-0.3748,1.2757-0.9883,1.2757h-3.0463v-4.1868h3.5908c0.613,0,1.0375,0.3071,1.2602,1.7535h0.3046l-0.1339-2.3654
			h-8.1696v0.3228h0.3736c1.1405,0,1.3619,0.4073,1.3619,1.3619v7.1826c0,1.0205-0.2382,1.3943-1.6,1.3943h-0.1354v0.3241H23.4674z
			 M34.5788,68.7395c0,1.7522-0.7837,3.0631-1.4126,3.6765c-1.0543,1.0545-2.0088,1.3773-4.2883,1.3773
			c-1.3451,0-1.3971-0.2384-1.3971-0.9361v-9.0874c0.2044-0.0168,0.6639-0.069,1.3619-0.069c2.3839,0,3.5906,0.5965,4.3742,1.3788
			C34.2208,66.0835,34.5788,67.4806,34.5788,68.7395 M36.1776,68.4671c0-2.8082-1.9905-5.0891-6.4834-5.0891
			c-0.8853,0-1.9243,0.017-2.8604,0.0522c-0.9361,0.034-1.7679,0.0662-2.3994,0.1014v0.3228h0.3398
			c1.0051,0,1.2941,0.2734,1.2941,1.3788v7.3178c0,0.987-0.4245,1.2421-1.3449,1.2421h-0.2891v0.3241h5.4474
			C34.187,74.1174,36.1776,71.0372,36.1776,68.4671 M36.9346,74.1174h4.135v-0.3241c-1.1744,0-1.4465-0.3398-1.4465-1.3436v-7.2164
			c0-1.1407,0.3736-1.3788,1.4465-1.3788v-0.3228h-4.135v0.3228c0.9515,0.0507,1.2759,0.3059,1.2759,1.2252V72.33
			c0,1.1405-0.2214,1.4124-1.2759,1.4633V74.1174z M51.4408,73.93c0.409-0.6639,0.8683-1.7184,1.0884-2.4856h-0.3228
			c-1.1574,2.0598-2.8082,2.5195-4.153,2.5195c-2.5868,0-4.7987-2.2629-4.7987-5.3445c0-2.8589,1.7705-4.9187,4.6113-4.9187
			c1.8564,0,3.3197,1.039,3.8807,2.6208h0.3243l-0.1552-2.4671h-0.2536c-0.035,0.0507-0.1197,0.103-0.3074,0.103
			c-0.527,0-1.445-0.6824-3.5906-0.6824c-3.5568,0-6.1098,2.3839-6.1098,5.6841c0,3.1495,2.4855,5.4304,5.9392,5.4304
			C49.6026,74.3896,50.3511,73.7763,51.4408,73.93 M53.1721,74.1174h4.1376v-0.3241c-1.1744,0-1.4478-0.3398-1.4478-1.3436v-7.2164
			c0-1.1407,0.3751-1.3788,1.4478-1.3788v-0.3228h-4.1376v0.3228c0.9545,0.0507,1.2772,0.3059,1.2772,1.2252V72.33
			c0,1.1405-0.2214,1.4124-1.2772,1.4633V74.1174z M71.241,63.8545v-0.3228h-3.9813v0.3228
			c1.3603,0.0353,1.6677,0.2214,1.6677,1.2604v6.7738l-8.0157-8.357h-2.673v0.3228c0.5965,0.017,1.039,0.1537,1.4296,0.4258v8.3738
			c0,0.7826-0.3398,1.1392-1.3956,1.1392h-0.0679v0.3241h3.9488v-0.3241c-1.4463,0-1.7199-0.2551-1.7199-1.4803v-7.301
			l8.8166,9.2254h0.4426v-9.4975C69.6928,64.0759,69.9649,63.8545,71.241,63.8545 M74.9089,72.5682v-3.6245h2.8759
			c0.6979,0,1.0223,0.1354,1.1577,1.3451h0.3239v-3.234h-0.3239c-0.0847,0.9866-0.3738,1.2757-0.987,1.2757h-3.0465v-4.1868h3.5921
			c0.6119,0,1.0377,0.3071,1.2574,1.7535h0.3074l-0.1352-2.3654h-8.1696v0.3228h0.3738c1.1403,0,1.3619,0.4073,1.3619,1.3619v7.1826
			c0,1.0205-0.2384,1.3943-1.6002,1.3943H71.42v0.3241h9.0375l0.2723-2.5361h-0.3074c-0.4243,1.4633-0.7824,1.9228-1.9736,1.9228
			h-2.621C75.198,73.5042,74.9089,73.352,74.9089,72.5682"/>
		<path class="st0" d="M6.8871,58.4629c-0.6893,0.5922-1.6183,0.901-2.5208,0.901c-1.8156,0-3.606-1.5761-3.606-3.4498
			c0-0.8161,0.6487-1.9145,1.5353-1.9145C2.8045,53.9997,3.873,55.886,6.8871,58.4629 M11.418,59.6754h-0.0015H11.418
			c0,0-0.5539,0.0565-0.8838,0.0312c-0.1509-0.0086-0.299-0.0608-0.299-0.0608c-0.0634-0.0239-0.1309-0.0576-0.1988-0.0944
			c-0.014-0.0071-0.0282-0.0142-0.0421-0.0226c-0.0677-0.0368-0.1354-0.0789-0.2059-0.1255
			c-0.0155-0.0099-0.0297-0.0211-0.0436-0.0309c-0.0664-0.0451-0.1354-0.0931-0.2044-0.1438
			c-0.0084-0.0071-0.017-0.0127-0.0269-0.0198c-0.0718-0.0563-0.1466-0.1154-0.2214-0.1747
			c-0.0183-0.017-0.0378-0.0325-0.0576-0.0466l-0.2117-0.1775c-0.0196-0.017-0.0378-0.0337-0.0561-0.0494
			c-0.058-0.0507-0.1143-0.0999-0.1707-0.1494c-0.0213-0.0183-0.0423-0.0353-0.0606-0.0535
			c-0.0578-0.0522-0.1159-0.1014-0.1707-0.1509c-0.2255-0.2016-0.4215-0.3807-0.5638-0.492
			c0.4509-0.8022,0.5638-1.7045,0.6611-2.5924c0.0619-0.5429,0.3987-0.5315,0.5638-0.5627v-0.2397l-0.0013-0.0013H6.6897v0.2409
			c0.193,0.0438,1.2533-0.0563,1.2533,1.3649c0,0.5919-0.055,1.0994-0.4073,1.4943c-3.0425-2.8168-5.1274-5.0427-5.1274-5.9858
			c0-0.667,0.5088-1.1265,1.1446-1.139c0.9825,0.0282,1.8891,0.685,2.2882,1.7126h0.2493l-0.2493-1.8538H5.6086
			c-0.089,0.1171-0.1468,0.1468-0.2637,0.1468c-0.4217,0-0.6895-0.2412-1.4562-0.3259H3.8871
			c-0.1945-0.0226-0.3368-0.0211-0.3368-0.0211c-1.0631,0.0015-1.9441,0.7289-1.9441,1.8891c0,0.5907,0.2818,1.1547,0.6485,1.6058
			c-1.5072,0.3228-2.2543,1.4773-2.2543,2.9857c0,2.1952,1.8158,3.5624,3.8867,3.5624c1.3816,0,2.4501-0.4793,3.4652-1.4222
			c0.7497,0.6003,1.5026,1.3702,2.5092,1.418h0.017c0.0337,0.0015,0.055,0.0043,0.0804,0.0043l0.0254-0.0013
			c0,0,0.0198,0.0013,0.0297,0.0013l0.0168-0.0043v0.0043c0,0,0.389-0.0127,0.8417-0.103c0.2523-0.0492,0.5455-0.124,0.5455-0.124
			V59.6754z"/>
		<path class="st0" d="M0.3452,28.9926c0.3566,1.51,1.5437,2.3912,2.866,2.3912c1.1377,0,2.3403-0.6599,2.3403-2.0006
			c0-2.443-5.4433-3.1888-5.4433-6.1578c0-1.4068,1.2888-2.4585,3.0197-2.4585c1.424,0,1.7116,0.4243,2.305,0.4243
			c0.1369,0,0.2044-0.0353,0.3061-0.1692h0.2719l0.2876,2.1541H6.0108c-0.475-1.2224-1.5605-2.0019-2.7306-2.0019
			c-1.1209,0-1.9005,0.6444-1.9005,1.5944c0,2.408,5.4446,3.0521,5.4446,6.1735c0,1.6634-1.4747,2.8997-3.4594,2.8997
			c-0.9335,0-2.1204-0.458-2.3572-0.458c-0.1537,0-0.2721,0.0858-0.3398,0.1874H0.379l-0.3566-2.5786H0.3452z"/>
		<path class="st0" d="M17.7757,23.8024c-0.5584-1.5761-2.0189-2.6121-3.867-2.6121c-2.8322,0-4.5958,2.0539-4.5958,4.9017
			c0,3.0702,2.2051,5.326,4.7835,5.326c1.3391,0,2.9844-0.4582,4.1376-2.5094h0.3228c-0.2214,0.7628-0.6794,1.8145-1.0857,2.4757
			c-1.0854-0.1524-1.8326,0.458-3.8345,0.458c-3.4425,0-5.9181-2.2725-5.9181-5.4106c0-3.2903,2.5447-5.6643,6.0888-5.6643
			c2.1371,0,3.0534,0.6781,3.5792,0.6781c0.1864,0,0.2708-0.0507,0.3046-0.1015h0.2553l0.1522,2.4585H17.7757z"/>
		<path class="st0" d="M21.7764,26.5339v3.2226c0,1.1011,0.2212,1.493,1.3575,1.493h0.0509v0.3215h-4.2577v-0.3215h0.1032
			c1.0007,0,1.3391-0.2721,1.3391-1.2391v-7.4618c0-0.8823-0.2891-1.1377-1.2209-1.2052v-0.3215h4.0363v0.3215
			c-1.2041,0-1.4085,0.3228-1.4085,1.6297v2.949h6.6496v-3.341c0-0.898-0.2887-1.2376-1.3391-1.2376H26.764v-0.3215h4.359v0.3215
			c-1.0177,0.0338-1.2901,0.3396-1.2901,1.3913v7.0388c0,1.2039,0.3398,1.476,1.3578,1.476h0.1692v0.3215h-4.7987v-0.3215h0.5257
			c1.1009,0,1.3391-0.3918,1.3391-1.2729v-3.4427H21.7764z"/>
		<path class="st0" d="M37.9005,31.8431c-3.3242,0-6.124-2.1374-6.124-5.3092c0-3.375,2.5954-5.7672,6.2072-5.7672
			c3.2071,0,5.9547,2.1879,5.9547,5.2415C43.9384,29.4352,41.1908,31.8431,37.9005,31.8431 M37.5439,21.1909
			c-2.9846,0-4.173,2.7813-4.173,4.8172c0,3.1718,2.1541,5.4104,4.8849,5.4104c2.7658,0,4.0881-2.443,4.0881-4.8507
			C42.344,23.4128,40.3422,21.1909,37.5439,21.1909"/>
		<path class="st0" d="M51.1334,31.8431c-3.3242,0-6.1238-2.1374-6.1238-5.3092c0-3.375,2.5954-5.7672,6.207-5.7672
			c3.2073,0,5.9549,2.1879,5.9549,5.2415C57.1714,29.4352,54.4238,31.8431,51.1334,31.8431 M50.7768,21.1909
			c-2.9844,0-4.1728,2.7813-4.1728,4.8172c0,3.1718,2.1539,5.4104,4.886,5.4104c2.7648,0,4.0871-2.443,4.0871-4.8507
			C55.577,23.4128,53.5753,21.1909,50.7768,21.1909"/>
		<path class="st0" d="M65.0312,31.5713h-7.5815v-0.3226h0.5595c0.7796,0,1.0672-0.2541,1.0672-1.1181v-7.5153
			c0-0.898-0.2706-1.2716-1.3393-1.2716h-0.2367v-0.3215h5.0031v0.3215h-0.6274c-1.1037,0-1.3913,0.1184-1.3913,1.1699v7.8186
			c0,0.4582,0.1861,0.6274,0.6794,0.6274h2.4924c1.001,0,1.3055-0.3893,2.3753-1.865h0.3046L65.0312,31.5713z"/>
		<path class="st0" d="M72.0684,23.2385c0.4933,0,1.5437,0.6766,1.5437,2.4924c0,3.2213-3.2043,4.6298-4.0024,4.6298
			c-0.7963,0-1.5084-1.2716-1.5084-2.6788C68.1013,24.9346,71.052,23.2385,72.0684,23.2385 M71.2044,23.8644
			c-1.0687,0-2.0189,2.0527-2.0189,3.7485c0,1.4253,0.6104,2.1204,1.1871,2.1204c1.3576,0,2.1539-2.2036,2.1539-3.7655
			C72.5264,24.7809,71.95,23.8644,71.2044,23.8644"/>
		<path class="st0" d="M74.4918,24.1728l0.0507-0.2805c0.4075-0.0436,0.8148-0.103,1.2376-0.1917
			c0.2553-1.2097,0.7643-2.4785,1.7144-3.306c0.5934-0.5159,1.3393-0.7966,2.0017-0.7966c0.6611,0,1.2026,0.3244,1.2026,0.7093
			c0,0.2354-0.2016,0.4284-0.475,0.4284c-0.5584,0-1.0164-0.6061-1.5084-0.6061c-0.6627,0-1.2039,0.65-1.4407,1.6226l-0.4595,1.9329
			h1.4605l-0.1704,0.4877h-1.3915l-0.8645,4.3095c-0.6624,3.3045-2.5952,4.4845-4.1896,4.4845
			c-0.7134,0-1.3068-0.3086-1.3068-0.6781c0-0.2354,0.2721-0.4426,0.5612-0.4426c0.6259,0,0.9655,0.6485,1.6099,0.6485
			c0.3918,0,0.7301-0.1623,1.036-0.4273c0.8473-0.7385,1.1701-3.2606,1.2378-3.6159l0.8641-4.2786H74.4918z"/>
		<path class="st0" d="M3.1592,41.2509v3.5725c0,1.2221,0.244,1.6548,1.5026,1.6548h0.0565v0.3581H0v-0.3581h0.1126
			c1.1095,0,1.4859-0.3003,1.4859-1.373v-8.2724c0-0.9771-0.32-1.2589-1.3535-1.3352V35.141h4.4733v0.3566
			c-1.3337,0-1.5592,0.3581-1.5592,1.8046v3.2735h7.37v-3.7049c0-0.9967-0.3198-1.3732-1.4859-1.3732H8.6868V35.141h4.8325v0.3566
			c-1.1291,0.0383-1.4293,0.3766-1.4293,1.5424v7.8029c0,1.335,0.3764,1.6353,1.5029,1.6353h0.1889v0.3581H8.4613v-0.3581h0.582
			c1.2224,0,1.4859-0.4327,1.4859-1.4098v-3.8175H3.1592z"/>
		<path class="st0" d="M23.9434,36.8523c0.6018-1.0332,0.2452-1.3548-0.9588-1.3548V35.141h4.2491v0.3566
			c-1.2774,0.0946-1.8229,0.602-2.3501,1.4859l-3.1211,5.2836v2.8196c0,0.9969,0.3581,1.3915,1.5056,1.3915h0.2425v0.3581H18.341
			v-0.3581h0.3566c1.166,0,1.5056-0.4327,1.5056-1.3533v-2.6519l-3.3468-5.2258c-0.9234-1.4478-1.3545-1.7113-2.5754-1.7496V35.141
			h4.9988v0.3566c-1.4663,0-1.5592,0.3581-0.9952,1.2224l3.0083,4.6435L23.9434,36.8523z"/>
		<path class="st0" d="M37.2547,45.9525c-1.8607,0.9586-4.2491,1.1841-5.0384,1.1841c-4.118,0-6.0353-3.1774-6.0353-5.9222
			c0-2.8196,1.9738-6.3551,6.5625-6.3551c2.0116,0,3.3466,0.6386,3.7399,0.6386c0.1692,0,0.32-0.0368,0.4329-0.1311h0.2635v3.045
			h-0.3764c-0.5075-2.3501-2.1047-3.0831-3.8541-3.0831c-3.3088,0-5.0021,2.7448-5.0021,5.7728
			c0,3.8543,2.7082,5.5656,4.8707,5.5656c0.8643,0,1.8229-0.1887,2.8774-0.7147v-2.3697c0-1.0715-0.3764-1.428-1.5056-1.428H33.495
			v-0.3398h5.0764v0.3398c-0.9404,0.0563-1.3167,0.3749-1.3167,1.1841V45.9525z"/>
		<path class="st0" d="M43.6233,46.8362h-4.569v-0.3581c1.1658-0.0563,1.4098-0.3566,1.4098-1.6155v-8.0103
			c0-1.0164-0.3566-1.2985-1.4098-1.3548V35.141h4.569v0.3566c-1.1856,0-1.5985,0.265-1.5985,1.5239v7.9708
			c0,1.1095,0.3003,1.4859,1.5985,1.4859V46.8362z"/>
		<path class="st0" d="M53.1144,42.6055h-0.3581c-0.1494-1.335-0.5075-1.4859-1.2772-1.4859h-3.1777v4.0052
			c0,0.8641,0.3185,1.0347,1.0149,1.0347h2.8944c1.3167,0,1.7113-0.509,2.1808-2.1245h0.3385l-0.299,2.8013h-9.9839V46.478h0.5257
			c1.5044,0,1.7681-0.4129,1.7681-1.5422v-7.934c0-1.0532-0.2455-1.5041-1.5041-1.5041h-0.4146v-0.3568h9.0251l0.1509,2.6137
			h-0.3383c-0.2455-1.5985-0.7147-1.9355-1.3928-1.9355h-3.9656v4.624h3.3651c0.6766,0,0.9967-0.32,1.0897-1.4098h0.3581V42.6055z"
			/>
		<path class="st0" d="M67.7832,46.967l-9.7397-10.1911v8.0667c0,1.3533,0.3016,1.6353,1.8988,1.6353v0.3581h-4.3618v-0.3581h0.0746
			c1.1673,0,1.5424-0.3946,1.5424-1.2589v-9.2508c-0.4314-0.3018-0.9206-0.4512-1.5789-0.4709v-0.3566h2.9522l8.8544,9.231v-7.4814
			c0-1.1476-0.3383-1.3535-1.8425-1.393v-0.3566h4.4011v0.3566c-1.4111,0-1.7113,0.2455-1.7113,0.9784V46.967H67.7832z"/>
		<path class="st0" d="M79.1216,42.6055h-0.3581c-0.1494-1.335-0.5062-1.4859-1.277-1.4859h-3.1779v4.0052
			c0,0.8641,0.3187,1.0347,1.0152,1.0347h2.8941c1.3182,0,1.7116-0.509,2.1823-2.1245h0.337l-0.299,2.8013h-9.9837V46.478h0.5257
			c1.5041,0,1.7679-0.4129,1.7679-1.5422v-7.934c0-1.0532-0.244-1.5041-1.5041-1.5041h-0.4146v-0.3568h9.0268l0.1492,2.6137h-0.3381
			c-0.2439-1.5985-0.7149-1.9355-1.3928-1.9355h-3.9658v4.624h3.3653c0.6764,0,0.9965-0.32,1.0895-1.4098h0.3581V42.6055z"/>
		<path class="st0" d="M15.3733,58.5671c0,0.8318,0.2762,1.1237,1.215,1.1237h0.5711v0.2932H12.31v-0.2932h0.5694
			c0.9391,0,1.2168-0.2919,1.2168-1.1237v-7.6028h-2.6786c-0.6147,0-0.8911,0.354-1.1237,1.7073h-0.2762l0.2465-2.4909h0.2919
			c0.0155,0.0916,0.0776,0.1537,0.1692,0.1846c0.0933,0.0297,0.2003,0.0451,0.3076,0.0451h7.4038
			c0.2143,0,0.4456-0.0451,0.4765-0.2298h0.2932l0.2468,2.4909h-0.279c-0.23-1.3533-0.5077-1.7073-1.1237-1.7073h-2.6771V58.5671z"
			/>
		<path class="st0" d="M22.7182,58.5373c0,0.9232,0.3693,1.1531,1.2307,1.1531h0.3538v0.2932h-4.3564v-0.2932h0.2622
			c0.9081,0,1.2325-0.2467,1.2325-1.2774V51.934c0-0.9543-0.2624-1.2307-1.1562-1.2307h-0.3385v-0.2932
			c0.371,0,1.3098-0.0606,1.94-0.0916c0.6302-0.0312,0.9389-0.0466,1.9383-0.0466c2.849,0,4.1249,1.1701,4.1249,2.7392
			c0,1.1544-0.785,2.1245-2.0456,2.4937c0.5683,0.4471,1.0306,0.8769,1.7537,1.6002l1.2155,1.2153
			c0.9092,0.9092,1.8478,1.4788,3.0321,1.5549v0.2777c-2.694,0.1225-3.3861-0.4623-4.7551-1.8326l-1.0162-1.0152
			c-0.6768-0.6766-1.2155-1.1235-1.5845-1.3689c-0.3862,0.0157-0.6302,0.0297-1.0463,0.0297c-0.3396,0-0.5397-0.014-0.785-0.0297
			V58.5373z M22.7182,55.643c0.3693,0.0466,0.6005,0.0312,0.9541,0.0312c1.7088,0,2.8323-0.7233,2.8323-2.5713
			c0-1.4296-0.647-2.5391-3.0167-2.5391c-0.2934,0-0.4935,0-0.7697,0.0325V55.643z"/>
		<path class="st0" d="M35.5002,60.2296c-3.0154,0-5.556-1.9398-5.556-4.8185c0-3.0605,2.3542-5.2303,5.6335-5.2303
			c2.9096,0,5.4021,1.985,5.4021,4.7551C40.9798,58.0443,38.4874,60.2296,35.5002,60.2296 M35.1773,50.5642
			c-2.7095,0-3.7866,2.5236-3.7866,4.3716c0,2.8774,1.9553,4.9088,4.4338,4.9088c2.5079,0,3.709-2.216,3.709-4.4011
			C39.5335,52.5801,37.7177,50.5642,35.1773,50.5642"/>
		<path class="st0" d="M43.6303,58.505c0,0.8628,0.2622,1.1856,1.2307,1.1856h0.5075v0.2932h-4.2631v-0.2932h0.2158
			c0.8004,0,1.0319-0.1692,1.0319-0.8924v-7.28c0-0.5681-0.1848-0.8148-0.7246-0.8148h-0.7699v-0.2932
			c0.4327-0.0155,1.1856-0.0606,1.9398-0.0916c0.7542-0.0312,1.493-0.0464,1.9089-0.0464c3.217,0,3.9542,1.5394,3.9542,2.7235
			c0,1.8003-1.4463,2.9408-3.7232,2.9408c-0.461,0-0.8471-0.0325-1.3081-0.1242V58.505z M43.6303,55.5206
			c0.2001,0.0451,0.5384,0.1227,0.8303,0.1227c1.6776,0,2.7547-1.1392,2.7547-2.6928c0-1.2011-0.4765-2.3867-2.5236-2.3867
			c-0.3538,0-0.6921,0-1.0614,0.0621V55.5206z"/>
		<path class="st0" d="M53.058,59.9837h-3.7389v-0.2932c0.9515-0.0451,1.1534-0.2919,1.1534-1.3223v-6.5567
			c0-0.8318-0.2934-1.0631-1.1534-1.108v-0.2934h3.7389v0.2934c-0.9685,0-1.3083,0.2141-1.3083,1.2462v6.5256
			c0,0.9079,0.2468,1.2153,1.3083,1.2153V59.9837z"/>
		<path class="st0" d="M62.586,52.9337c-0.5075-1.4308-1.8326-2.3697-3.5089-2.3697c-2.5698,0-4.17,1.8637-4.17,4.449
			c0,2.7843,2.0004,4.8312,4.3392,4.8312c1.2153,0,2.7095-0.4157,3.7556-2.2781h0.2919c-0.2003,0.6936-0.616,1.6482-0.984,2.2487
			c-0.987-0.1397-1.6634,0.4159-3.4794,0.4159c-3.1239,0-5.3711-2.0638-5.3711-4.9116c0-2.9846,2.3091-5.1385,5.5248-5.1385
			c1.9385,0,2.7704,0.6145,3.2482,0.6145c0.1692,0,0.2467-0.0466,0.2764-0.0916h0.2311l0.138,2.2302H62.586z"/>
		<path class="st0" d="M66.1839,55.7346l-0.8937,2.4163c-0.1073,0.2934-0.3076,0.7542-0.3076,0.9713
			c0,0.4146,0.3991,0.5681,1.2464,0.5681h0.2468v0.2934H62.919v-0.2934c1.0008-0.0153,1.1699-0.1844,1.6634-1.5237l2.7998-7.648
			l-0.1367-0.3385h1.3378l3.217,8.5419c0.3074,0.8148,0.6302,0.9683,1.3999,0.9683v0.2934H68.968v-0.2934h0.4006
			c0.8782,0,1.1996-0.0916,1.1996-0.5229c0-0.2467-0.107-0.4763-0.1679-0.63l-1.0317-2.8028H66.1839z M67.753,51.473l-1.3096,3.585
			h2.6644L67.753,51.473z"/>
		<path class="st0" d="M80.3237,59.9837H73.444v-0.2932h0.5062c0.7091,0,0.9713-0.2298,0.9713-1.0164v-6.8174
			c0-0.8148-0.2465-1.1532-1.215-1.1532h-0.2173v-0.2934h4.5408v0.2934h-0.5694c-0.9997,0-1.2632,0.107-1.2632,1.0614v7.0953
			c0,0.4144,0.1692,0.5681,0.6175,0.5681h2.2611c0.9094,0,1.1856-0.3538,2.1556-1.6931h0.2762L80.3237,59.9837z"/>
	</g>
	<g>
		<path class="st0" d="M110.4116,15.7419c0,0,1.3928-2.9704,4.084-4.5209c0.8469-0.4851,1.6694-0.9733,2.6894-0.9888
			c2.4981-0.0398,3.8556,0.8498,4.66,2.1831c0.0878,0.1505,0.1715,0.3036,0.2483,0.4639c0.0482,0.1021,0.0865,0.4014,0.1163,0.8725
			c-0.0383,0.1207-0.0908,0.2297-0.149,0.2511c-0.1434,0.0567-0.3277-0.0638-0.4453,0.1077
			c-0.1275,0.1873-0.0313,0.3689,0.021,0.4425c0.0541,0.074,0.1348,0.3236-0.021,0.7334c-0.0413,0.1122-0.1107,0.2271-0.1901,0.3633
			c-0.3435,0.59-0.7436,1.1376-1.0029,1.7077c-0.3603,0.7819-0.542,1.5051-0.5915,1.6215c-0.0839,0.2-0.2768,1.8187-0.2768,2.1321
			c0,0.1916,0.0115,0.5731,0.0428,0.9108c0.0184,0.2128,0.0623,0.4397,0.0638,0.4864c0.0013,0.1845,0.0041,0.295-0.223,0.3802
			c-0.0664,0.0255-0.3433,0.0056-0.7516,0c-0.4539-0.0056-1.0697,0-1.5844-0.0311c-0.6356-0.0398-1.1705-0.1149-1.2499-0.1261
			c-0.2001-0.0286-0.2001-0.0868-0.271-0.2172c-0.0736-0.1291,0.0454-0.4327-0.0681-0.4327c-0.1133,0-0.3489,0.2539-0.4907,0.3973
			c-0.1419,0.1431-0.4369,0.2098-0.3545,0.2906c0.2565,0.2554,0.7176,0.8939,0.7602,0.7819
			c0.0498-0.1278-0.0283-0.4144,0.2866-0.5435c0.1204-0.0482,1.2057,0.061,2.1903,0.0922c0.3361,0.0099,0.7303,0.1079,1.2185,0.0683
			c0.1745-0.0115,0.3517,0.0311,0.5048,0.0154c1.0498-0.0962,1.6273,0.0286,2.0527,0.149c0.2243,0.0638,0.4029,0.1278,0.5803,0.1774
			v0.0028h0.01c0.2054,0.0554,0.4042,0.0893,0.6622,0.0753c0.271-0.0141,0.5394,0.0084,0.7818-0.0186
			c0.4512-0.0523,1.0213-0.2156,1.4257-0.3019c0.9756-0.21,1.3798-0.3363,1.5248-0.3575c0.115-0.0186,0.4285-0.0666,0.7872-0.098
			c0.4185-0.0342,0.8952-0.0483,1.2002-0.0483c0.3432,0,1.3277,0.0753,2.1704,0.1335c0.2085,0.0156,0.4185,0.0623,0.5943,0.0681
			c0.298,0.0097,0.5291-0.0413,0.6497-0.0597c0.4752-0.0766,0.8086-0.3292,1.0386-0.5234c0.136-0.1151,0.2509-0.2044,0.2879-0.2412
			c0.1332-0.1319,0.7617-0.4044,0.7914-0.5277c0.0058-0.0199-0.0097-0.0495-0.0681-0.0595
			c-0.1161-0.0214-0.3476-0.0115-0.553-0.0086c-0.2639,0.0043-0.5688,0.0666-0.7816,0.0936
			c-0.237,0.0296-1.4597,0.3106-2.1093,0.4665c-0.1164,0.0286-0.2185,0.0059-0.3264,0.0271
			c-0.3603,0.0681-0.6836,0.1176-0.9759,0.173c-0.3307,0.0653-0.5859,0.0753-0.6737,0.0824c-0.3733,0.0255-0.8554,0-1.1578-0.0084
			c-0.5135-0.0143-1.0412-0.0569-1.2767-0.0712c-0.4142-0.0268-1.017-0.1687-1.2086-0.2154
			c-0.0125-0.0043-0.0255-0.01-0.0426-0.0115h-0.0013c-0.1149-0.0299-0.4086,0.0155-0.8242,0.183
			c-0.1432,0.0581-0.2468,0.1235-0.3277,0.1916l-0.0028,0.0013c-0.0653,0.051-0.1177,0.1163-0.1646,0.186l-0.0042,0.0113
			c-0.0086,0.0113-0.0145,0.024-0.0229,0.0368h-0.0011c-0.0584,0.098-0.1079,0.1944-0.1648,0.2626
			c-0.1403,0.1503-0.3573,0.0311-0.495-0.0242c-0.0199-0.0071-0.0426-0.0212-0.0608-0.0424
			c-0.054-0.0737-0.0897-0.1421-0.1122-0.2113c-0.0269-0.1051-0.0327-0.2299,0.0043-0.3677
			c0.0539-0.1672,0.1702-0.3248,0.2935-0.475c0.0184-0.0257,0.0411-0.0484,0.0625-0.0709c0.3547-0.3093,0.8623-0.4512,1.2397-0.5376
			c0.2654-0.0597,0.4499-0.0952,0.5009-0.122c0.0253-0.01,0.0424-0.0199,0.0595-0.0313c0.0794-0.034,0.1149-0.0809,0.1107-0.2141
			c-0.0199-0.6142-0.088-1.2142-0.0965-1.7746c-0.0171-0.8538-0.0497-1.6413-0.0528-2.349
			c-0.0011-0.6469,0.0313-1.2328,0.0043-1.7449c-0.0283-0.5347,0.0541-2.1079,0.122-2.2923
			c0.6979-1.8894,2.6243-2.3023,4.0967-2.227c0.9521,0.048,1.6753,0.3488,1.8825,0.4211c3.5338,1.2386,4.0145,5.8856,4.1861,5.2387
			c1.108-4.1506-1.1205-6.5422-3.959-7.1565c-4.0344-0.8709-6.6075,1.9705-6.7807,2.2484c-0.1715,0.2809-0.9475-0.0426-0.539-0.5576
			c1.6212-2.0469,3.5961-2.3036,5.1024-2.6059c1.0909-0.2169,3.7209,0.3192,5.1422,1.0781c1.203,0.6412,1.783,1.5122,1.7235,1.2895
			c-0.1942-0.7092-0.9248-3.7875-5.1649-4.1108c-2.1563-0.1633-4.047,0.6793-5.4544,1.7419
			c-0.7332,0.5545-1.3275,1.2042-1.7771,1.725c-0.5889,0.678-0.8612,1.2609-1.013,1.268c-0.3573,0.0158-1.0509-1.081-2.6029-1.8299
			c-0.7349-0.3532-1.6044-0.6127-2.5889-0.7163c-1.0057-0.1049-2.1619-0.0582-3.2952,0.3999
			c-0.6653,0.2682-1.2215,0.5591-1.6712,0.9633c-1.2709,1.1406-1.8499,2.9336-1.9816,4.196
			C110.2838,15.0256,110.4116,15.7419,110.4116,15.7419z M122.3798,17.9419c-0.0056,0.2768-0.0368,0.5974-0.0439,0.9577
			c-0.0242,1.3915-0.0668,3.1801-0.183,3.7875c-0.0186,0.1036-0.0625,0.1475-0.0995,0.1715
			c-0.037,0.0242-0.0738,0.0653-0.1332,0.0681c-0.2157,0.0143-0.5535,0.0227-0.6214,0.0115
			c-0.1233-0.0198-0.2863-0.037-0.3616-0.037c-0.0752,0-0.3774,0.0028-0.4726-0.0383c-0.1503-0.0597-0.2171-0.1475-0.285-0.3021
			c-0.0455-0.0965-0.1008-0.383-0.1319-0.7064c-0.0255-0.2638-0.0313-0.5603-0.0498-0.8015c-0.0154-0.2-0.0141-0.2751,0.0214-0.5262
			c0.0469-0.3376,0.3006-1.9562,0.4553-2.2811c0.1391-0.2978,0.1222-0.322,0.3208-0.6852c0.1233-0.2241,0.2396-0.407,0.4183-0.688
			c0.1816-0.2851,0.3547-0.5943,0.4682-0.8184c0.0312-0.0625,0.051-0.1163,0.0737-0.1477c0.0582-0.0835,0.0893-0.0511,0.1036-0.0511
			c0.1006,0,0.1419,0.0625,0.2042,0.2243c0.0625,0.1631,0.2866,0.8597,0.3134,1.0567
			C122.3826,17.1817,122.3939,17.4966,122.3798,17.9419z M122.6067,14.6283c0.1064,0.0625,0.2256,0.3902,0.2682,0.4966
			c0.0411,0.1062,1.8327,5.1678,1.8738,5.3038c0.0439,0.1378-0.0228,0.3463-0.2157,0.4129
			c-0.1631,0.0567-0.3646,0.0666-0.4894-0.1761c-0.0455-0.0893-0.6722-1.9604-1.2272-3.5759
			c-0.3729-1.0866-0.7261-2.0116-0.7559-2.1025c-0.051-0.1531,0.0768-0.3177,0.1929-0.3703
			C122.3699,14.5645,122.5018,14.5645,122.6067,14.6283z"/>
		<path class="st0" d="M125.4863,48.6562c-0.0666-0.0383-0.2863,0.0368-0.5913,0.1205c-0.1776,0.0482-0.3973,0.0867-0.5987,0.1475
			c-0.4101,0.1235-0.8015,0.2626-1.1448,0.2468c-0.5362-0.0253-0.4412-0.3277-0.8569-0.4864
			c-0.3659-0.139-0.739-0.0186-1.0723,0.0498l-0.0924,0.1546c0.1801,0.675,0.3419,1.4949,0.4228,2.2908
			c0.0595,0.5759,0.0625,1.1404,0.0625,1.6299c0,0.0965-0.0313,0.295-0.0482,0.6056c-0.0171,0.2782-0.0171,0.6597-0.0426,0.8895
			c-0.027,0.2399-0.0737,0.4951-0.112,0.739c-0.04,0.2398-0.0908,0.444-0.1419,0.678c-0.0893,0.4256-0.1958,0.8753-0.3519,1.254
			c-0.4909,1.1945-1.1887,2.2015-1.6937,3.4414c-0.1916,0.4751-0.4285,0.9633-0.6696,1.4242
			c-0.1362,0.2597-0.322,0.5788-0.5772,0.8467c-0.2271,0.2386-0.5165,0.4285-0.7122,0.613
			c-0.1588,0.1505-0.2725,0.3447-0.3675,0.5009c-0.2269,0.3728-0.4157,0.7048-0.6413,0.9715
			c-0.0508,0.0625-0.1246,0.1276-0.1985,0.1661l3.0869,0.0567c-0.0569-0.0255-0.1036-0.0654-0.1447-0.122
			c-0.0924-0.261-0.2271-0.705-0.2611-1.1506c0.0141-0.1914,0.0709-0.3828,0.1289-0.4694c0.1023-0.1589,0.2483-0.3348,0.4555-0.4894
			c0.1633-0.1207,0.393-0.2215,0.5433-0.3093c0.1704-0.1008,0.2552-0.0638,0.3715-0.1916c0.1434-0.1587,0.0696-0.2608,0.1163-0.4083
			c0.2029-0.6767,0.5392-1.4158,0.8171-2.0866c0.3631-0.8766,0.8299-1.8527,1.3632-2.6131
			c0.2937-0.4185,0.7094-0.7574,0.7929-1.0822c0.0683-0.2638,0.0199-0.6056,0.0071-0.9447
			c-0.0113-0.2865,0.0214-0.5688,0.0357-0.8186c0.0465-0.7461,0.2295-1.4313,0.4737-2.1219
			c0.0952-0.2725,0.1745-0.5563,0.3009-0.8301c0.1401-0.3021,0.4524-0.9419,0.763-1.5035
			C125.251,49.239,125.5827,48.7116,125.4863,48.6562z"/>
		<path class="st0" d="M124.4041,61.2329c0.0156-0.3619,0.0199-0.749,0.037-1.1108c0.0126-0.3007,0.0638-0.5987,0.0764-0.8993
			c0.0426-0.8809,0.0965-1.7732,0.1179-2.6598l-0.4027,0.2383c-0.1493,0.1745-0.8074,0.8411-0.9577,1.0851
			c-0.2835,0.4682-0.5489,0.9661-0.8426,1.4484c-0.2524,0.4101-0.3162,0.7066-0.4453,0.9944
			c-0.1618,0.3632-0.2286,0.6426-0.3759,1.02c-0.0993,0.2496-0.271,0.7617-0.2924,0.9843
			c-0.0271,0.3165-0.0794,1.1279-0.0299,1.5592c0.0158,0.1332,0.0299,0.1575,0.1633,0.224c0.688,0.0255,2.4327,0.0199,2.4327,0.0199
			c0.4241-0.0043,0.4157-0.1263,0.4073-0.5122c-0.0102-0.4553,0.0283-0.8595,0.0482-1.3063
			C124.3543,61.9563,124.387,61.5932,124.4041,61.2329z"/>
		<path class="st0" d="M128.0255,58.288c0.0854-0.1674,0.1462-0.3304,0.2212-0.4539c0.1505-0.2483,0.3802-0.6071,0.6581-0.9746
			c0.274-0.3659,0.5946-0.739,0.8015-1.0044c0.1092-0.1375,0.2414-0.2537,0.1916-0.3914c-0.0454-0.122-0.2255-0.2552-0.4042-0.4226
			c-0.3009-0.2865-0.6581-0.6214-0.8072-0.7844c-0.3207-0.3476-0.5772-0.7931-0.8357-1.1887
			c-0.5204-0.786-1.0623-1.5449-1.3956-2.4641c-0.0186-0.0597-0.0327-0.0696-0.054-0.0666
			c-0.0199,0.0041-0.0284,0.0084-0.0524,0.1276c-0.0482,0.2623-0.0908,0.6923,0.1107,1.2866
			c0.0325,0.0921,0.0283,0.2056,0.0623,0.3177c0.0753,0.2327,0.1973,0.4951,0.308,0.7732c0.2978,0.7431,0.6893,1.573,0.8906,2.0836
			c0.1564,0.4072,0.1659,0.8028-0.0865,1.2795c-0.346,0.6512-0.6865,1.4343-1.068,2.1264
			c-0.2881,0.5193-0.5788,0.9462-0.6244,1.3846c-0.0452,0.4354,0.1533,0.8809,0.4611,1.4298
			c0.0569,0.1006,0.0824,0.2269,0.149,0.3333c0.1135,0.1761,0.2368,0.4427,0.3037,0.6071c0.0452,0.1151,0.1263,0.2398,0.2013,0.3534
			c0.3021,0.4354,0.59,0.8199,0.7786,1.1262c0.078,0.1263,0.1817,0.2498,0.2255,0.3248c0.0156,0.0283-0.0054,0.0283,0.013,0.0283
			c0.2366,0,0.3913-0.319,0.6368-0.6554c0.1304-0.1815,0.4442-0.5433,0.6469-0.8086c0.0668-0.085,0.1079-0.1685,0.0753-0.244
			c-0.1135-0.2723-0.9886-0.2141-1.2384-0.3588c-0.0965-0.0581-0.1888-0.0908-0.2639-0.1475
			c-0.3588-0.2679-0.4935-0.59-0.4228-0.8467c0.0528-0.186,0.4131-0.274,0.4555-0.4654c0.0737-0.3376-0.3973-0.4524-0.3619-1.0881
			C127.6253,59.135,127.8312,58.6782,128.0255,58.288z"/>
		<path class="st0" d="M111.908,33.2791c0.1419,0.0696,0.2568,0.1263,0.4173,0.186c0.2126,0.0807,0.4667,0.1462,0.6709,0.2213
			c0.1307,0.0497,0.2853,0.0709,0.4101,0.0965c0.2906,0.0551,0.5545,0.0753,0.8737,0.0936
			c0.4029,0.0255,1.3816,0.1589,1.4227-0.0158c0.0457-0.1743-0.2963-0.4382-0.3845-0.6339
			c-0.0268-0.0582-0.1573-0.1702-0.2226-0.1916c-0.1291-0.0396-0.3348-0.0283-0.4808-0.0411
			c-0.1321-0.0113-0.2669-0.0298-0.3759-0.0426c-0.2087-0.0227-0.4086-0.0199-0.6086-0.0411
			c-0.1192-0.0143-0.2215-0.0483-0.3391-0.0695c-0.2524-0.0482-0.5175-0.1021-0.7717-0.1802
			c-0.0722-0.0242-0.1672-0.0342-0.2409-0.0638c-0.0597-0.0214-0.1533-0.0554-0.271-0.0993
			c-0.1873-0.0696-0.3973-0.1689-0.4711-0.0426C111.4188,32.6564,111.6799,33.1714,111.908,33.2791z"/>
		<path class="st0" d="M107.6155,26.1369c-0.0539-0.0199-0.1062-0.0426-0.146-0.0709c-0.1789-0.1248-0.2993-0.3917-0.4598-0.566
			c-0.2226-0.2427-0.4821-0.4014-0.6398-0.4695c-0.2509-0.1092-0.5091-0.2439-0.7786-0.3333
			c-0.1192-0.037-0.2383-0.0694-0.3575-0.0952c-0.1375-0.0283-0.2539-0.024-0.3914-0.0424
			c-0.1278-0.0171-0.2439-0.0469-0.3715-0.0526c-0.2029-0.0086-0.4029,0.0327-0.6015,0.0695
			c-0.051,0.0072-0.0965,0.0058-0.1492,0.0155c-0.2509,0.0441-0.4991,0.1036-0.7403,0.1945
			c-0.183,0.0694-0.3744,0.1602-0.4754,0.1689c-0.0722,0.0069-0.2366-0.0143-0.4494-0.0625
			c-0.0895-0.0199-0.1901-0.0553-0.2906-0.0696c-0.2001-0.0268-0.4032-0.0113-0.5933-0.0056
			c-0.2169,0.0084-0.4168,0.01-0.5699,0.0368c-0.4826,0.0852-0.7676,0.2229-1.3012,0.508c-0.0766,0.0424-0.6382,0.529-0.7189,0.5504
			c-0.2442,0.0638-0.5294,0.0169-0.8725,0.1006c-0.1521,0.0383-0.332,0.1207-0.4925,0.1434
			c-0.2593,0.0368-0.5403,0.1743-0.7985,0.3164c-0.1858,0.1034-0.3601,0.2565-0.5502,0.4183
			c-0.0739,0.0625-0.1618,0.1192-0.2385,0.1845c-0.1817,0.159-0.6668,0.7689-0.749,0.8141
			c-0.1644,0.0908-0.6071,0.1518-0.9843,0.2286c-0.1776,0.0354-0.3562,0.1021-0.5249,0.1531
			c-0.0809,0.0255-0.1661,0.024-0.2896,0.0794c-0.0807,0.0526-0.2723,0.1235-0.2581,0.1886
			c0.0084,0.0582,0.0794,0.0967,0.1305,0.139c0.0895,0.0725,0.1973,0.1319,0.2753,0.196c0.1434,0.119,0.2481,0.2666,0.3915,0.2851
			c0.0852,0.0113,0.4127-0.0411,0.6226-0.0852c0.1748-0.034,0.3519-0.0411,0.5392-0.1687c0.0891-0.0582,0.1235-0.2128,0.2197-0.2894
			c0.1562-0.1291,0.247-0.2809,0.3633-0.3973c0.1516-0.1531,0.3218-0.2611,0.4977-0.3489c0.149-0.0766,0.3889-0.1802,0.5917-0.2439
			c0.1317-0.0398,0.2425-0.0385,0.3175-0.0852c0.1151-0.0682,0.2442-0.271,0.4017-0.4213c0.2016-0.1914,0.4256-0.3419,0.5489-0.4228
			c0.5619-0.3757,1.1248-0.6296,1.8838-0.6681c0.2396-0.0128,0.5435,0.0285,0.7775,0.0541c0.1332,0.0141,0.2324,0.034,0.3103,0.0043
			c0.1449-0.0538,0.3419-0.2414,0.5504-0.3435c0.4272-0.2085,0.8883-0.295,1.3649-0.3177c0.2425-0.0115,0.5106,0.0311,0.7459,0.0638
			c0.1804,0.0256,0.3065,0.027,0.481,0.0738c0.3034,0.0822,0.6341,0.1985,0.912,0.3177c0.1575,0.0682,0.2779,0.1761,0.4014,0.2695
			c0.0725,0.0569,0.1378,0.1178,0.2427,0.1319c0.0878,0.0115,0.2057-0.0056,0.3318-0.01c0.3463-0.0127,0.8215-0.0268,1.2486,0.2059
			c0.5729,0.3134,0.956,0.8638,0.9886,0.9774c0.0411,0.1332,0.3744,0.2695,0.688,0.4453c0.2042,0.1135,0.3631,0.2368,0.5078,0.3588
			c0.3917,0.3292,0.4086,0.4966,0.6127,0.7832c0.2993,0.4198,0.4342,0.879,0.6318,1.4193c0.1533,0.4192,0.0382,1.3165,0.0382,1.8994
			c0,0.8018,0.9831,1.1358,0.84,1.0022c-0.1432-0.1336-0.4963-0.8399-0.1623-1.1453c0.3341-0.3054,0.0753-1.4832,0.0753-1.4832
			c-0.1278-0.5349-0.2851-1.1137-0.4057-1.501c-0.0227-0.0666-0.0934-0.2368-0.1176-0.3177
			c-0.098-0.3007-0.2822-0.6681-0.5136-1.0001c-0.2226-0.322-0.4908-0.6114-0.6623-0.7872
			c-0.1278-0.1333-0.8712-0.6567-1.3775-0.8569C107.9929,26.2247,107.7801,26.1936,107.6155,26.1369z"/>
		<path class="st0" d="M115.4743,34.2891c-0.3618-0.0056-0.736,0.003-1.071-0.0324c-0.3234-0.0385-0.8766-0.135-1.3204-0.2213
			c-0.3519-0.0668-0.5675-0.1888-0.7094-0.0839c-0.1901,0.1406,0.5022,0.8442,0.7658,0.9718c0.6244,0.3078,1.315,0.21,1.9407,0.2654
			c0.1659,0.0155,0.8739,0.1021,1.2427,0.0271c0.3062-0.0627,0.1745-0.7564-0.2597-0.884
			C115.8744,34.275,115.6799,34.2921,115.4743,34.2891z"/>
		<path class="st0" d="M108.227,52.3215c0.0967,0.2965,0.183,0.6257,0.3051,0.9845c0.1305,0.3703,0.2198,0.7704,0.3504,1.1534
			c0.1857,0.5405,0.3973,1.0682,0.5076,1.6072c0.1747,0.8694,0.2542,0.8044,0.4001,1.6695
			c0.0015-0.0582,0.2001,0.7208,0.2541,0.9192c0.0608,0.3223,0.1912,0.861,0.2394,1.3377c0.0326,0.2937,0.0155,0.5448-0.0054,0.762
			c-0.0171,0.1871-0.0966,0.3529-0.1406,0.529c-0.1618,0.6398-0.3659,1.0526-0.5007,1.2979
			c-0.1378,0.2468-0.3192,0.4555-0.4583,0.7107c-0.0977,0.1789-0.2128,0.3093-0.3106,0.4951
			c-0.0739,0.139-0.2184,0.4144-0.359,0.6568c-0.1077,0.1802-0.1745,0.305-0.2394,0.3489l3.1263,0.0581
			c-0.0199-0.0424-0.0398-0.085-0.0612-0.1332c-0.0694-0.1605-0.1758-0.4724-0.2042-0.5987
			c-0.061-0.2808-0.1646-0.4951-0.2042-0.6992c-0.0737-0.3889-0.034-0.6838,0.0778-0.9307c0.0485-0.1049,0.1363-0.2014,0.2115-0.322
			c0.0837-0.1362,0.1674-0.2822,0.2766-0.417c0.1092-0.139,0.2511-0.2654,0.3078-0.4312c0.0653-0.183,0.0396-0.5291,0.0143-0.8044
			c-0.0058-0.0666-0.027-0.1404-0.0342-0.21c-0.0538-0.4425-0.139-0.9149-0.2467-1.5036c-0.0666-0.356-0.1021-1.1078-0.1348-1.437
			c-0.0696-0.7263-0.1179-1.4796-0.1761-2.264c-0.0069-0.0852-0.0069-0.3843-0.014-0.4724
			c-0.0922-1.1915-0.0197-1.9802,0.1475-3.335c0.0439-0.3476,0.2128-0.8212,0.2894-1.1065c0.0553-0.207,0.0938-0.4283,0.1773-0.6497
			c0.0327-0.0878,0.0881-0.163,0.1263-0.2595c0.0623-0.1559,0.0723-0.3289,0.1348-0.4866c0.2284-0.5844,0.5163-1.1703,0.7972-1.7149
			c0.1008-0.1957,0.2455-0.9136,0.5703-1.169c0.2182-0.173,0.5561-0.0781,0.7477,0.3164c0.0493,0.1049-0.1153,0.4497-0.2966,0.7901
			c-0.0952,0.1761-0.2046,0.3404-0.2684,0.4951c-0.1728,0.3971-0.4354,0.6611-0.2198,0.7732
			c0.4382,0.0296,0.8383,0.0184,1.2356,0.0069c0.4425-0.0099,0.851-0.0028,1.2624-0.0069c0.8059-0.0043,1.5661-0.0015,2.3832-0.0768
			c0.149-0.014,0.3108-0.0056,0.4652-0.0283c0.4695-0.0681,0.8567-0.1092,1.1861-0.1559c0.6765-0.0965,1.0994-0.1689,1.4566-0.2114
			c0.3207-0.0342,0.5818-0.0739,0.9605-0.0625c0.1263,0.0029,0.3007,0.0881,0.4425,0.2029c0.2128,0.1715,0.3292,0.271,0.4583,0.2412
			c0.2366-0.0539,0.468-0.0993,0.6908-0.1475c0.295-0.0638,0.5816-0.1177,0.834-0.1901c0.2327-0.0696,0.4708-0.095,0.6001-0.1845
			c0.0794-0.0566-0.0326-0.2368-0.1845-0.3659c-0.1105-0.0965-0.2483-0.1546-0.3236-0.1702
			c-0.529-0.0965-0.7702,0.0283-1.0665-0.4652c-0.0584-0.0977-0.125-0.3716,0.2269-0.4639c0.3445-0.0922,0.654-0.051,1.1491,0.112
			c0.6084,0.1988,0.9616,0.6668,1.3191,1.2045c0.1957,0.2991,0.2782,0.6171,0.3731,0.9376c0.1008,0.342,0.2116,0.6837,0.2966,1.0228
			c0.0608,0.244,0.1036,0.4824,0.2113,0.7136c0.1973,0.4185,0.3021,0.827,0.4992,1.1774c0.4016,0.712,1.0455,1.7022,2.0387,2.4613
			c0.5558,0.4226,0.986,0.8766,1.4456,1.3816c0.2453,0.2695,0.4341,0.563,0.6127,0.8595c0.1373,0.2256,0.2228,0.4668,0.2822,0.7406
			c0.0993,0.4496,0.1559,0.9051,0.2044,1.3675c0.0411,0.37,0.1218,0.7405,0.1546,1.1065c0.0212,0.1957,0.1118,0.4739,0.1077,0.6851
			c-0.0199,0.8894,0.1942,1.5418,0.1687,2.2355c-0.0069,0.183-0.2409,0.7293-0.4795,1.1136
			c-0.0524,0.0837-0.0977,0.1845-0.1702,0.2539c-0.1901,0.1843-0.3646,0.2652-0.6127,0.4369
			c-0.1817,0.1276-0.322,0.3447-0.4213,0.4938c-0.0908,0.1319-0.1901,0.2424-0.2906,0.3871
			c-0.0612,0.1533-0.1648,0.2654-0.2611,0.3164l3.3236,0.0625c-0.3333-0.0666-0.2909-0.3064-0.2996-0.5675
			c-0.0054-0.1802-0.011-0.3646-0.021-0.5362c-0.0058-0.0696,0.0072-0.2256,0.0072-0.2965c0-0.1291,0.034-0.4313,0.0847-0.5803
			c0.074-0.2113,0.1378-0.4991,0.2626-0.7107c0.2314-0.4014,0.5165-0.7418,0.5574-1.007c0.0499-0.3476-0.1756-0.9577-0.2976-1.4683
			c-0.0582-0.2425-0.1518-1.2213-0.1704-1.4653c-0.0271-0.4044-0.1176-0.8796-0.1118-1.2838
			c0.0069-0.4055,0.1118-0.7403,0.1702-1.142c0.0069-0.0554,0.0554-0.1843,0.0692-0.2539c0.0286-0.1518,0.0102-0.356-0.0138-0.4795
			c-0.0457-0.2368-0.1947-0.4055-0.3248-0.6071c-0.1279-0.2013-0.2412-0.4326-0.3649-0.6214
			c-0.2409-0.3644-0.3672-0.7873-0.6921-1.4653c-0.1363-0.2865-0.2682-0.5956-0.3958-0.9163
			c-0.1659-0.4256-0.2766-0.8909-0.281-1.3675c-0.0026-0.5403,0.1291-1.1333,0.2965-1.5801
			c0.2085-0.5548,0.7375-1.3803,1.0981-2.2286c0.3404-0.7916,0.5602-1.6286,0.6354-1.8611
			c0.1929-0.5958,0.2386-1.5931,0.1832-2.2966c-0.0329-0.4127-0.098-0.7518-0.1676-1.0879
			c-0.0355-0.1618-0.0184-0.3179-0.1008-0.4951c-0.0426-0.0995-0.0296-0.186-0.0679-0.3095
			c-0.027-0.0837-0.1064-0.1985-0.1431-0.2863c-0.1307-0.3149-0.281-0.6257-0.1689-0.7278c0.2751-0.2554,1.7432-0.5461,2.3916,0.38
			c0.6852,0.9847,0.3815,2.2698,0.1176,3.0303c-0.3419,0.9786-0.7446,2.0412-0.9021,3.0937
			c-0.0697,0.4766-0.0725,0.8553,0.1817,1.3534c0.1944,0.3828,0.441,0.7942,0.4525,1.2653
			c0.0225,0.8127-0.8171,1.1292-0.8031,1.9901c0.0086,0.4867,0.4654,1.2964,1.1434,1.2683
			c0.0524-0.1362-0.0582-0.2455-0.0439-0.3662c0.0439-0.3374-0.0086-0.6439,0.1575-1.0014
			c0.3759-0.8227,0.7602-0.8469,0.9432-0.9733c0.5392-0.3729,1.4711-0.7801,1.5092-1.4808
			c0.0143-0.2667,0.0045-0.5135-0.0722-0.8171c-0.1163-0.4695-0.2596-0.7715-0.3575-0.9944
			c-0.0949-0.2141-0.2425-0.4083-0.2611-0.6993c-0.0112-0.1434,0.037-0.3093,0.071-0.4654
			c0.0484-0.2297,0.1137-0.5035,0.2214-0.7191c0.156-0.3064,0.3958-0.5362,0.8569-1.7021c0.1914-0.4854,0.2565-0.8965,0.285-1.206
			c0.0255-0.2652,0.0069-0.5532,0.0099-0.7929c0.01-0.6127-0.2554-1.2497-0.4851-1.7149c-0.0853-0.1717-0.2072-0.3391-0.4455-0.5505
			c-0.2751-0.2398-0.6781-0.5249-0.8893-0.654c-0.149-0.0936-0.2866-0.1077-0.4313-0.1587
			c-0.6765-0.2398-1.3333-0.2215-2.2316,0.085c-0.3019,0.1021-0.6168,0.2213-0.8993,0.3803
			c-0.4596,0.2595-0.8539,0.5476-1.1646,0.4766c-0.2767-0.0668-0.5574-0.5348-0.7717-0.7209
			c-0.2608-0.2281-0.6298-0.4849-0.9319-0.58c-0.6666-0.2114-0.9462-0.3504-1.6383-0.4455
			c-0.6084-0.0822-1.1688-0.0411-1.7348,0.0117c-0.5135,0.0467-1.0327,0.0947-1.5648,0.1473
			c-0.5122,0.051-1.0271,0.1717-1.5337,0.2327c-0.4055,0.0496-0.7871,0.095-1.1899,0.1404
			c-0.7193,0.0794-1.5832,0.1916-2.3291,0.298c-0.2016,0.0283-0.3519,0.0227-0.542,0.0482
			c-0.4213,0.058-0.7306,0.0439-1.1417,0.0268c-0.1901-0.0056-0.4003-0.037-0.6514-0.0196l-0.0028-0.013
			c-0.2695-0.0283-1.0325-0.1133-1.1305-0.1419c-0.0977-0.0283-0.5647-0.0565-0.705-0.1133l-1.1888-0.2387
			c0.3857-0.2014,0.7516-0.4495,1.027-0.7374c0.7421-0.7717,1.1718-2.0938,0.5336-3.088c-0.0952-0.1533-0.2327-0.2511-0.3846-0.3917
			c-0.2156-0.2013-0.6354-0.4892-0.9289-0.5333c-0.1363-0.0227-0.2682-0.0381-0.3718-0.0113
			c-0.1446,0.0355-0.2383,0.1363-0.2595,0.2539c-0.0128,0.0753-0.0115,0.1731,0.0581,0.2751
			c0.1616,0.237,0.5106,0.3631,0.7957,0.5747c0.1858,0.1417,0.3475,0.3361,0.4057,0.5673c0.0072,0.0271,0.0115,0.071,0.0155,0.1008
			c0.0524,0.2993,0.0013,0.5887-0.0908,0.8567c-0.1503,0.4468-0.4496,0.8313-0.8398,1.0996
			c-0.4126,0.2822-0.6255,0.4014-1.048,0.5405c-0.2041,0.0659-0.3909,0.1273-0.5802,0.1817
			c-2.1159,0.0299-3.4601-2.27-4.5536-3.7778c-0.1814-0.2498-0.5433-0.6952-0.9008-1.1547c-0.2453-0.3179-0.468-0.6512-0.7064-0.898
			c-0.3759-0.3887-0.7421-0.7291-1.0169-0.9093c-0.3832-0.2539-0.7122-0.5206-1.1647-0.7306
			c-0.5379-0.2524-1.1249-0.4979-1.6796-0.6979c-0.4029-0.1447-0.9095-0.2652-1.339-0.3476
			c-0.1888-0.0383-0.4371-0.122-0.6611-0.1702c-0.22-0.0496-0.4198-0.0623-0.5491-0.1205
			c-0.1246-0.0569-0.1955-0.0924-0.2439-0.1561c-0.1218-0.1575-0.0411-0.3461,0.2439-0.3843
			c0.5022-0.0681,1.4298-0.0043,1.6868,0.0482c0.1888,0.0368,0.4127,0.0426,0.5999,0.0766c0.2868,0.0498,0.5305,0.1291,0.8002,0.21
			c0.7148,0.2169,1.4015,0.563,2.054,0.9079c0.1404,0.0764,0.295,0.2182,0.4198,0.2978c0.3731,0.2396,0.6612,0.4667,1.0231,0.8128
			c0.3075,0.295,0.5928,0.6142,0.8748,0.949c0.0499,0.0594,0.2286,0.2978,0.311,0.271c0.0807-0.0258-0.0696-0.3093-0.0854-0.4001
			c-0.1901-0.5122-0.6467-1.4668-1.1418-1.9236c-0.4879-0.4496-0.9503-0.3843-1.0965-0.4737
			c-0.0837-0.0525-0.1248-0.19-0.1506-0.3531c-0.0268-0.1889-0.2056-0.4826-0.5489-0.7109c-0.4339-0.2907-0.9503-0.0467-1.41-0.1346
			c-0.1786-0.0342-0.444-0.2457-0.7546-0.4088c-0.2113-0.1092-0.4029-0.1772-0.6185-0.2425
			c-0.4029-0.1207-1.01-0.1248-1.3974-0.1051c-0.6255,0.0313-1.0085,0.5335-1.3901,0.7349
			c-0.1403,0.0737-0.3077-0.0625-0.5134-0.1179c-0.2384-0.0636-0.5477-0.0579-0.7661-0.0409
			c-0.5405,0.0409-1.0907,0.3147-1.5179,0.6199c-0.4981,0.3532-0.5249,0.6594-0.8255,0.8028
			c-0.0539,0.0255-0.2723,0.0355-0.332,0.0523c-0.4609,0.1322-0.6155,0.2116-1.01,0.5065
			c-0.2297,0.1745-0.3971,0.5277-0.5407,0.7092c-0.0649,0.0837-0.1332,0.1263-0.1799,0.1294
			c-0.0965,0.0097-0.5377,0.014-0.9108,0.0508c-0.2085,0.0214-0.3674,0.0612-0.5048,0.1023
			c-0.2554,0.0725-0.4485,0.1671-0.4498,0.2424c-0.0013,0.1845,0.9903,0.4157,0.7051,0.3404
			c-0.0653-0.0184,0.295,0.0539,0.5433,0.1633c0.095,0.0411,0.2001,0.1135,0.2371,0.1559c0.0709,0.0908,0.0962,0.2057,0.1248,0.3391
			c0.0411,0.1659,0.0722,0.3631,0.0595,0.6127c-0.0286,0.5831-0.2652,1.305-0.3902,1.979
			c-0.0467,0.2439-0.0541,0.4892-0.0636,0.7091c-0.0099,0.1789-0.0283,0.478-0.0199,0.6597
			c0.0452,0.895,0.4849,1.4964,0.6852,2.6073c0.0069,0.0426,0.0493,0.678,0.0949,0.9319c0.0778,0.4114,0.0952,0.8781,0.1062,1.3109
			c0.0074,0.2154-0.095,0.4553-0.095,0.6765c0,0.8143,0.3348,1.3576,0.9307,1.4811c0.1985,0.0395,0.4114,0.1319,0.6794-0.0271
			c0.4157-0.2498,0.4143-0.6257,0.4312-0.9986c0.0059-0.139-0.0141-0.2866,0.0327-0.4129c0.2511-0.7191,0.7306-0.6056,0.8439-0.5604
			c0.2911,0.1149,0.2809,0.3859,0.298,0.5392c0.027,0.2552-0.1177,0.6439-0.1488,0.9092c-0.0528,0.4553,0.095,0.6242,0.4241,0.3589
			c0.1389-0.112,0.0995-0.3556,0.2198-0.5589c0,0,0.2267-1.2051,0.4056-2.3201c0.01-0.0041,0.0199-0.0083,0.0315-0.012
			c0.1672-0.051,0.3502-0.0311,0.5005-0.0327c0.7505-0.0041,1.5222-0.0168,2.2841-0.0523c0.1935-0.0096,0.3846-0.0181,0.5769-0.0272
			l0.2014,0.4874c0.21,0.3279,0.4925,1.1908,0.6443,1.5639c0.3389,0.8385,0.4879,1.7674,0.6992,2.6881
			c0.0454,0.2001,0.0454,0.417,0.0709,0.6229c0.0993,0.7375,0.1391,1.4821,0.2879,2.1903c0.0993,0.475,0.2185,0.7219,0.3802,1.0141
			c0.2894,0.5234,0.8469,1.0156,1.7988,1.9887c0.3305,0.3392,0.4553,0.7959,0.6765,1.2484
			c0.0712,0.1447,0.0796,0.3192,0.1378,0.4751C107.9064,51.5457,108.0823,51.8903,108.227,52.3215z M94.9326,35.3528
			c-0.0002,0.002-0.0006,0.0033-0.0008,0.0053v-0.0432C94.9311,35.3282,94.933,35.3396,94.9326,35.3528
			c0.1181-1.3671,1.7837-0.8023,1.6573,0.1909C96.4617,36.5489,94.8951,36.5716,94.9326,35.3528z M96.3834,41.5406
			c-0.7226-0.1543-0.3564-1.0922,0.2359-0.7249C97.0192,41.0657,96.9877,41.671,96.3834,41.5406z M101.9075,38.1817
			c-0.7199,0.033-1.5475,0.0589-2.2433,0.0201c0.0448-0.3366,0.0732-0.6132,0.0727-0.7706
			c-0.0002-0.0714,0.1946-0.2708,0.2824-0.3675c0.16-0.1802,0.3149-0.39,0.3943-0.5362c0.2723-0.495,0.3333-1.1333,0.3249-1.8042
			c-0.01-0.742-0.1121-1.5193-0.2866-2.1265c-0.0539-0.1888-0.2794-0.4966-0.2794-0.4966c-0.4496-0.4511-0.2381-0.6765,0.186-0.7617
			c0.1772-0.034,0.3885,0.0949,0.563,0.3248c0.3588,0.4795,0.6413,1.169,0.7066,1.7478c0.0835,0.7332,0.0381,0.6837,0.098,1.3956
			c0.0409,0.5093-0.1916,1.1873-0.0285,1.4951c0.1059,0.1999,0.4602,0.7509,0.56,1.1187l0.3071,0.743
			C102.328,38.168,102.1139,38.1726,101.9075,38.1817z"/>
		<path class="st0" d="M104.5458,55.3601c0.1079,0.5902,0.2498,1.3193,0.3519,2.0384c0.0837,0.5859,0.1163,1.169,0.2979,1.6227
			c0.0951,0.2427,0.3179,0.4412,0.4782,0.6341c0.3432,0.4129,0.7204,0.7533,1.0695,1.1392c0.0327,0.0383,0.0766,0.061,0.1051,0.0723
			c0.0311,0.0086,0.0666-0.0227,0.1105-0.0878c0.1404-0.2057,0.3433-0.637,0.5135-1.095c0.0413-0.0893,0.0539-0.139,0.0908-0.223
			c0.1447-0.3246,0.2922-0.6127,0.2368-0.7205c-0.0681-0.1276-0.2937-0.1263-0.5474-0.1276
			c-0.1702-0.0015-0.3717-0.0696-0.5491-0.0852c-0.1958-0.0171-0.4014-0.1319-0.5163-0.2169
			c-0.3588-0.2626-0.3218-0.5902-0.1871-0.8696c0.0396-0.0895,0.2524-0.3519,0.2098-0.5775
			c-0.0653-0.3516-0.2269-0.6638-0.3376-1.0169c-0.0738-0.2284-0.0768-0.4838-0.1136-0.7319
			c-0.0383-0.247-0.112-0.4866-0.0993-0.7334c0.0199-0.3335,0.0441-0.5887,0.2029-0.7844c0.234-0.2853,0.6084-0.3504,0.9817-0.4838
			c0.1659-0.0597,0.4226-0.1419,0.4808-0.2695l0.027-0.1263c-0.0199-0.163-0.0737-0.2725-0.1307-0.4057
			c-0.0439-0.1092-0.0824-0.2425-0.1646-0.3545c-0.1532-0.0158-0.2595,0.0695-0.4098,0.1261
			c-0.2822,0.1036-0.6086,0.2327-0.8738,0.3248c-0.2483,0.0852-0.6413,0.2397-0.959,0.3945
			c-0.2626,0.1261-0.4583,0.2524-0.6369,0.3516c-0.2325,0.1319-0.1477,0.4468-0.0113,0.8753
			C104.2919,54.4295,104.468,54.9319,104.5458,55.3601z"/>
		<path class="st0" d="M102.9926,52.4905c0.2935-0.1335,0.5928-0.2639,0.8993-0.396c0.6824-0.292,1.4327-0.478,2.1038-0.7431
			c0.2156-0.088,0.3717-0.1306,0.4838-0.2141c0.1036-0.0725,0.1901-0.098,0.18-0.2214c-0.0041-0.0707-0.0709-0.1715-0.1246-0.295
			c-0.0398-0.0922-0.0569-0.1972-0.1179-0.2894c-0.1378-0.207-0.3218-0.3177-0.4326-0.4198
			c-0.1985-0.183-0.3746-0.3731-0.5632-0.5489c-0.2411-0.2243-0.4979-0.603-0.6852-0.6684
			c-0.0837-0.0283-0.5491,0.2442-1.0909,0.6556c-0.1873,0.1445-0.407,0.2552-0.6227,0.4042
			c-0.1618,0.1105-0.3207,0.2583-0.4866,0.38c-0.2723,0.2001-0.5517,0.3746-0.8242,0.5803c-0.2284,0.173-0.4936,0.332-0.7191,0.4936
			c-0.0952,0.0711-0.1832,0.1434-0.2539,0.2143c-0.1572,0.1631-0.3093,0.295-0.3817,0.478
			c-0.1473,0.369-0.1049,0.9618,0.0739,1.6385c0.1136,0.4198,0.1376,1.0057,0.2241,1.4809c0.095,0.5361,0.1674,1.0427,0.1575,1.2384
			c-0.0141,0.2794-0.0398,0.7263-0.0625,1.1108c-0.0113,0.1674,0.0071,0.3417-0.0227,0.4538
			c-0.1518,0.5887-0.221,1.2129-0.1177,1.7138c0.1376,0.6283,0.6155,1.4283,1.1335,2.0609c0.1743,0.2455,0.2907,0.4951,0.4325,0.593
			c0.2468-0.2511,0.4453-0.6043,0.7308-1.0044c0.1374-0.1942,0.2297-0.3476,0.3175-0.5063c0.0539-0.0993,0.1235-0.2029,0.149-0.308
			c0.0171-0.0822-0.0909-0.2182-0.2654-0.295c-0.197-0.0906-0.478-0.1204-0.7191-0.2667c-0.4525-0.2708-0.7844-0.6992-0.5716-1.0353
			c0.2427-0.383,0.5446-0.4399,0.6439-0.6144c0.0781-0.1304,0.0056-0.346-0.1246-0.6653c-0.1605-0.3802-0.2143-1.0654-0.1804-1.7319
			c0.0385-0.7745-0.2496-2.0428,0.095-2.7846C102.3743,52.7133,102.7203,52.6153,102.9926,52.4905z"/>
		<path class="st0" d="M94.5466,40.4485c0.0058-0.1192,0.0385-0.5121,0.0285-0.6341c-0.0441-0.7306-0.0569-1.3461-0.1816-1.932
			c-0.0737-0.3417-0.2256-0.6765-0.3389-1.0141c-0.0554-0.1676-0.0584-0.4483-0.2414-0.6073
			c-0.1161-0.1018-0.2736-0.1345-0.3644-0.1689c-0.2455-0.0949-0.3616-0.2394-0.4654-0.5076
			c-0.1019-0.2626,0.0088-0.5448,0.2256-0.7334c0.1436-0.1276,0.3817-0.1717,0.4498-0.2965
			c0.0679-0.1233,0.0426-0.2794,0.0993-0.4936c0.2297-0.8668,0.5785-2.2569,0.3376-2.5393
			c-0.0625-0.075-0.2015-0.1192-0.3674-0.1659c-0.122-0.0342-0.2583-0.0681-0.393-0.1148c-0.3376-0.1179-0.8694-0.4471-1.0726-0.593
			c-0.1542-0.112-0.8962,0.3077-0.7474,0.41c0.0681,0.0439,0.4185,0.0965,0.7632,0.2396c0.4285,0.1758,0.8653,0.4682,0.9434,0.7477
			c0.0921,0.3305-0.122,1.583-0.2256,1.9164c-0.1149,0.3687-0.2157,0.7234-0.2539,1.0723
			c-0.0199,0.1674-0.0526,0.3092-0.0143,0.4922c0.0115,0.0595-0.0184,0.095,0,0.1575c0.112,0.3646,0.3759,0.6808,0.5504,1.0427
			c0.0679,0.136,0.0227,0.3943,0.0567,0.5362c0.1406,0.6199,0.2243,1.1703,0.2243,1.7618c0,0.2455-0.0612,0.519-0.0966,0.8028
			c-0.0283,0.2156-0.0199,0.4356-0.0707,0.6497c-0.1135,0.4668-0.0852,0.6994,0.0411,0.9733
			c0.2881,0.6326,1.0894,0.7447,1.1134,0.4382c0.0441-0.5234-0.4311-0.3292-0.5814-0.5561
			c-0.1237-0.1929-0.2626-0.3333-0.0796-0.6722C93.992,40.4599,94.3452,40.4627,94.5466,40.4485z"/>
		<path class="st0" d="M109.9078,69.0179c0.5974,0.3871,1.2813,0.712,2.0144,0.712c0.5887,0,1.2356-0.268,1.8258-0.7008
			c0.4964-0.3603,0.8184-0.7278,1.3178-1.1164c0.2312-0.1786,0.2256-0.1715,0.5277-0.2001c0.3277-0.0327,0.5617,0.0015,0.922,0.0015
			c0.0184,0,0.1771,0.0028,0.2113-0.024c0.0326-0.0255-0.0156-0.1263-0.0526-0.176c-0.4851-0.6199-1.0042-0.61-1.4681-0.5972
			c-1.5944,0.0411-2.1094,1.3234-3.2386,1.4724c-0.6071,0.0824-1.688-0.1786-2.2454-0.3887
			c-0.4994-0.1858-1.4032-0.6298-1.4627-0.6752c-0.0482-0.034-0.1092,0.0199-0.0411,0.1051
			C108.2866,67.5199,109.3916,68.6787,109.9078,69.0179z"/>
		<path class="st0" d="M117.0772,69.3199c0.2496-0.0171,0.6696-0.6198,0.7533-0.7518c0.051-0.0809,0.0242-0.1179-0.0623-0.1376
			c-0.0865-0.0212-1.1759-0.0924-1.6499,0.0227c-0.2989,0.0723-1.2339,0.6497-1.1205,0.783
			C115.1341,69.3964,116.6673,69.3469,117.0772,69.3199z"/>
		<path class="st0" d="M117.3184,71.1485c1.3986,0.1531,2.4924-1.0909,3.3677-2.0525c0.4695-0.5165,0.8258-0.9194,1.7121-1.2655
			c0.3432-0.1347,0.7066-0.0539,1.0768-0.0638c0.2822-0.0072,0.2325-0.1036-0.1447-0.3703
			c-0.4795-0.3391-0.8783-0.3802-1.3889-0.3843c-0.4295-0.0058-0.8467,0.112-1.1744,0.2126
			c-0.5745,0.1717-1.0966,0.5548-1.5518,0.9945c-0.4695,0.454-0.8115,1.0682-1.2895,1.5079
			c-0.281,0.2526-0.3506,0.3887-0.986,0.3646c-0.3007-0.0099-0.9787-0.0171-1.0271,0.0411c-0.0496,0.0595,0.037,0.1901,0.037,0.1901
			C116.314,70.7483,116.6829,71.0788,117.3184,71.1485z"/>
		<path class="st0" d="M123.2493,69.4163c0.0909,0.0015,0.3333,0.0255,0.4726-0.0779c0.1332-0.0993,0.7686-0.5731,0.7531-0.7122
			c-0.0072-0.0623-0.3731-0.0654-0.8156-0.0737c-0.2894-0.0043-0.6486-0.0439-0.8911,0.0099
			c-0.6411,0.1419-0.9646,0.6525-0.9787,0.6794c-0.0313,0.0584-0.024,0.0755,0.0156,0.1107
			C121.845,69.3895,122.8975,69.4092,123.2493,69.4163z"/>
		<path class="st0" d="M130.4428,68.6731c-0.0554-0.0311-0.3348-0.0283-0.6469-0.0354c-0.2384-0.0043-0.4994-0.0283-0.6709,0.0155
			c-0.3264,0.0822-0.8329,0.7051-0.861,0.7832c-0.0257,0.0766-0.0625,0.1204,0.0709,0.1531
			c0.1348,0.037,1.0001,0.0582,1.5092,0.0653c0.2978,0.0028,0.5887,0.0623,0.6411-0.0709c0.0625-0.1561,0.0569-0.3463,0.0569-0.5078
			C130.542,68.8816,130.5336,68.7255,130.4428,68.6731z"/>
		<path class="st0" d="M135.2742,68.032c0.4312-0.1335,1.4101-0.149,1.2825-0.3236c-0.1559-0.2141-0.5915-0.3588-1.1406-0.4155
			c-0.319-0.0342-0.5604-0.0426-0.9034-0.0158c-0.664,0.0569-1.3874,0.2682-2.0726,0.2697c-0.6781,0-1.3191-0.2343-1.9904-0.3958
			c-0.8139-0.196-1.6398-0.2838-2.4682-0.0199c-1.1348,0.3575-1.8425,1.0072-2.6723,1.8499
			c-0.3802,0.3845-0.7406,0.8766-1.2256,1.0682c-0.5178,0.2042-1.5434,0.0623-1.7888,0.085
			c-0.0623,0.0056-0.2126,0.0283-0.2126,0.0283c-0.2256,0.183,0.7688,0.9307,1.3035,1.0072
			c0.4116,0.0597,1.3405,0.0751,1.9106-0.2184c1.1889-0.6086,1.8116-1.671,2.8045-2.5932c0.4682-0.4397,0.9179-0.7064,1.7847-0.6298
			c0.8098,0.0725,1.5021,0.4157,2.2015,0.6923c0.5645,0.2213,1.044,0.444,1.7235,0.5461c0.1077,0.0158,0.2113,0.0512,0.3292,0.0666
			c0.3092,0.0426,1.4171,0.1761,2.0568-0.0921c0.1021-0.0411,0.295-0.1646,0.2979-0.2539c0.0071-0.183-1.4084-0.0184-1.3477-0.4568
			C135.158,68.1596,135.1805,68.0618,135.2742,68.032z"/>
		<path class="st0" d="M137.3406,68.0555c-0.283,0.039-0.5183,0.0602-0.5876,0.1171c-0.0694,0.0694-0.006,0.1268,0.045,0.136
			c0.0634,0.0092,0.3198,0.0574,0.5936,0.1144c0.4461,0.0905,0.9529,0.2109,0.8982-0.2169
			C138.2535,67.8957,137.7508,68.0014,137.3406,68.0555z"/>
		<path class="st0" d="M147.7744,54.4806c0.0695,0.4256,0.1802,0.5844,0.4836,0.6568c0.0867,0.0212,0.2485,0,0.4215-0.0155
			c0.1899-0.0199,0.3958-0.034,0.5305-0.0993c0.1999-0.0937-0.3248-1.0753-0.8173-1.8202c-0.3488-0.5247-0.6581-0.9205-0.776-0.8538
			c-0.0735,0.0411-0.0424,0.2455-0.0309,0.4966c0.0155,0.3205,0.0778,0.7319,0.1263,1.0894
			C147.7376,54.1458,147.7504,54.3415,147.7744,54.4806z"/>
		<path class="st0" d="M143.6478,53.9302c0.0171,0.1603,0.0199,0.5264,0.0484,0.8398c0.0212,0.2425,0.112,0.305,0.3149,0.3037
			c0.231-0.003,0.2595-0.0653,0.2965-0.3037c0.0538-0.3376,0.0608-0.8625,0.0993-1.2157c0.0296-0.3063,0.0454-0.7291,0.0893-1.132
			c0.0325-0.2751,0.1008-0.5389,0.1108-0.7461c0.0069-0.2256,0.0171-0.3672-0.0454-0.4042
			c-0.159-0.0936-1.1363-0.0949-1.1677,0.1064c-0.0225,0.1276,0.0329,0.3504,0.0638,0.5844
			c0.0327,0.2582,0.0457,0.5262,0.0709,0.6979C143.5896,53.0947,143.6026,53.5076,143.6478,53.9302z"/>
		<path class="st0" d="M142.3087,56.6113c-0.0722-0.0582-0.2353-0.061-0.39-0.0709c-0.1548-0.01-0.305-0.0271-0.3973-0.0314
			c-0.3619-0.0168-0.6638-0.0523-0.9945-0.0934c-0.1105-0.0127-0.2297,0.0128-0.3474-0.0214
			c-0.2271-0.0651-0.5606-0.0893-0.823-0.1133c-0.2113-0.0212-0.3999-0.0766-0.5305,0.0326
			c-0.0495,0.0396-0.0439,0.1516-0.0594,0.1886c-0.0541,0.1235-0.0682,0.3093-0.0725,0.542
			c-0.0043,0.3859,0.0541,0.7431,0.1248,0.7745c0.0895,0.0411,0.5293-0.0881,0.8087-0.1618
			c0.3077-0.0822,0.6056-0.0893,0.8993-0.1304c0.1531-0.0227,0.3746-0.0354,0.6043-0.0653c0.1506-0.0186,0.2965-0.051,0.4525-0.0638
			c0.3733-0.0342,0.7392-0.0469,0.7688-0.0923c0.0612-0.0993,0.0582-0.322,0.0398-0.4668
			C142.3769,56.7503,142.3827,56.671,142.3087,56.6113z"/>
		<path class="st0" d="M142.7484,54.2267c-0.0296-0.3149-0.0312-0.6497-0.0595-0.9802c-0.0538-0.6101-0.1531-1.2172-0.3363-1.7335
			l-0.0283-0.037c-0.1348-0.234-0.8952,0.0852-1.1035,0.2753c-0.0753,0.0681-0.0653,0.3149-0.0554,0.5915
			c0.0072,0.1447,0,0.305,0.0112,0.4382c0.0809,0.8696,0.0597,2.5465,0.2169,2.6499c0.0837,0.0569,0.3603,0.0484,0.6696,0.0426
			c0.2598-0.0041,0.5535,0.0113,0.6627-0.1036C142.8549,55.2355,142.7785,54.5672,142.7484,54.2267z"/>
		<path class="st0" d="M144.0918,57.6015c1.0697-0.1845,0.8666-1.8187-0.2057-1.7562
			C142.5926,55.9247,142.8337,57.8184,144.0918,57.6015z M144.0962,56.2751c0.519,0.234,0.3149,1.1049-0.3333,0.9149
			C143.0931,56.9944,143.411,55.9658,144.0962,56.2751z"/>
		<path class="st0" d="M143.6579,62.6954c0.1133,0.0043,0.244,0.014,0.4111,0.0199c0.2187,0.0084,0.4456-0.0028,0.6201-0.0143
			c0.0893-0.0069,0.1774,0.0015,0.2141-0.0227c0.0924-0.061,0.0554-0.3417-0.0253-0.6609
			c-0.0584-0.2228-0.0753-0.4724-0.0995-0.6426c-0.0722-0.5277-0.1575-1.0215-0.1985-1.6059
			c-0.0214-0.2667-0.0538-0.7035-0.1192-1.0016c-0.0485-0.1445-0.0355-0.2652-0.2299-0.2608c0,0-0.5928-0.0156-0.6339,0.0707
			c-0.0783,0.1817-0.0538,1.6414-0.0794,1.9351c-0.0229,0.2425-0.037,0.4014-0.0654,0.7051
			c-0.061,0.6568-0.1802,1.3106-0.1633,1.3645C143.3274,62.6812,143.455,62.6883,143.6579,62.6954z"/>
		<path class="st0" d="M145.9986,55.4196c0.1546-0.0184,0.3545-0.0043,0.4764-0.0227c0.1406-0.0212,0.1916-0.0794,0.1916-0.1674
			c0-0.3859-0.0454-0.7035-0.0554-0.9432c-0.0285-0.6696-0.0441-1.4043-0.0653-1.9292c-0.0084-0.1817,0.0085-0.5943-0.0709-0.8171
			c-0.0299-0.0837-0.0993-0.1151-0.1618-0.1518c-0.1034-0.0597-0.2269-0.0965-0.3899-0.1135
			c-0.1335-0.0128-0.1929,0.1888-0.2453,0.4129c-0.0344,0.1447-0.0809,0.2965-0.0967,0.4213
			c-0.0224,0.1802-0.0694,0.3716-0.1036,0.5362c-0.0694,0.3447-0.1204,0.6709-0.1516,1.0455
			c-0.0186,0.2284-0.0852,0.5747-0.0924,0.7518c-0.01,0.3391-0.0666,0.8653,0.0539,0.9546
			C145.3471,55.4411,145.6678,55.4564,145.9986,55.4196z"/>
		<path class="st0" d="M145.6635,57.2396c0.0612,0.0441,0.481,0.0469,0.9138,0.0653c0.2723,0.01,0.5389,0.0383,0.7531,0.0483
			c0.346,0.0143,0.6852,0.027,1.0044,0.0709c0.1531,0.0199,0.4512,0.051,0.7076,0.075c0.1875,0.0173,0.3578,0.0385,0.4486,0.0043
			c0.1261-0.0439,0.1687-0.3461,0.1348-0.6979c-0.0455-0.39-0.0255-0.6339-0.247-0.6495c-0.0908-0.0072-0.4313,0.0822-0.8128,0.146
			c-0.5122,0.085-1.0767,0.1248-1.3336,0.1659c-0.1047,0.0171-0.2978,0.0271-0.4977,0.0512
			c-0.1815,0.0212-0.369,0.0567-0.5461,0.0695c-0.335,0.024-0.5803,0.0383-0.5916,0.1802
			C145.5787,57.0283,145.5631,57.1658,145.6635,57.2396z"/>
		<path class="st0" d="M150.4796,35.8893c-0.3971-0.3674-0.752-0.7931-1.1718-1.1435c-0.5573-0.4637-0.9192-0.8311-1.3446-1.1956
			c-0.1605-0.1363-0.3093-0.3037-0.4881-0.4384c-0.2126-0.1618-0.4581-0.2993-0.7262-0.4795c0,0-0.2979-0.3588-0.8597-0.21
			c-0.0709,0.0171-0.1628,0.0127-0.2425,0.0227c-0.4269,0.0653-0.9832,0.0753-1.6299,0.1107c-0.2836,0.0141-0.5377,0-0.7957-0.0155
			c-0.4029-0.0242-0.8043,0.0084-1.2343,0.122c-0.614,0.1618-0.8794,0.5135-0.8651,1.0511
			c0.0026,0.0949-0.0143,0.2056,0.0084,0.3133c0.1276,0.5818,0.3943,1.2369,0.7033,1.7363
			c0.1704,0.2751,0.4315,0.6923,0.6583,0.9477c0.0625,0.0695,0.1901,0.0424,0.2044,0.0623c0.1092,0.1802,0.281,0.2213,0.6453,0.1916
			c0.1376-0.0115,0.417-0.1378,0.6283-0.1051c0.3149,0.0469,0.3932,0.3703,0.5135,0.5293c0.1263,0.1702,0.2286,0.2085,0.3164,0.3006
			c0.0454,0.0454,0.2299,0.1135,0.4313,0.1406c0.1985,0.0283,0.4157,0.0154,0.5775,0c0.4483-0.0428,0.5956-0.2738,0.7845-0.1733
			c0.0906,0.0513,0.1488,0.1702,0.2439,0.2753c0.0936,0.1077,0.224,0.2013,0.2963,0.258c0.4157,0.3292,0.8612,0.3363,1.4002,0.3846
			c0.4881,0.0411,1.1577-0.0482,1.613-0.1263c0.3261-0.0567,0.4141-0.0495,0.726-0.1419c0.3123-0.0893,0.6214-0.2141,0.8214-0.3672
			c0.1092-0.0824,0.1988-0.1477,0.2128-0.2654c0.0143-0.1462-0.085-0.3291-0.2682-0.5417
			C151.2584,36.6908,150.9078,36.281,150.4796,35.8893z"/>
		<path class="st0" d="M144.7161,39.7421c1.0993,0.4014,2.0683,0.3547,2.2995,0.3376c0.0653-0.0041,0.1957-0.0155,0.3928-0.0299
			c0.0752-0.0071,0.1802-0.0013,0.2682-0.0171c0.4611-0.0794,1.0697-0.173,1.108-0.2054c0.0551-0.0541,0.1263-0.2016,0.0084-0.2498
			c-0.0313-0.0127-0.1107-0.0454-0.2269-0.0567c-0.1222-0.013-0.284-0.003-0.4343-0.0227c-0.2509-0.0311-0.5005-0.0852-0.6451-0.122
			c-0.3294-0.0865-0.5334-0.1633-0.8002-0.3065c-0.1319-0.0709-0.2511-0.1942-0.4427-0.2001
			c-0.1531-0.0043-0.39,0.0283-0.6382,0.037c-0.3433,0.0127-0.7135-0.01-0.9434-0.1378c-0.1417-0.0794-0.3376-0.2098-0.5178-0.3545
			c-0.1133-0.0908-0.207-0.1929-0.316-0.2695c-0.0883-0.0597-0.2299-0.0271-0.3292,0c-0.1135,0.0311-0.2398,0.0212-0.2796,0.1163
			C143.1456,38.4371,143.9528,39.4086,144.7161,39.7421z"/>
		<path class="st0" d="M146.7885,25.385l-0.3489,0.0796c-0.1051,0.0097-0.2638,0-0.3333,0.0722
			c-0.1278,0.0965-0.0612,0.3986-0.1278,0.6354c-0.1447,0.5193-0.2639,1.1988-0.4639,1.6868
			c-0.1332,0.3248-0.2481,0.6581-0.3973,0.9745c-0.1557,0.3292-0.258,0.5106-0.3529,0.6977
			c-0.1759,0.3322-0.3774,0.7819-0.5887,1.1037c-0.0467,0.0738-0.1021,0.1774-0.1477,0.2695
			c-0.0638,0.1278-0.0963,0.2455,0.0485,0.3136c0.0808,0.0383,0.2113,0.0936,0.4282,0.0893
			c0.3223-0.0041,0.5065-0.0822,0.6711-0.0893c0.4326-0.0212,0.4242-0.1432,0.4823-0.3802
			c0.0227-0.1021,0.1674-0.3815,0.2143-0.5147c0.0554-0.1462,0.1402-0.3136,0.2182-0.444c0.1136-0.1914,0.1986-0.4157,0.3009-0.613
			c0.2978-0.5716,0.5489-1.166,0.8-1.7717c0.136-0.3305,0.3348-0.9462,0.3588-1.4709c0.0214-0.4754-0.0212-1.047-0.5346-0.7548
			C146.9732,25.2913,146.8892,25.31,146.7885,25.385z"/>
		<path class="st0" d="M143.5416,15.0822c-0.3631-0.2838-0.715,0.0255-0.888-0.0411c-0.1151-0.0441-0.2524-0.1958-0.3491-0.329
			c-0.136-0.1888-0.3573-0.2171-0.529-0.2115c-0.3264,0.0115-0.4256,0.2042-0.7306,0.234
			c-0.3277,0.0311-0.2524-0.2552-0.8781-0.1587c-0.3887,0.0595-0.7008,0.5076-0.983,0.6028
			c-0.1901,0.0625-0.6752-0.1503-1.0356,0.3588c-0.2483,0.3491-0.1888,0.7349,0.0937,0.8456
			c0.1531,0.0582,0.5703-0.1235,0.9745-0.1263c0.2141-0.0015,0.4014,0.112,0.5816,0.1901c0.1235,0.0525,0.3177,0.1475,0.4129,0.2013
			c0.2083,0.1248,0.614,0.393,0.8439,0.6553c0.2141,0.2427,0.308,0.4384,0.4142,0.4455c0.2327,0.0099,0.298-0.3787,0.518-0.6992
			c0.2708-0.3932,0.6339-0.7407,1.0157-0.4966c0.6765,0.431,1.2948,1.363,1.7871,1.9675c0.3348,0.4085,0.6839,0.8781,0.9733,1.342
			c0.1319,0.2113,0.3958,0.5645,0.593,0.8467c0.2057,0.3009,0.4297,0.495,0.739,0.2212c0.2072-0.1815,0.0977-0.4624,0.224-0.6341
			c0.0739-0.1021,0.2978-0.0822,0.3674-0.1575c0.3234-0.3575,0.1161-0.4566,0.0638-0.8467
			c-0.0383-0.2993,0.2595-0.3562,0.2439-0.6979c-0.0227-0.4994-0.444-0.5505-0.5193-0.7306
			c-0.0722-0.1802,0.1051-0.3221,0.159-0.4979c0.0724-0.2241,0.0469-0.478-0.1787-0.7604c-0.2187-0.2695-0.5108-0.268-0.7107-0.2226
			c-0.163,0.0383-0.2228,0.1021-0.3886,0.0327c-0.0612-0.0257-0.139-0.1406-0.2425-0.2016c-0.1633-0.0921-0.42-0.1646-0.596-0.1687
			c-0.1601-0.0043-0.3078,0.0281-0.427,0.0921c-0.0694,0.037-0.1079,0.088-0.1886,0.1036
			c-0.0156,0.0028-0.0342,0.0013-0.0498,0.0028c-0.1888,0.0255-0.1518-0.0837-0.4864-0.1036
			c-0.2271-0.0141-0.5081,0.159-0.6242-0.1801C143.7373,15.6836,143.9741,15.4198,143.5416,15.0822z"/>
		<path class="st0" d="M138.4647,18.9747c-0.0469,0.0822-0.125,0.1319-0.2003,0.2312c-0.0679,0.0893-0.1304,0.2057-0.1799,0.2978
			c-0.0895,0.1618-0.1304,0.2922-0.0227,0.3703c0.1064,0.074,0.319-0.0595,0.4866,0.159c0.0469,0.0595,0.1034,0.2028,0.1473,0.295
			c0.0299,0.0569,0.0497,0.0582,0.0638,0.1163c0.0314,0.1077,0.0085,0.2044,0.0342,0.2866c0.0342,0.122,0.0906,0.1575,0.1049,0.1687
			c0.1378,0.1164,0.691,0.0043,1.0044-0.0622c0.2368-0.0513,0.4483-0.1376,0.5504-0.2966c0.0695-0.1077,0.0539-0.2552,0.1475-0.3703
			c0.1618-0.2001,0.244-0.5078,0.1092-0.7107c-0.224-0.3361-0.679-0.2817-0.9543-0.2292c-0.1077,0.0197-0.2284-0.0214-0.3687-0.0428
			c-0.1715-0.0253-0.3324,0.0555-0.3964-0.0637c-0.1447-0.2695,0.0988-0.5518,0.2109-0.5944
			c0.2243-0.085,0.4086-0.0199,0.593,0.0327c0.3049,0.0837,0.4616,0.0962,0.446-0.2741c-0.0115-0.2868-0.2965-0.7732-0.6227-0.9107
			c-0.3447-0.1432-0.5915-0.2327-0.6782-0.1164c-0.1062,0.149-0.1687,0.4014-0.136,0.6255c0.0312,0.2115,0.0084,0.457-0.0441,0.5703
			C138.6857,18.6131,138.5453,18.83,138.4647,18.9747z"/>
		<path class="st0" d="M123.2337,4.3339c-0.0679,0.0796-0.1477,0.1207-0.0283,0.2667c0.1192,0.1447,0.3716,0.383,0.5701,0.5943
			c0.1987,0.2128,0.2441,0.1122,0.3067,0.0539c1.4566-1.3518,4.1194-2.8354,4.5974-2.9944c0.1531-0.0526,0.6482-0.2383,0.993-0.383
			c0.6114-0.261,2.105-0.5716,2.1986-0.5831c0.0922-0.014,0.2381-0.0283,0.1715-0.1077c-0.0651-0.0781-1.2581-0.5418-1.8412-0.4624
			c-0.2624,0.0355-1.1121-0.027-2.3577,0.4624c-0.6594,0.2595-2.6498,1.3788-3.088,1.749
			C124.4466,3.192,123.299,4.2546,123.2337,4.3339z"/>
		<path class="st0" d="M117.168,0.3436c0.359,0.0454,0.9008,0.21,1.4173,0.4497c0.8495,0.3958,1.6794,0.9348,1.8822,1.0567
			c0.3248,0.1988,1.7421,1.5278,1.9307,1.7493c0.1988,0.2325,0.332-0.0158,0.332-0.0158c0.0084-0.0071,0.1304-0.1205,0.2723-0.2453
			c0.2297-0.2044,0.5078-0.4682,0.4113-0.5563c-0.0439-0.0424-0.0908-0.1246-0.1687-0.2098
			c-0.1376-0.1462-0.3123-0.3545-0.552-0.5703c-0.197-0.1759-0.4425-0.3489-0.7035-0.5319
			c-0.0937-0.0653-0.1731-0.1605-0.2667-0.2355c-0.4384-0.3419-0.9179-0.7206-1.5931-0.9192
			c-2.0042-0.593-2.7662-0.1702-2.9065-0.1561C117.0802,0.1721,116.8419,0.2995,117.168,0.3436z"/>
		<path class="st0" d="M115.3296,16.1248c0.3887-0.2297,0.1122-0.6482-0.1603-0.6382l0.01-0.0058l-0.0158,0.0058
			c-0.0524,0.0028-0.1047,0.0212-0.1516,0.061l0.0212-0.0084C114.6077,15.7701,114.9422,16.3504,115.3296,16.1248z"/>
		<path class="st0" d="M118.0844,16.0709c0.6497,0.0056,0.5703-0.7673,0.0837-0.7773l-0.0383,0.0099
			c-0.1263,0.0327-0.2779,0.0694-0.3476,0.3404C117.7185,15.8908,117.8618,16.0695,118.0844,16.0709z"/>
		<path class="st0" d="M118.5341,13.7502c0.1587-0.1957-0.0054-0.5504-0.2554-0.5504h-0.0154
			c-0.2003,0.0056-0.4654,0.193-0.359,0.4979C117.9681,13.8765,118.3866,13.9303,118.5341,13.7502z"/>
		<path class="st0" d="M117.4233,16.5901l-0.0523,0.01c-0.4925,0.0794-0.322,0.8099,0.1687,0.6666
			C117.9454,17.149,117.8518,16.5263,117.4233,16.5901z"/>
		<path class="st0" d="M117.3439,14.2212l-0.037,0.0113c-0.221,0.0298-0.3119,0.3264-0.2297,0.5379
			c0.0725,0.1799,0.2807,0.2935,0.5163,0.1927C118.1582,14.7234,117.7624,14.0778,117.3439,14.2212z"/>
		<path class="st0" d="M116.8588,13.1048c-0.4566-0.0385-0.5632,0.6367-0.095,0.7191l0.0156,0.0043
			c0.1973,0.0169,0.4057-0.1363,0.3958-0.3858C117.1653,13.224,117.053,13.1204,116.8588,13.1048z"/>
		<path class="st0" d="M116.5297,16.3192c0.5474,0.0837,0.6242-0.7291,0.1348-0.7717h-0.0127
			C116.1681,15.4866,116.0048,16.2412,116.5297,16.3192z"/>
		<path class="st0" d="M116.0843,14.2907c-0.3134-0.0753-0.5234,0.0809-0.5573,0.393c-0.0115,0.1049,0.0268,0.2213,0.0977,0.2965
			c0.0595,0.061,0.1832,0.1192,0.3588,0.1192l0.0171-0.0058c0.2738-0.034,0.4455-0.3603,0.3363-0.5928
			C116.2958,14.4155,116.2246,14.3218,116.0843,14.2907z"/>
		<path class="st0" d="M115.8304,17.4795c0.5191-0.0242,0.5971-0.712,0.0908-0.7831l-0.0326-0.0054
			c-0.2595,0.024-0.396,0.0949-0.417,0.38C115.4545,17.3037,115.5907,17.4882,115.8304,17.4795z"/>
		<path class="st0" d="M119.147,14.3516h-0.037c-0.2213,0.0115-0.3958,0.1758-0.3818,0.366
			c0.0173,0.2271,0.2087,0.3703,0.481,0.3236C119.4662,14.9602,119.5895,14.4141,119.147,14.3516z"/>
		<path class="st0" d="M119.6746,13.5629c0.1092-0.0383,0.2171-0.1036,0.3618-0.1687c0.3065-0.1378,0.4894-0.2327,0.8582-0.3391
			c0.1518-0.0439,0.2922-0.1375,0.2511-0.3034c-0.0668-0.271-0.3222-0.1434-0.484-0.0908
			c-0.1003,0.0311-0.1927,0.0722-0.3034,0.1161c-0.2169,0.0852-0.4596,0.1817-0.6143,0.2682
			c-0.0878,0.0482-0.2652,0.1462-0.3134,0.1845c-0.1403,0.1079-0.0495,0.3419,0.2284,0.3419L119.6746,13.5629z"/>
		<path class="st0" d="M128.5505,16.4298c0.4795,0.0582,0.6822-0.6099,0.21-0.7589l-0.0354-0.0071
			C128.2257,15.5589,128.0894,16.3757,128.5505,16.4298z"/>
		<path class="st0" d="M128.993,13.6765l-0.0354-0.0212c-0.3746-0.3958-0.8299,0.1914-0.5433,0.5219
			C128.8001,14.6199,129.2384,14.0708,128.993,13.6765z"/>
		<path class="st0" d="M129.254,17.6866c0.5829,0.0398,0.4086-0.6837,0.037-0.7689l-0.0114-0.0028
			C128.7674,16.8866,128.8567,17.6596,129.254,17.6866z"/>
		<path class="st0" d="M129.6057,14.5913L129.549,14.6c-0.5221,0.0355-0.4099,0.8242,0.0781,0.7334
			C130.0895,15.2469,129.9435,14.5645,129.6057,14.5913z"/>
		<path class="st0" d="M130.2767,16.7363c0.356-0.1929,0.0794-0.7505-0.3049-0.7405l-0.0554,0.0128
			C129.4228,16.1787,129.8171,16.9831,130.2767,16.7363z"/>
		<path class="st0" d="M130.5847,13.9303c-0.037-0.1801-0.1816-0.3516-0.4427-0.2766c-0.2156,0.064-0.2481,0.2483-0.1985,0.4384
			l0.0227,0.0339C130.0766,14.4864,130.671,14.3333,130.5847,13.9303z"/>
		<path class="st0" d="M130.6584,18.0228c0.2184,0.0255,0.3887-0.1248,0.3887-0.3432c0-0.1929-0.0894-0.3363-0.3009-0.3859
			l-0.0355,0.0072C130.2371,17.2512,130.1802,17.969,130.6584,18.0228z"/>
		<path class="st0" d="M131.3023,15.2269c-0.0056-0.2567-0.1602-0.3659-0.3504-0.4086l-0.0709-0.0069
			c-0.5149,0.0268-0.4086,0.8327,0.0255,0.8028C131.1151,15.6,131.3123,15.4565,131.3023,15.2269z"/>
		<path class="st0" d="M131.5307,16.9604c0.593-0.037,0.4568-0.8582-0.0355-0.7745l-0.0283,0.014
			c-0.207,0.0143-0.3914,0.1533-0.3772,0.4044C131.0996,16.8213,131.3206,16.9744,131.5307,16.9604z"/>
		<path class="st0" d="M127.9418,15.3291c0.4256-0.0411,0.4412-0.7234-0.0354-0.6839
			C127.5531,14.6922,127.4723,15.3743,127.9418,15.3291z"/>
		<path class="st0" d="M127.6596,13.0495c-0.2894-0.1462-0.6298-0.3052-0.9618-0.3575c-0.2325-0.037-0.3917-0.0809-0.6257-0.0809
			l-0.0496,0.0071c-0.2001,0.0582-0.2169,0.2184-0.1419,0.3164c0.0922,0.1177,0.2667,0.1432,0.5517,0.1503
			c0.359,0.0056,0.539,0.1404,0.8753,0.2879c0.1447,0.0653,0.3194,0.1587,0.4284,0.0071
			C127.8837,13.1743,127.8142,13.1261,127.6596,13.0495z"/>
		<path class="st0" d="M136.4658,21.7068c-0.3035,0.0824-0.7122,0.2624-1.1149,0.4795c-0.6102,0.2751-1.0001,0.4581-1.0228,0.5645
			c-0.0141,0.0781,0.0467,0.1447,0.2001,0.2115c0.6696,0.2894,1.3602,0.7985,1.9476,1.4426c0.7447,0.8212,1.356,1.8371,1.894,2.6981
			c0.2894,0.4624,0.5275,0.9036,0.7345,1.2484c0.3123,0.5149,0.5321,0.8311,0.552,0.8567c0.0837,0.0995,0.1786,0.2269,0.2539,0.2455
			c0.2626,0.0666,0.2468-0.1348,0.1163-0.4427c-0.0155-0.0383-0.0114-0.1121-0.0214-0.1531
			c-0.1687-0.7972,0.0158-1.0442,0.0554-1.1703c0.024-0.0638,0.0977-0.332,0.1562-0.4285c0.1347-0.2198,0.332-0.3971,0.529-0.5887
			c0.3447-0.3318,0.7291-0.6554,1.0825-0.9588c0.1332-0.1135,0.2509-0.2468,0.3715-0.359c0.1332-0.1263,0.2725-0.2113,0.3999-0.3389
			c0.0923-0.0895,0.1776-0.21,0.2682-0.3179c0.0921-0.1049,0.1916-0.1971,0.2937-0.305c0.1432-0.1546,0.4157-0.4283,0.4425-0.5816
			c0.037-0.1958-0.0723-0.4553-0.1787-0.6921c-0.078-0.1774-0.1516-0.308-0.2184-0.43c-0.0709-0.1261-0.0498-0.2325-0.2355-0.2425
			c-0.1504-0.0084-0.6753,0.278-1.3548-0.1605c-0.027-0.0168-0.2312-0.2197-0.3105-0.3871
			c-0.0865-0.1886-0.1447-0.4157-0.257-0.4624c-0.1034-0.0426-0.2098-0.0184-0.3389,0.0056
			c-0.1206,0.0199-0.2624,0.0383-0.4014,0.0753c-0.2879,0.0794-0.6086,0.1488-0.8781,0.2026
			c-0.258,0.0512-0.4966,0.0072-0.7077,0.0102c-0.2498,0.0013-0.4682-0.0725-0.6851-0.098
			C137.5524,21.572,136.9993,21.5636,136.4658,21.7068z"/>
		<path class="st0" d="M141.1158,28.8303c0.0054,0.0004,0.0108,0.0006,0.0162,0.0006c0.1675,0,0.2763-0.196,0.4874-0.7238
			c0.3406-0.8675,0.3108-0.9991,0.2315-1.0903c-0.0439-0.0507-0.1113-0.0712-0.1826-0.054
			c-0.1277,0.0333-0.4372,0.3561-0.498,0.4205l-0.009,0.0095c-0.1228,0.1299-0.2498,0.2644-0.3154,0.4459
			c-0.0595,0.1551-0.0371,0.3222-0.0168,0.474C140.8982,28.8143,141.0613,28.8268,141.1158,28.8303z"/>
		<path class="st0" d="M136.6829,26.4106c-0.1049-0.0255-0.322,0.0342-0.5405,0.0496c-0.2481,0.0158-0.4935,0-0.5435,0.0908
			c-0.0551,0.1066,0.2115,1.8881,0.5974,2.3847c0.183,0.2284,0.4767,0.4412,0.8355,0.5346c0.2583,0.0682,0.566,0.0725,0.8171,0.0768
			c0.3886,0.0097,0.6739-0.01,0.7178-0.0413c0.1092-0.0766-0.5729-1.1348-0.8597-1.685
			C137.5212,27.4661,136.9139,26.4617,136.6829,26.4106z"/>
		<path class="st0" d="M134.6274,24.026c-0.2199-0.1105-0.41-0.1702-0.607-0.2425c-0.2583-0.0924-0.515-0.1901-0.7972-0.1929
			c-0.1676-0.0028-0.3861,0.0651-0.5846,0.0936c-0.5418,0.0781-1.0823,0.1417-1.5957,0.119
			c-0.4326-0.0182-0.8383-0.1149-1.2711-0.1445c-0.495-0.0342-0.986-0.0286-1.5321-0.0286
			c-0.4014-0.0013-0.9164,0.1149-1.3106,0.1817c-0.3034,0.0554-0.7235,0.088-0.9562,0.1575
			c-0.3687,0.1049-1.0042,0.3092-1.9305,0.4256c-0.4979,0.0622-0.8666,0.1148-1.1646,0.0965
			c-0.4739-0.0271-0.7603-0.1661-1.0937-0.2312c-0.5178-0.1021-1.4895-0.3973-2.0456-0.2141
			c-0.3432,0.1133-0.4596,0.2437-0.4271,0.6097c0.0186,0.2016,0.1094,0.6185,0.2427,0.776c0.1107,0.1334,0.2638,0.1362,0.3307,0.281
			c0.1432,0.3207,0,0.912,0.0965,1.6582c0.0863,0.6638,0.3108,1.4441,0.4836,1.8412c0.1731,0.393,0.4425,0.9505,0.739,1.7562
			c0,0,0.2376,0.4531,0.5422,0.8865c-0.5807,0.1983-1.1783,0.4084-1.7365,0.5832c-0.5759,0.1802-0.9616,0.2879-1.2071,0.3802
			c-0.1321,0.051-0.2952,0.1105-0.4455,0.1646c-0.2042,0.0696-0.3674,0.146-0.2723,0.3644c0.109,0.2398,0.3136,0.4568,0.5645,0.4639
			c0.3475,0.0099,0.8299-0.2567,1.1236-0.3119c0.034-0.0058,0.1077-0.0541,0.2383-0.0952c0.1263-0.0398,0.3091-0.0709,0.5076-0.1291
			c0.3177-0.0922,0.6966-0.2284,1.1238-0.3731c1.4071-0.4795,3.1534-1.1305,3.5492-1.2951
			c0.3035-0.1263,0.5119-0.2384,0.6893-0.3179c0.2143-0.0922,0.3746-0.1389,0.4524-0.1616c0.183-0.0554,0.3874-0.1518,0.6272-0.2256
			c0.2409-0.0751,2.3972-0.9447,2.6213-1.0185c0.2225-0.0737,1.7049-0.5009,2.2242-0.4624
			c0.5177,0.0368,0.6682,0.0552,0.8709,0.1105c0.1786,0.0482,0.6157,0.1972,0.8084,0.2965
			c0.0244,0.0115,0.0485,0.0255,0.0627,0.0368c0.1289,0.0924-0.2952-0.0551-0.2952-0.0551s-0.4836-0.149-0.688-0.1674
			c-0.2029-0.0186-0.7063-0.0171-0.851,0.0127c-0.112,0.0212-0.2723,0.0523-0.5803,0.1263c-0.4609,0.1105-1.0652,0.295-1.4653,0.451
			c-0.0921,0.0354-0.7801,0.3064-1.6638,0.6908c-0.5775,0.2526-1.1787,0.5589-1.7562,0.8242
			c-0.4085,0.1901-0.8113,0.3547-1.0993,0.5092c-0.0554,0.0298-0.4001,0.1817-0.8526,0.359
			c-0.8993,0.3532-2.2201,0.8923-2.4044,0.9546c-0.1209,0.0413-0.579,0.1802-1.1039,0.3024
			c-0.6638,0.1572-1.4255,0.2963-1.6753,0.3289c-0.4451,0.0554-0.5005,0.0722-0.536,0.2029c-0.0385,0.1289,0,0.5191,0.0909,0.6114
			c0.0934,0.0921,0.3715,0.1304,0.519,0.1105c0.0638-0.0084,0.5632-0.061,1.1121-0.1773c0.7064-0.1488,1.5036-0.3729,1.6485-0.4157
			c0.0099-0.0028,0.0242-0.0076,0.0408-0.0132c-0.0045,0.5315-0.0306,1.2353-0.0252,1.3114
			c0.0056,0.1192,0.0411,0.7191,0.0707,0.7972c0.027,0.0766,0.0908,0.0977,0.1546,0.1049c0.064,0.0072,0.2256,0,0.2809,0
			c0.0554,0,1.3844-0.1616,1.3844-0.1616s0.2569-0.0214,0.4782-0.0512c0.278-0.034,0.6071-0.1161,0.661-0.1815
			c0.0898-0.1074,0.0354-2.063,0.0396-3.0317c0.0751-0.0361,0.1321-0.0652,0.1591-0.0777c0.0848-0.0411,0.8623-0.3575,1.8879-0.8072
			c1.1006-0.4838,2.4526-1.1221,3.6158-1.4824c0.6484-0.2029,1.267-0.3263,1.7023-0.3205c0.2589,0.0028,0.5078-0.0001,0.5908,0.0687
			c0,0,0.1939,0.0566,0.4669,0.2476c0.0034-0.003,0.0064-0.0056,0.0098-0.0086c0.0421-0.0376,0.081-0.0736,0.1201-0.1098
			c0.2777-0.2571,0.6232-0.5769,1.2448-0.7195c0.1275-0.0297,0.2659-0.0486,0.4149-0.0591
			c-0.1492-0.1931-0.3031-0.3601-0.4556-0.4775c-0.0229,0.0084-0.2401-0.1901-0.4668-0.3149
			c-0.1674-0.098-0.5379-0.3659-1.1237-0.5519c-0.475-0.1531-1.1104-0.268-1.8114-0.2042c-0.4042,0.0467-0.8496,0.1603-1.339,0.2879
			c-0.3389,0.0924-0.7122,0.1802-1.0641,0.3037c-0.4566,0.1618-0.9049,0.3688-1.3418,0.5362
			c-0.5816,0.2256-1.1575,0.4397-1.586,0.6142c-0.4468,0.1839-0.7671,0.3188-0.8867,0.3678
			c-0.0005-0.9273,0.0608-2.7154,0.0216-3.3083c0-0.9064,0.0409-1.142-0.1206-1.2484c-0.1488-0.0383-0.42-0.0993-0.7335-0.1192
			c-0.2638-0.0171-0.556,0.0028-0.8313,0.0199c-0.2764,0.0199-0.8381,0.1419-0.8751,0.2483
			c-0.051,0.1929-0.0781,0.4583-0.0924,0.8043c-0.0026,0.17,0.0186,0.3504-0.0041,0.5701c-0.0398,0.3591-0.098,0.7888-0.1577,1.1136
			c-0.0595,0.3376-0.1401,0.5433-0.1401,0.5433c-0.0386,0.1021-0.0809,0.2014-0.1123,0.2822
			c-0.2396,0.6143-0.5688,0.4851-0.7745,0.2468c-0.1248-0.1419-0.2425-0.4029-0.2978-0.4864
			c-0.2781-0.4242-0.4113-0.9532-0.5006-1.4186c-0.061-0.3177-0.2427-1.2242-0.1618-1.7475
			c0.0184-0.1207,0.0296-0.2044,0.085-0.2768c0.0255-0.0311,0.0439-0.0552,0.098-0.0822c0.1505-0.0809,0.3858-0.0511,0.6497-0.0965
			c0.383-0.0653,0.8072-0.1829,0.9944-0.2284c0.6722-0.1602,1.1078-0.3233,2.0298-0.3064c0.7406,0.0143,1.0483,0.1774,2.1619,0.2355
			c0.861,0.0454,1.7603,0.0526,2.6172,0c0.5504-0.034,1.0697-0.1431,1.61-0.1179c0.335,0.0173,0.6454,0.0839,0.9787,0.135
			c0.4157,0.0679,0.8329,0.014,1.308,0.061c0.786,0.075,1.5704,0.1149,2.3945,0.0184c0.2822-0.0326,0.7944-0.0793,0.7844-0.1646
			C136.0813,25.0743,135.2104,24.3169,134.6274,24.026z M121.8194,30.7328c0,0,0.0794-0.1177,0.1772-0.3246
			c0.1592-0.3307,0.4088-0.8837,0.6767-1.4668c0.3179-0.6923,0.6611-1.43,0.8783-1.9506c0.0822-0.197,0.2455-0.6624,0.4553-0.7702
			c0.38-0.2,0.6696,0.0623,0.4723,0.4497c-0.0653,0.1319-0.1207,0.2993-0.1973,0.4723c-0.0597,0.1362-0.1432,0.281-0.1901,0.383
			c-0.1901,0.4142-0.2808,0.6242-0.4652,1.0611c-0.1334,0.3192-0.2057,0.5589-0.3958,0.9263
			c-0.1602,0.3121-0.3289,0.6653-0.5063,0.9787c-0.0852,0.149-0.3248,0.6627-0.4723,0.7405
			C121.9187,31.4096,121.6663,31.035,121.8194,30.7328z"/>
		<path class="st0" d="M138.808,30.6635c-1.2016-0.0128-1.7904,0.0411-2.511-0.0072c-0.2794-0.0214-0.8623-0.1107-1.339,0
			c-0.5505,0.1263-0.81,0.4297-1.1093,0.6964c-0.3463,0.3121-0.6099,0.4767-0.4851,0.8114
			c0.0383,0.1008,0.1034,0.1559,0.1758,0.2042c0.1077,0.0696,0.1944,0.1135,0.2822,0.1901c0.1687,0.149,0.2666,0.3887,0.6185,0.2894
			c0.1419-0.0396,0.2437-0.1475,0.3616-0.2595c0.2057-0.2001,0.3108-0.4808,0.6073-0.6653
			c0.1092-0.0681,0.1855-0.1276,0.2878-0.1534c0.1348-0.0367,0.2909-0.0311,0.4029-0.0636c0.3402-0.1036,0.7276-0.0143,1.1476,0.034
			c0.766,0.0893,1.5816,0.1603,2.2101,0.2483c0.4267,0.058,0.9531,0.1021,1.4155,0.1192c0.3716,0.014,0.627,0.0212,0.9731-0.1278
			c0.2697-0.1149,0.5463-0.4083,0.7604-0.6765c0.4226-0.5206,1.0739-1.8781,1.5819-2.891c0.1161-0.2327,0.255-0.5816,0.3999-0.9023
			c0.2154-0.4795,0.4509-0.8949,0.5091-1.4155c0.0895-0.8469-0.3389-1.3122-0.0368-1.5605c0.271-0.2184,0.6951,0.0722,1.0665-0.0567
			c0.3664-0.1263,0.8655-0.3873,0.9436-0.542c0.0269-0.0552-0.1577-0.4057-0.41-0.8893c-0.3149-0.603-0.7518-1.4101-1.1986-2.0655
			c-0.2029-0.2991-0.3575-0.59-0.5065-0.7688c-0.1602-0.1914-0.2878-0.4241-0.4226-0.6199
			c-0.1743-0.2511-0.3715-0.4553-0.5504-0.7191c-0.3121-0.4583-1.1192-1.3392-1.1392-1.2726
			c-0.0666-0.0595-0.3562,0.2072-0.5305,0.603c-0.1161,0.2639-0.1715,0.7931-0.1715,0.9945c0,0.1189-0.0283,0.2582-0.0809,0.3488
			c-0.1786,0.3277-0.5249,0.6015-0.4397,0.7577c0.0723,0.136,0.2624,0.1204,0.3234,0.2411
			c0.0227,0.0424,0.0737,0.1233,0.0993,0.2029c0.0155,0.0551,0.0086,0.1064,0.0197,0.163c0.0385,0.1715,0.05,0.3843,0.1987,0.5291
			c0.4226,0.4085,1.1067-0.01,1.4796,0.2184c0.0608,0.0355,0.1347,0.135,0.1914,0.21c0.0242,0.0498,0.0498,0.1051,0.0753,0.1659
			c0.2184,0.4938,0.5163,1.3392,0.7023,1.8654c0.1149,0.332,0.1843,0.3945,0.1263,0.5504
			c-0.0214,0.0524-0.2128,0.2626-0.4313,0.3802c-0.2738,0.149-0.7888,0.4453-0.9434,0.7191
			c-0.1133,0.196-0.2781,0.4907-0.4182,0.861c-0.1095,0.295-0.2442,0.7704-0.3664,1.1065
			c-0.1246,0.3391-0.2225,0.7334-0.4226,1.2909c-0.0753,0.2029-0.1389,0.393-0.2113,0.6127
			c-0.1616,0.4907-0.2866,0.8893-0.5219,1.071c-0.0936,0.0722-0.1929,0.1518-0.3023,0.1843
			c-0.122,0.037-0.2965,0.0271-0.4382,0.0285C140.2789,30.7102,139.5128,30.6691,138.808,30.6635z M142.9037,19.8969
			c-0.1026-0.0063-0.2237-0.0206-0.2916-0.0513c-0.0731-0.0307-0.1761-0.1155-0.199-0.3325
			c-0.0309-0.2532,0.0564-0.3302,0.1142-0.3495c0.1527-0.0578,0.262-0.0578,0.3443-0.0335
			c0.0836,0.0259,0.1337,0.0259,0.2042,0.0439c0.0705,0.0206,0.4649-0.0051,0.4713,0.2953
			C143.5548,19.7685,143.0053,19.9034,142.9037,19.8969z"/>
		<path class="st0" d="M153.1024,40.8584c-0.332-0.2922-0.8072-0.468-1.2683-0.4991c-0.8199-0.0528-1.7291,0.1771-2.6327,0.3517
			c-0.5333,0.1008-1.0708,0.1814-1.5787,0.2511c-1.0046,0.139-2.2696,0.1136-2.9494-0.1786
			c-0.4127-0.1774-0.5573-0.2044-0.9615-0.4654c-0.1901-0.1205-0.6272-0.5275-0.8158-0.7505
			c-0.1873-0.2226-0.3973-0.4538-0.495-0.6439c-0.1049-0.1972-0.3687-0.5589-0.5517-0.9633
			c-0.3491-0.773-0.7589-1.4128-1.2782-1.1744c-0.2412,0.1105-0.2836,0.58-0.2667,1.1517c0.0043,0.1447,0.0398,0.3036,0.0411,0.457
			c0.0285,0.7715,0.0354,1.5773,0.0612,1.8708c0.0878,0.9945,0.1077,1.2826,0.1347,2.0315c0.01,0.244,0.0411,0.539,0.0625,0.8526
			c0.024,0.3162,0.0564,0.7929,0.0794,1.3262c0.0155,0.3874-0.0199,0.7775,0,1.1846c0.0127,0.2524,0.0553,0.6666,0.0763,1.1277
			c0.0199,0.4086,0.0074,0.8554,0.0283,1.1861c0.0201,0.3119,0.0668,0.5147,0.1278,0.5418c0.0794,0.0354,0.173,0,0.3233-0.0498
			c0.1776-0.0595,0.4285-0.1348,0.7265-0.2042c0.5772-0.1348,1.0825-0.2384,1.5462-0.281c0.3928-0.0383,0.2029-0.0595,0.6538-0.0368
			c0.047,0.0013,0.7987,0.0299,0.8483,0.0368c0.2329,0.0283,0.4412,0.0255,0.6668,0.0625c0.2169,0.034,0.4226,0.0993,0.664,0.058
			c0.0878-0.0878,0.1774-0.3134,0.3065-0.5375c0.1163-0.2,0.2695-0.393,0.3802-0.5405c0.343-0.4524,0.6977-0.834,1.1318-1.142
			c0.8638-0.6071,1.8625-1.01,2.9407-1.4171c0.2185-0.0837,0.3999-0.1845,0.6354-0.3078c0.1233-0.064,0.278-0.1179,0.4013-0.1901
			c0.596-0.3435,1.1449-0.7931,1.3692-1.3889C153.7677,41.8827,153.5635,41.2613,153.1024,40.8584z M152.4783,42.338
			c-0.0809,0.322-0.3757,0.5305-0.6867,0.7405c-0.2907,0.1957-0.6268,0.3887-0.8878,0.5078
			c-0.5803,0.2624-1.2045,0.4723-1.7904,0.773c-0.553,0.2838-1.4,0.7732-1.9917,1.2639c-0.5642,0.468-0.8978,0.8824-0.9531,0.9151
			c-0.2198,0.136-0.2226-0.1589-0.2312-0.4496c-0.0028-0.098-0.0227-0.2057-0.0268-0.3136
			c-0.013-0.4226-0.0725-0.8865-0.0725-1.0667c0-0.481-0.0554-0.9491-0.0753-1.4186c-0.0069-0.1475,0.0102-0.3065-0.0225-0.4639
			c-0.0426-0.2282-0.0069-0.4384,0.1064-0.5518c0.0837-0.0837,0.2169-0.1291,0.3504-0.1674
			c0.3205-0.0965,0.7291-0.112,1.0879-0.1817c0.6681-0.1261,1.2399-0.2794,1.9251-0.3476c0.1815-0.0184,0.5262-0.0623,0.9319-0.1274
			c0.4907-0.0796,1.122-0.2015,1.5857-0.1577c0.234,0.0184,0.4654,0.1462,0.6017,0.3164
			C152.467,41.7778,152.5676,42.0016,152.4783,42.338z"/>
		<path class="st0" d="M149.2894,42.6486c-0.1207-0.0653-0.3289-0.0156-0.539,0.0255c-0.1531,0.0311-0.3065,0.0426-0.4611,0.0638
			c-0.2595,0.0383-0.515,0.098-0.7658,0.1432c-0.1263,0.0227-0.2427,0.0781-0.3435,0.0952
			c-0.1702,0.0311-0.3049,0.0311-0.3915,0.1434c-0.0469,0.0595-0.0498,0.1786-0.0313,0.3021
			c0.0171,0.1332,0.0342,0.2991,0.0355,0.4695c0.003,0.1376-0.0042,0.2892,0.0056,0.38c0.01,0.0694,0.0355,0.1163,0.0528,0.1263
			c0.0679,0.0426,0.2621-0.0921,0.4964-0.2256c0.2554-0.146,0.5701-0.2978,0.8427-0.4027c0.2041-0.0796,0.4963-0.21,0.7405-0.3236
			c0.244-0.1135,0.5106-0.1561,0.5545-0.2383c0.0327-0.0567,0.0028-0.1659-0.037-0.2894
			C149.4157,42.8173,149.3886,42.7025,149.2894,42.6486z"/>
		<path class="st0" d="M152.4996,55.1232c0.0056,0.0214,0.0115,0.0595,0.0212,0.1092c0.1179,0.3333,0.3251,0.6101,0.6512,0.1163
			c0.0837-0.1575,0.1674-0.3177,0.2511-0.4895c0,0,0.0041-0.0099,0.0112-0.0212c0,0,0.2044-0.41,0.4285-0.8837
			c0.1674-0.3534,0.3304-0.7107,0.4851-1.0769c0.0411-0.0993,0.084-0.197,0.1248-0.295c0.0043-0.0171,0.0056-0.0396,0.0056-0.0396
			c0.0173-0.2184,0.1263-0.4213-0.2325-0.8413c-0.024-0.0283-0.0411-0.0539-0.0582-0.0809l-0.0013-0.0013
			c-0.1348-0.1731-0.556-0.8398-0.7066-1.0243c-0.1546-0.1886-0.2667-0.3986-0.3958-0.6127
			c-0.1488-0.2483-0.3064-0.4683-0.4567-0.7263c-0.1136-0.1944-0.2412-0.3746-0.3573-0.5562
			c-0.1491-0.2297-0.3463-0.6013-0.4216-0.6949c-0.1033-0.1335-0.4412-0.6668-0.6183-1.0087
			c-0.1064-0.2042-0.2283-0.4198-0.3404-0.6198c-0.0883-0.1587-0.186-0.3376-0.2598-0.4992
			c-0.0452-0.1036-0.0822-0.1817-0.1503-0.2044c-0.0809-0.0269-0.1687,0.0084-0.2751,0.0567
			c-0.1676,0.0724-0.3672,0.1972-0.5603,0.308c-0.3021,0.173-0.6227,0.3772-0.7676,0.4838c-0.5262,0.39-1.1147,0.922-1.4171,1.522
			c-0.2042,0.41-0.1019,0.4879,0.0426,0.5589c0.3391,0.1646,0.9036,0.4938,1.2114,0.7122c0.566,0.4042,1.0684,0.9049,1.5605,1.4114
			c0.1786,0.1845,0.5121,0.566,0.6638,0.8056c0.1393,0.2243,0.3123,0.4155,0.4581,0.6497c0.1462,0.234,0.2924,0.5106,0.3973,0.7676
			c0.1592,0.3871,0.3407,0.7814,0.4412,1.18C152.3335,54.509,152.4286,54.7644,152.4996,55.1232z"/>
		<path class="st0" d="M150.2143,60.0016l0.003,0.0028c0.4382-0.5816,0.8667-1.1874,1.2808-1.8187
			c0.2213-0.4496,0.4438-1.2568,0.173-2.4753c-0.0454-0.2113-0.0794-0.3731-0.0993-0.4963
			c-0.0426-0.1888-0.0781-0.3376-0.1546-0.576c-0.112-0.356-0.2511-0.6851-0.3914-1.0455c-0.2031-0.5122-0.491-0.9378-0.7832-1.3874
			c-0.2639-0.4098-0.5517-0.8013-0.9191-1.156c-0.3517-0.3363-0.7546-0.7589-1.1872-0.9845
			c-0.3008-0.1546-0.5703-0.3333-0.8811-0.4922c-0.1702-0.0837-0.5163-0.2483-0.8041-0.3589
			c-0.1432-0.0538-0.5619-0.1659-1.0753-0.2327c-0.5831-0.0753-1.2696-0.1079-1.7505-0.0638
			c-0.7503,0.0695-1.4298,0.2327-2.1079,0.4441c-0.5135,0.1602-0.9661,0.3603-1.4173,0.6609
			c-0.5416,0.359-1.2213,0.9179-1.7008,1.5023c-0.0764,0.0965-0.1376,0.2141-0.2154,0.3121
			c-0.2029,0.2626-0.3873,0.5221-0.5576,0.8015c-0.1077,0.1814-0.237,0.3986-0.3363,0.5872
			c-0.0778,0.1547-0.1999,0.4682-0.281,0.7163c-0.0764,0.247-0.1641,0.4952-0.2239,0.7505c-0.1064,0.444-0.2072,0.8908-0.261,1.3589
			c-0.1135,0.9988-0.0794,2.0399,0.1375,3.0145c0.1149,0.5191,0.3119,1.0284,0.539,1.498c0.2299,0.4795,0.4598,0.9136,0.7449,1.305
			c0.2937,0.3999,0.6439,0.7561,1.044,1.1193c0.1957,0.1774,0.3843,0.3815,0.5872,0.532c0.3407,0.2537,0.6994,0.4752,1.0782,0.6581
			c0.4851,0.234,0.9995,0.4472,1.515,0.5887c0.0067,0.0018,0.0146,0.0037,0.0217,0.0056c0.6846,0.2043,1.5894,0.4012,2.5654,0.4158
			l0.0871-0.0685l0.1857-0.1393l0.0468-0.0351l2.6101-1.9575c0.1743-0.2356,0.082-0.2157-0.0186-0.1659
			c-0.654,0.4142-1.3461,0.6923-1.9915,0.8398c-1.1152,0.2565-2.0869,0.136-2.4087,0.051c-0.4894-0.1248-1.6398-0.3958-2.857-1.2371
			c-0.8314-0.5744-1.6738-1.3928-2.1888-2.8229c-0.2385-0.6625-0.4596-1.4525-0.4767-2.4115
			c-0.0199-1.2369,0.3476-2.5421,0.7717-3.4598c0.6497-1.3972,1.6342-2.3562,2.6654-2.8867
			c1.1718-0.6015,2.3888-0.6752,2.9931-0.6865c0.7023-0.013,1.5434,0.1019,2.3278,0.4014c0.6058,0.2297,1.2711,0.5944,1.8202,1.1532
			c1.1303,1.1516,2.1035,3.288,2.2084,4.579c0.1291,1.5702-0.0807,2.7731-0.4838,3.7278
			C149.9958,60.2795,150.2143,60.0016,150.2143,60.0016z"/>
		<path class="st0" d="M110.6382,10.1001c0.1788-0.2572,0.3648-0.6787,0.8264-1.2297c0.3466-0.4146,0.7924-0.9288,1.853-1.3648
			c0.1946-0.0794,0.5226-0.1816,0.7512-0.2527c3.2588-1.0281,7.854,2.3713,7.9603,2.4551c0.108,0.0853,0.1918,0.1264,0.2572,0.0753
			c0,0,0.4956-0.6787,0.4317-0.8166c-0.0383-0.0823-0.7086-1.1656-2.593-2.4677c-1.065-0.7344-2.2449-1.5792-4.0455-1.5651
			c-4.5099,0.0314-5.6076,4.3283-5.6528,4.5099C110.3726,9.6556,110.2987,10.587,110.6382,10.1001z"/>
		<path class="st0" d="M131.0745,3.3564c-0.7469,0.0414-1.5973,0.1067-2.5333,0.3977c-3.953,1.2341-5.5179,3.9646-5.5179,3.9646
			c-0.1988,0.1606,0.2171,0.5369,0.304,0.6376c0.0809,0.0937,0.1604,0.1591,0.3336-0.0141
			c1.1971-1.1957,2.5688-1.9468,3.9886-2.4523c0.4404-0.1563,0.9416-0.2656,1.369-0.3722c0.727-0.1818,1.6719-0.2593,2.5447-0.291
			c1.0417-0.0378,1.5945,0.0723,1.5945,0.0723c1.7912,0.3417,3.2821,2.4541,3.1586,2.0228
			c-0.3136-1.1018-0.7796-1.957-1.3405-2.5997l-0.0011,0.0002c-0.3248-0.3756-0.8019-0.7637-1.4476-1.0335
			C132.8823,3.4176,132.0657,3.3027,131.0745,3.3564z"/>
		<path class="st0" d="M138.6678,33.771c-0.2993-0.0155-0.5448,0.034-0.7887,0c-0.3641-0.0519-1.1323-1.0198-1.41-1.5394
			c-0.0029,0-0.0061-0.0003-0.0089-0.0003c-0.079,0-0.1422,0.0076-0.1932,0.0231c-0.1118,0.0324-0.2096,0.0425-0.2959,0.0514
			c-0.0428,0.0044-0.0957,0.01-0.1204,0.0161c-0.0153,0.0086-0.0454,0.028-0.0681,0.0426c-0.0222,0.0144-0.0453,0.0294-0.07,0.0447
			c-0.0858,0.0534-0.1445,0.1311-0.2411,0.2639c-0.0735,0.1013-0.1571,0.2161-0.2699,0.326l-0.0361,0.0346
			c-0.0674,0.0647-0.1484,0.1417-0.2484,0.2112c0.0384,0.1368,0.0741,0.2801,0.1063,0.4314l0.0572,0.1754
			c0,0,0.7173,1.8234,2.4705,2.1652c1.464,0.2851,1.9353-0.6431,2.0787-1.0784C139.6776,34.7953,139.6776,33.8208,138.6678,33.771z
			 M138.0312,35.2174c-0.5915-0.0439-1.1829-0.2552-1.5547-0.7631c-0.1562-0.2128-1.0184-1.5122-0.6382-1.6895
			c0.2935,0.0257,0.5191,0.603,0.6268,0.8441c0.318,0.7035,0.7151,1.1021,1.5237,1.1021c0.2114,0,0.8694-0.1176,0.8922,0.1687
			C138.9023,35.202,138.2312,35.2332,138.0312,35.2174z"/>
		<path class="st0" d="M110.3854,6.6755c0.1789-0.2572,0.4012-0.8682,0.8628-1.4192c0.0409-0.0489,0.0789-0.0961,0.1159-0.1423
			c1.1602-1.2708,2.7969-1.313,2.7969-1.313v0c0.0148-0.0002,0.0297-0.0015,0.0444-0.0015
			c3.6904,0.0156,6.3274,1.9184,7.4179,2.7818c0.2981,0.2371,0.4969,0.3732,0.5339,0.3947c0.1689,0.108,0.1788,0,0.1788,0
			s0.6716-0.8179,0.7142-0.8887c0.0427-0.0697,0.0769-0.1565,0.0427-0.2118c-0.0724-0.1121-0.8647-1.2864-2.1895-2.2733
			c-1.2397-0.9203-3.2888-1.6502-4.7285-1.6075c-1.7268,0.0496-2.8656,0.4828-3.7275,0.9868
			c-1.1256,0.659-1.6806,1.5869-1.8897,2.0137l-0.0013-0.0003c-0.2985,0.6318-0.3688,0.9699-0.3824,1.0242
			C110.1198,6.231,110.0459,7.1624,110.3854,6.6755z"/>
		<path class="st0" d="M152.3489,17.3645c-3.9996-5.1797-9.3675-9.2258-15.3932-11.6634c0.2477,0.5748,0.4247,1.2039,0.5267,1.8834
			c12.5712,5.5692,20.985,18.1775,20.985,32.2377c0,19.4335-15.8104,35.2439-35.2441,35.2439
			c-19.4335,0-35.2441-15.8105-35.2441-35.2439c0-8.0696,2.8465-16.0449,8.0149-22.4564c3.5443-4.397,8.0231-7.875,12.9997-10.1664
			l0.028-0.4354c-0.0146-0.5036,0.2061-1.0283,0.2304-1.1265c0.0187-0.0786,0.0413-0.1603,0.0665-0.244
			c0.0003-0.0015,0.0007-0.0033,0.0011-0.0048c0.0031-0.0128,0.0068-0.0261,0.01-0.039
			c-5.5049,2.3785-10.6504,6.2426-14.5291,11.0544c-5.387,6.683-8.354,15-8.354,23.4182c0,20.2787,16.498,36.7767,36.7767,36.7767
			S160,60.101,160,39.8223C160,31.6123,157.3545,23.8466,152.3489,17.3645z"/>
	</g>
</g>
</svg>
