<?xml version="1.0" encoding="utf-8"?>
<!-- Generator: Adobe Illustrator 19.1.0, SVG Export Plug-In . SVG Version: 6.00 Build 0)  -->
<svg version="1.1" id="Layer_1" xmlns="http://www.w3.org/2000/svg" xmlns:xlink="http://www.w3.org/1999/xlink" x="0px" y="0px"
	 viewBox="-99 65.7 300 29" style="enable-background:new -99 65.7 300 29;" xml:space="preserve">
<style type="text/css">
	.st0{fill:#FFFFFF;}
</style>
<g>
	<path class="st0" d="M-94.7,77.2v5.1c0,2.1,0.5,2.8,2,2.8v0.5H-99v-0.5c1.4,0,2-0.5,2-2.8v-11c0-2.1-0.4-2.8-2-2.8V68h6.4v0.5
		c-1.4,0-2,0.6-2,2.8v5h9.6v-5c0-2.2-0.5-2.8-2-2.8V68h6.3v0.5c-1.5,0-2,0.7-2,2.8v11c0,2.1,0.5,2.8,2,2.8v0.5H-87v-0.5
		c1.4,0,2-0.5,2-2.8v-5.1H-94.7z"/>
	<path class="st0" d="M-76.3,79c-0.1,4.9,2.9,6.1,4.3,6.1c1.5,0,2.3-0.5,3.8-2.3v0.8c-1.3,1.7-2.6,2.3-4.5,2.3
		c-3.4,0-5.9-2.4-5.9-5.7s2.4-5.9,5.5-5.9c2.5,0,4.9,2,4.7,4.6C-68.3,79-76.3,79-76.3,79z M-70.3,78.4c0.1-2.4-1.5-3.4-2.9-3.4
		c-1.8,0-2.9,1.4-3,3.4H-70.3z"/>
	<path class="st0" d="M-58,83.1c0,1.3,0.1,1.7,0.6,1.7c0.3,0,0.5-0.3,0.7-1h0.5c-0.1,1.4-0.9,2.2-2.1,2.2c-0.9,0-1.5-0.5-1.8-1.5
		c-1.1,1.2-1.8,1.5-2.9,1.5c-1.7,0-3.1-1.3-3.1-2.9c0-3.1,4.2-3,6-4v-0.8c0-1.5-0.9-2.6-2.4-2.6c-1.2,0-2.4,0.8-2.9,2.3l-0.6-0.2
		c0.5-2,2.1-3.4,4-3.4c1.8,0,3.9,1,3.9,4L-58,83.1L-58,83.1z M-60.1,79.7c-2.1,0.9-3.9,0.9-3.9,3.1c0,1.1,0.8,2,1.7,2
		c0.6,0,1.8-0.5,2.2-1.4C-60.1,83.4-60.1,79.7-60.1,79.7z"/>
	<path class="st0" d="M-53.1,68.6c0-1-0.3-1.5-1.5-1.5h-0.7v-0.5l3.8-0.4h0.5v17.3c0,1.2,0.4,1.5,1.7,1.5h0.3v0.5h-6.1v-0.5h0.6
		c1.1,0,1.4-0.5,1.4-2.1L-53.1,68.6L-53.1,68.6z"/>
	<path class="st0" d="M-43.8,74.7h3.8v0.8h-3.8v7c0,1.5,0.8,2.3,2,2.3c0.8,0,1.4-0.3,2-1l0.3,0.4c-1,1.2-2.1,1.8-3.3,1.8
		c-1.8,0-3.1-1.3-3.1-3.2v-7.3H-48V75c1.5-0.7,2.7-2.1,3.6-3.9h0.5C-43.8,71-43.8,74.7-43.8,74.7z"/>
	<path class="st0" d="M-27.9,83c0,1.7,0.3,2.1,1.8,2.1v0.5h-5.7v-0.5c1.5,0,1.8-0.3,1.8-1.8v-5.4c0-1.4-0.9-2.4-2.2-2.4
		c-1.2,0-2.1,0.6-3.2,2.1v6c0,1.1,0.5,1.5,1.8,1.5v0.5h-5.8v-0.5c1.6,0,1.9-0.3,1.9-2.1V68.8c0-1.4-0.4-1.6-1.9-1.6v-0.5l3.5-0.4
		h0.5v10.3c1.4-1.6,2.4-2.2,3.8-2.2c1.8,0,3.6,1.2,3.6,3.8L-27.9,83L-27.9,83z"/>
	<path class="st0" d="M-14.1,82.3c0,2.2,0.5,2.8,2,2.8v0.5h-6.3v-0.5c1.2,0,2-0.4,2-2.7V71.3c0-2.2-0.5-2.8-2-2.8V68h6.4
		c4.9,0,6.8,2.6,6.8,5c0,2.9-2.2,4.6-6.2,4.6c-0.8,0-1.4,0-2.7-0.2L-14.1,82.3L-14.1,82.3z M-14.1,76.6c0.8,0.3,1.3,0.3,2.2,0.3
		c2.6,0,4.3-1.4,4.3-3.8c0-1.9-1-4.4-4.3-4.4h-2.2V76.6z"/>
	<path class="st0" d="M1.6,86c-3.4,0-6-2.5-6-5.8c0-3.3,2.6-5.8,6-5.8c3.4,0,6,2.5,6,5.8C7.6,83.5,5,86,1.6,86z M1.6,75
		c-2.3,0-3.7,2-3.7,5.2c0,2.8,1.2,5.1,3.7,5.1c2.6,0,3.7-2.5,3.7-5.1C5.3,77.5,4.1,75,1.6,75z"/>
	<path class="st0" d="M11.3,68.6c0-1-0.3-1.5-1.5-1.5H9.2v-0.5l3.8-0.4h0.5v17.3c0,1.2,0.4,1.5,1.7,1.5h0.3v0.5H9.3v-0.5h0.6
		c1.1,0,1.4-0.5,1.4-2.1L11.3,68.6L11.3,68.6z"/>
	<path class="st0" d="M20.6,83.6c0,1.1,0.3,1.5,1.8,1.5v0.5h-6v-0.5c1.7,0,2.1-0.2,2.1-1.5v-6.7c0-1.5-0.5-1.6-2.1-1.6v-0.5l3.6-0.3
		h0.5V83.6z M20.9,70.1c0,0.7-0.6,1.4-1.3,1.4c-0.7,0-1.4-0.6-1.4-1.4s0.6-1.3,1.4-1.3C20.3,68.8,20.9,69.4,20.9,70.1z"/>
	<path class="st0" d="M34.1,78.3h-0.5c-0.5-2-1.8-3.2-3.7-3.2c-2.2,0-3.7,1.8-3.7,4.5c0,3,1.9,5.5,4.1,5.5c1.3,0,2.9-0.7,4.1-2.3
		v0.8c-1.2,1.6-2.8,2.4-4.8,2.4c-3.2,0-5.5-2.2-5.5-5.5c0-3.4,2.5-6,5.6-6c1.6,0,2.5,0.6,3.1,0.6c0.3,0,0.6-0.2,0.7-0.6h0.5V78.3z"
		/>
	<path class="st0" d="M42.9,83.1l1.9-5.8c0.4-1.3,0.3-2-0.9-2.1v-0.5h3.8v0.5c-1.2,0-1.9,0.7-2.5,2.6L41,90.7c-0.9,2.5-2.3,4-3.6,4
		c-0.5,0-0.8-0.1-1.4-0.5l0.7-1.9c0.4,0.2,0.7,0.2,1,0.2c1.3,0,2.1-0.8,2.8-2.7l1.4-3.9l-3.9-9c-0.6-1.3-1-1.6-2.2-1.6v-0.5h5.2v0.5
		c-0.8,0.1-1.2,0.7-0.8,1.7L42.9,83.1z"/>
</g>
<g>
	<path class="st0" d="M64.1,82.5c0,1.3,0.1,1.7,0.6,1.7c0.3,0,0.5-0.3,0.7-1H66c-0.1,1.4-0.9,2.2-2.1,2.2c-0.9,0-1.5-0.5-1.8-1.5
		c-1.1,1.2-1.8,1.5-2.9,1.5c-1.7,0-3.1-1.3-3.1-2.9c0-3.1,4.2-3,6-4v-0.8c0-1.5-0.9-2.6-2.4-2.6c-1.2,0-2.4,0.8-2.9,2.3l-0.6-0.2
		c0.5-2,2.1-3.4,4-3.4c1.8,0,3.9,1,3.9,4L64.1,82.5L64.1,82.5z M62.1,79.1C60,80,58.1,80,58.1,82.2c0,1.1,0.8,2,1.7,2
		c0.6,0,1.8-0.5,2.2-1.4C62.1,82.8,62.1,79.1,62.1,79.1z"/>
	<path class="st0" d="M78.5,82.6c0,1.4,0.3,1.8,1.8,1.8V85h-5.8v-0.5c1.5,0,1.9-0.3,1.9-1.4v-5.7c0-1.8-1.3-2.5-2.4-2.5
		c-1.1,0-2,0.7-3.1,2.1v5.3c0,1.7,0.2,2.1,1.8,2.1V85h-5.8v-0.5c1.4,0,1.8-0.1,1.8-2.1v-6.1c0-1.3-0.3-1.6-1.8-1.6v-0.5l3.4-0.3h0.5
		V76c1.3-1.5,2.6-2.2,3.9-2.2c1.8,0,3.7,1.3,3.7,3.9L78.5,82.6L78.5,82.6z"/>
	<path class="st0" d="M92.7,82.9c0,1.2,0.4,1.6,1.8,1.6V85h-6.3c-4.6,0-6.3-3.1-6.3-5.7c0-3.1,2.3-5.5,5.1-5.5
		c1.2,0,2.3,0.4,3.7,1.3v-6.7c0-1.6-0.4-1.9-1.4-1.9h-0.6V66l3.6-0.4h0.5V82.9z M90.7,76.3c-0.9-1.2-2.1-1.8-3.2-1.8
		c-2,0-3.3,1.8-3.3,4.4c0,2.6,1.2,5.6,4.8,5.6c1.2,0,1.7-0.5,1.7-1.7L90.7,76.3L90.7,76.3z"/>
	<path class="st0" d="M108.7,81.7c0,2.2,0.5,2.8,2,2.8V85h-6.3v-0.5c1.2,0,2-0.4,2-2.7V70.7c0-2.2-0.5-2.8-2-2.8v-0.5h6.4
		c4.9,0,6.8,2.6,6.8,5c0,2.9-2.2,4.6-6.2,4.6c-0.8,0-1.4,0-2.7-0.2L108.7,81.7L108.7,81.7z M108.7,76c0.8,0.3,1.3,0.3,2.2,0.3
		c2.6,0,4.3-1.4,4.3-3.8c0-1.9-1-4.4-4.3-4.4h-2.2V76z"/>
	<path class="st0" d="M121.6,68c0-1-0.3-1.5-1.5-1.5h-0.7V66l3.8-0.4h0.5v17.3c0,1.2,0.4,1.5,1.7,1.5h0.3V85h-6.1v-0.5h0.6
		c1.1,0,1.4-0.5,1.4-2.1L121.6,68L121.6,68z"/>
	<path class="st0" d="M135.6,82.5c0,1.3,0.1,1.7,0.6,1.7c0.3,0,0.5-0.3,0.7-1h0.5c-0.1,1.4-0.9,2.2-2.1,2.2c-0.9,0-1.5-0.5-1.8-1.5
		c-1.1,1.2-1.8,1.5-2.9,1.5c-1.7,0-3.1-1.3-3.1-2.9c0-3.1,4.2-3,6-4v-0.8c0-1.5-0.9-2.6-2.4-2.6c-1.2,0-2.4,0.8-2.9,2.3l-0.6-0.2
		c0.5-2,2.1-3.4,4-3.4c1.8,0,3.9,1,3.9,4L135.6,82.5L135.6,82.5z M133.5,79.1c-2.1,0.9-3.9,0.9-3.9,3.1c0,1.1,0.8,2,1.7,2
		c0.6,0,1.8-0.5,2.2-1.4V79.1z"/>
	<path class="st0" d="M149.9,82.6c0,1.4,0.3,1.8,1.8,1.8V85h-5.8v-0.5c1.5,0,1.9-0.3,1.9-1.4v-5.7c0-1.8-1.3-2.5-2.4-2.5
		c-1.1,0-2,0.7-3.1,2.1v5.3c0,1.7,0.2,2.1,1.8,2.1V85h-5.8v-0.5c1.4,0,1.8-0.1,1.8-2.1v-6.1c0-1.3-0.3-1.6-1.8-1.6v-0.5l3.4-0.3h0.5
		V76c1.3-1.5,2.6-2.2,3.9-2.2c1.8,0,3.7,1.3,3.7,3.9L149.9,82.6L149.9,82.6z"/>
	<path class="st0" d="M164.3,82.6c0,1.4,0.3,1.8,1.8,1.8V85h-5.8v-0.5c1.5,0,1.9-0.3,1.9-1.4v-5.7c0-1.8-1.3-2.5-2.4-2.5
		c-1.1,0-2,0.7-3.1,2.1v5.3c0,1.7,0.2,2.1,1.8,2.1V85h-5.8v-0.5c1.4,0,1.8-0.1,1.8-2.1v-6.1c0-1.3-0.3-1.6-1.8-1.6v-0.5l3.4-0.3h0.5
		V76c1.3-1.5,2.6-2.2,3.9-2.2c1.8,0,3.7,1.3,3.7,3.9L164.3,82.6L164.3,82.6z"/>
	<path class="st0" d="M171.4,83c0,1.1,0.3,1.5,1.8,1.5V85h-6v-0.5c1.7,0,2.1-0.2,2.1-1.5v-6.7c0-1.5-0.5-1.6-2.1-1.6v-0.5l3.6-0.3
		h0.5V83z M171.7,69.5c0,0.7-0.6,1.4-1.3,1.4c-0.7,0-1.4-0.6-1.4-1.4s0.6-1.3,1.4-1.3S171.7,68.8,171.7,69.5z"/>
	<path class="st0" d="M186,82.6c0,1.4,0.3,1.8,1.8,1.8V85H182v-0.5c1.5,0,1.9-0.3,1.9-1.4v-5.7c0-1.8-1.3-2.5-2.4-2.5
		c-1.1,0-2,0.7-3.1,2.1v5.3c0,1.7,0.2,2.1,1.8,2.1V85h-5.8v-0.5c1.4,0,1.8-0.1,1.8-2.1v-6.1c0-1.3-0.3-1.6-1.8-1.6v-0.5l3.4-0.3h0.5
		V76c1.3-1.5,2.6-2.2,3.9-2.2c1.8,0,3.7,1.3,3.7,3.9L186,82.6L186,82.6z"/>
	<path class="st0" d="M201,75.2h-2.9c0.9,1,1.2,2.1,1.2,3.2c0,2.2-1.8,4.2-4.1,4.3c-1.7,0.1-3.5,1.4-3.5,2c0,0.4,0.1,0.4,0.2,0.6
		c0.9,1,6.6,1,8.1,2.6c0.6,0.6,0.9,1.2,0.9,1.9c0,2.6-3,4.6-6.7,4.6c-3.2,0-5.4-1.3-5.4-3.3c0-1.2,0.8-2.3,3.5-3.4v-0.1
		c-1.5-0.3-2.4-1.1-2.4-2c0-1.3,1.2-2.2,3.4-3v-0.1c-2.2-0.6-3.4-2.1-3.4-4.1c0-2.6,2-4.6,4.6-4.6c0.4,0,0.9,0,1.4,0.1
		c0.5,0,1,0.1,1.4,0.1h3.5V75.2L201,75.2z M193.4,87.8c-2,0.6-3.2,1.5-3.2,2.6c0,1.6,2.4,2.7,5.5,2.7c2.4,0,4.1-1,4.1-2.4
		C199.8,89.4,198.7,88.7,193.4,87.8z M194.7,82.1c1.6,0,2.7-1.4,2.7-3.9c0-2.2-1.1-3.7-2.7-3.7c-1.6,0-2.7,1.5-2.7,3.7
		C192,80.5,193.1,82.1,194.7,82.1z"/>
</g>
</svg>
