<?xml version="1.0" encoding="utf-8"?>
<!-- Generator: Adobe Illustrator 19.1.0, SVG Export Plug-In . SVG Version: 6.00 Build 0)  -->
<svg version="1.1" id="Layer_1" xmlns="http://www.w3.org/2000/svg" xmlns:xlink="http://www.w3.org/1999/xlink" x="0px" y="0px"
	 viewBox="0 36 455 65.5" style="enable-background:new 0 36 455 65.5;" xml:space="preserve">
<style type="text/css">
	.st0{fill:#FFFFFF;}
	.st1{fill:#F8C0BE;}
</style>
<g>
	<g>
		<path class="st0" d="M6.5,53.6v7.7c0,3.2,0.8,4.2,3,4.2v0.8H0v-0.8c2.1,0,3-0.8,3-4.2V44.6c0-3.2-0.6-4.2-3-4.2v-0.8h9.7v0.8
			c-2.1,0-3,0.9-3,4.2v7.6h14.6v-7.6c0-3.3-0.8-4.2-3-4.2v-0.8h9.6v0.8c-2.3,0-3,1.1-3,4.2v16.7c0,3.2,0.8,4.2,3,4.2v0.8h-9.6v-0.8
			c2.1,0,3-0.8,3-4.2v-7.7C21.2,53.6,6.5,53.6,6.5,53.6z"/>
		<path class="st0" d="M34.4,56.3c-0.2,7.4,4.4,9.3,6.5,9.3c2.3,0,3.5-0.8,5.8-3.5v1.2c-2,2.6-3.9,3.5-6.8,3.5
			c-5.2,0-8.9-3.6-8.9-8.6s3.6-8.9,8.3-8.9c3.8,0,7.4,3,7.1,7C46.6,56.3,34.4,56.3,34.4,56.3z M43.5,55.4c0.2-3.6-2.3-5.2-4.4-5.2
			c-2.7,0-4.4,2.1-4.5,5.2H43.5z"/>
		<path class="st0" d="M62.2,62.5c0,2,0.2,2.6,0.9,2.6c0.5,0,0.8-0.5,1.1-1.5h0.8c-0.2,2.1-1.4,3.3-3.2,3.3c-1.4,0-2.3-0.8-2.7-2.3
			c-1.7,1.8-2.7,2.3-4.4,2.3c-2.6,0-4.7-2-4.7-4.4c0-4.7,6.4-4.6,9.1-6.1v-1.2c0-2.3-1.4-3.9-3.6-3.9c-1.8,0-3.6,1.2-4.4,3.5
			L50,54.5c0.8-3,3.2-5.2,6.1-5.2c2.7,0,5.9,1.5,5.9,6.1L62.2,62.5L62.2,62.5z M59,57.4c-3.2,1.4-5.9,1.4-5.9,4.7c0,1.7,1.2,3,2.6,3
			c0.9,0,2.7-0.8,3.3-2.1C59,63,59,57.4,59,57.4z"/>
		<path class="st0" d="M69.6,40.5c0-1.5-0.5-2.3-2.3-2.3h-1.1v-0.8l5.8-0.6h0.8v26.2c0,1.8,0.6,2.3,2.6,2.3h0.5v0.8h-9.3v-0.8h0.9
			c1.7,0,2.1-0.8,2.1-3.2V40.5L69.6,40.5z"/>
		<path class="st0" d="M83.7,49.8h5.8V51h-5.8v10.6c0,2.3,1.2,3.5,3,3.5c1.2,0,2.1-0.5,3-1.5l0.5,0.6c-1.5,1.8-3.2,2.7-5,2.7
			c-2.7,0-4.7-2-4.7-4.9V51h-3.2v-0.8c2.3-1.1,4.1-3.2,5.5-5.9h0.8C83.7,44.2,83.7,49.8,83.7,49.8z"/>
		<path class="st0" d="M107.8,62.4c0,2.6,0.5,3.2,2.7,3.2v0.8h-8.6v-0.8c2.3,0,2.7-0.5,2.7-2.7v-8.2c0-2.1-1.4-3.6-3.3-3.6
			c-1.8,0-3.2,0.9-4.9,3.2v9.1c0,1.7,0.8,2.3,2.7,2.3v0.8h-8.8v-0.8c2.4,0,2.9-0.5,2.9-3.2V40.9c0-2.1-0.6-2.4-2.9-2.4v-0.8l5.3-0.6
			h0.8v15.6c2.1-2.4,3.6-3.3,5.8-3.3c2.7,0,5.5,1.8,5.5,5.8L107.8,62.4L107.8,62.4z"/>
		<path class="st0" d="M128.8,61.3c0,3.3,0.8,4.2,3,4.2v0.8h-9.6v-0.8c1.8,0,3-0.6,3-4.1V44.6c0-3.3-0.8-4.2-3-4.2v-0.8h9.7
			c7.4,0,10.3,3.9,10.3,7.6c0,4.4-3.3,7-9.4,7c-1.2,0-2.1,0-4.1-0.3V61.3L128.8,61.3z M128.8,52.7c1.2,0.5,2,0.5,3.3,0.5
			c3.9,0,6.5-2.1,6.5-5.8c0-2.9-1.5-6.7-6.5-6.7h-3.3V52.7z"/>
		<path class="st0" d="M152.6,66.9c-5.2,0-9.1-3.8-9.1-8.8s3.9-8.8,9.1-8.8c5.2,0,9.1,3.8,9.1,8.8S157.7,66.9,152.6,66.9z
			 M152.6,50.3c-3.5,0-5.6,3-5.6,7.9c0,4.2,1.8,7.7,5.6,7.7c3.9,0,5.6-3.8,5.6-7.7C158.2,54,156.4,50.3,152.6,50.3z"/>
		<path class="st0" d="M167.3,40.5c0-1.5-0.5-2.3-2.3-2.3h-0.9v-0.8l5.8-0.6h0.8v26.2c0,1.8,0.6,2.3,2.6,2.3h0.5v0.8h-9.4v-0.8h0.9
			c1.7,0,2.1-0.8,2.1-3.2V40.5L167.3,40.5z"/>
		<path class="st0" d="M181.4,63.3c0,1.7,0.5,2.3,2.7,2.3v0.8H175v-0.8c2.6,0,3.2-0.3,3.2-2.3V53.1c0-2.3-0.8-2.4-3.2-2.4V50
			l5.5-0.5h0.8v13.8H181.4z M181.8,42.8c0,1.1-0.9,2.1-2,2.1c-1.1,0-2.1-0.9-2.1-2.1s0.9-2,2.1-2C180.9,40.9,181.8,41.8,181.8,42.8z
			"/>
		<path class="st0" d="M201.9,55.3h-0.8c-0.8-3-2.7-4.9-5.6-4.9c-3.3,0-5.6,2.7-5.6,6.8c0,4.5,2.9,8.3,6.2,8.3c2,0,4.4-1.1,6.2-3.5
			v1.2c-1.8,2.4-4.2,3.6-7.3,3.6c-4.9,0-8.3-3.3-8.3-8.3c0-5.2,3.8-9.1,8.5-9.1c2.4,0,3.8,0.9,4.7,0.9c0.5,0,0.9-0.3,1.1-0.9h0.8
			v5.8H201.9z"/>
		<path class="st0" d="M215.2,62.5l2.9-8.8c0.6-2,0.5-3-1.4-3.2v-0.8h5.8v0.8c-1.8,0-2.9,1.1-3.8,3.9l-6.4,19.6
			c-1.4,3.8-3.5,6.1-5.5,6.1c-0.8,0-1.2-0.2-2.1-0.8l1.1-2.9c0.6,0.3,1.1,0.3,1.5,0.3c2,0,3.2-1.2,4.2-4.1l2.1-5.9l-5.9-13.7
			c-0.9-2-1.5-2.4-3.3-2.4V50h7.9v0.8c-1.2,0.2-1.8,1.1-1.2,2.6L215.2,62.5z"/>
	</g>
	<g>
		<path class="st0" d="M247.4,61.6c0,2,0.2,2.6,0.9,2.6c0.5,0,0.8-0.5,1.1-1.5h0.9c-0.2,2.1-1.4,3.3-3.2,3.3c-1.4,0-2.3-0.8-2.7-2.3
			c-1.7,1.8-2.7,2.3-4.4,2.3c-2.6,0-4.7-2-4.7-4.4c0-4.7,6.4-4.5,9.1-6.1v-1.2c0-2.3-1.4-3.9-3.6-3.9c-1.8,0-3.6,1.2-4.4,3.5
			l-0.9-0.3c0.8-3,3.2-5.2,6.1-5.2c2.7,0,5.9,1.5,5.9,6.1V61.6L247.4,61.6z M244.3,56.5c-3.2,1.4-6.1,1.4-6.1,4.7c0,1.7,1.2,3,2.6,3
			c0.9,0,2.7-0.8,3.3-2.1C244.3,62.1,244.3,56.5,244.3,56.5z"/>
		<path class="st0" d="M269.2,61.8c0,2.1,0.5,2.7,2.7,2.7v0.9h-8.8v-0.8c2.3,0,2.9-0.5,2.9-2.1v-8.6c0-2.7-2-3.8-3.6-3.8
			s-3,1.1-4.7,3.2v8c0,2.6,0.3,3.2,2.7,3.2v0.9h-8.8v-0.8c2.1,0,2.7-0.2,2.7-3.2v-9.3c0-2-0.5-2.4-2.7-2.4V49l5.2-0.5h0.8v3.2
			c2-2.3,3.9-3.3,5.9-3.3c2.7,0,5.6,2,5.6,5.9L269.2,61.8L269.2,61.8z"/>
		<path class="st0" d="M290.7,62.2c0,1.8,0.6,2.4,2.7,2.4v0.8h-9.6c-7,0-9.6-4.7-9.6-8.6c0-4.7,3.5-8.3,7.7-8.3c1.8,0,3.5,0.6,5.6,2
			V40.2c0-2.4-0.6-2.9-2.1-2.9h-0.9v-0.8l5.5-0.6h0.8v26.2H290.7z M287.7,52.2c-1.4-1.8-3.2-2.7-4.9-2.7c-3,0-5,2.7-5,6.7
			s1.8,8.5,7.3,8.5c1.8,0,2.6-0.8,2.6-2.6V52.2L287.7,52.2z"/>
		<path class="st0" d="M315,60.4c0,3.3,0.8,4.2,3,4.2v0.8h-9.6v-0.8c1.8,0,3-0.6,3-4.1V43.7c0-3.3-0.8-4.2-3-4.2v-0.8h9.7
			c7.4,0,10.3,3.9,10.3,7.6c0,4.4-3.3,7-9.4,7c-1.2,0-2.1,0-4.1-0.3L315,60.4L315,60.4z M315,51.8c1.2,0.5,2,0.5,3.3,0.5
			c3.9,0,6.5-2.1,6.5-5.8c0-2.9-1.5-6.7-6.5-6.7H315V51.8z"/>
		<path class="st0" d="M334.6,39.6c0-1.5-0.5-2.3-2.3-2.3h-1.1v-0.8L337,36h0.8v26.2c0,1.8,0.6,2.3,2.6,2.3h0.5v0.9h-9.3v-0.8h0.9
			c1.7,0,2.1-0.8,2.1-3.2L334.6,39.6L334.6,39.6z"/>
		<path class="st0" d="M355.8,61.6c0,2,0.2,2.6,0.9,2.6c0.5,0,0.8-0.5,1.1-1.5h0.8c-0.2,2.1-1.4,3.3-3.2,3.3c-1.4,0-2.3-0.8-2.7-2.3
			c-1.7,1.8-2.7,2.3-4.4,2.3c-2.6,0-4.7-2-4.7-4.4c0-4.7,6.4-4.5,9.1-6.1v-1.2c0-2.3-1.4-3.9-3.6-3.9c-1.8,0-3.6,1.2-4.4,3.5
			l-0.9-0.3c0.8-3,3.2-5.2,6.1-5.2c2.7,0,5.9,1.5,5.9,6.1L355.8,61.6L355.8,61.6z M352.6,56.5c-3.2,1.4-5.9,1.4-5.9,4.7
			c0,1.7,1.2,3,2.6,3c0.9,0,2.7-0.8,3.3-2.1V56.5z"/>
		<path class="st0" d="M377.5,61.8c0,2.1,0.5,2.7,2.7,2.7v0.9h-8.8v-0.8c2.3,0,2.9-0.5,2.9-2.1v-8.6c0-2.7-2-3.8-3.6-3.8
			s-3,1.1-4.7,3.2v8c0,2.6,0.3,3.2,2.7,3.2v0.9h-8.8v-0.8c2.1,0,2.7-0.2,2.7-3.2v-9.3c0-2-0.5-2.4-2.7-2.4V49l5.2-0.5h0.8v3.2
			c2-2.3,3.9-3.3,5.9-3.3c2.7,0,5.6,2,5.6,5.9L377.5,61.8L377.5,61.8z"/>
		<path class="st0" d="M399.3,61.8c0,2.1,0.5,2.7,2.7,2.7v0.9h-8.8v-0.8c2.3,0,2.9-0.5,2.9-2.1v-8.6c0-2.7-2-3.8-3.6-3.8
			s-3,1.1-4.7,3.2v8c0,2.6,0.3,3.2,2.7,3.2v0.9h-8.8v-0.8c2.1,0,2.7-0.2,2.7-3.2v-9.3c0-2-0.5-2.4-2.7-2.4V49l5.2-0.5h0.8v3.2
			c2-2.3,3.9-3.3,5.9-3.3c2.7,0,5.6,2,5.6,5.9L399.3,61.8L399.3,61.8z"/>
		<path class="st0" d="M410.1,62.4c0,1.7,0.5,2.3,2.7,2.3v0.8h-9.1v-0.8c2.6,0,3.2-0.3,3.2-2.3V52.2c0-2.3-0.8-2.4-3.2-2.4V49
			l5.5-0.5h0.8v13.8H410.1z M410.6,41.9c0,1.1-0.9,2.1-2,2.1c-1.1,0-2.1-0.9-2.1-2.1c0-1.2,0.9-2,2.1-2S410.6,40.9,410.6,41.9z"/>
		<path class="st0" d="M432.2,61.8c0,2.1,0.5,2.7,2.7,2.7v0.9h-8.8v-0.8c2.3,0,2.9-0.5,2.9-2.1v-8.6c0-2.7-2-3.8-3.6-3.8
			s-3,1.1-4.7,3.2v8c0,2.6,0.3,3.2,2.7,3.2v0.9h-8.8v-0.8c2.1,0,2.7-0.2,2.7-3.2v-9.3c0-2-0.5-2.4-2.7-2.4V49l5.2-0.5h0.8v3.2
			c2-2.3,3.9-3.3,5.9-3.3c2.7,0,5.6,2,5.6,5.9L432.2,61.8L432.2,61.8z"/>
		<path class="st0" d="M455,50.6h-4.4c1.4,1.5,1.8,3.2,1.8,4.9c0,3.3-2.7,6.4-6.2,6.5c-2.6,0.2-5.3,2.1-5.3,3c0,0.6,0.2,0.6,0.3,0.9
			c1.4,1.5,10,1.5,12.3,3.9c0.9,0.9,1.4,1.8,1.4,2.9c0,3.9-4.6,7-10.2,7c-4.9,0-8.2-2-8.2-5c0-1.8,1.2-3.5,5.3-5.2v-0.2
			c-2.3-0.5-3.6-1.7-3.6-3c0-2,1.8-3.3,5.2-4.5v-0.2c-3.3-0.9-5.2-3.2-5.2-6.2c0-3.9,3-7,7-7c0.6,0,1.4,0,2.1,0.2
			c0.8,0,1.5,0.2,2.1,0.2h5.3v1.8H455z M443.5,69.7c-3,0.9-4.9,2.3-4.9,3.9c0,2.4,3.6,4.1,8.3,4.1c3.6,0,6.2-1.5,6.2-3.6
			C453.2,72.1,451.5,71,443.5,69.7z M445.4,61c2.4,0,4.1-2.1,4.1-5.9c0-3.3-1.7-5.6-4.1-5.6c-2.4,0-4.1,2.3-4.1,5.6
			C441.4,58.6,443,61,445.4,61z"/>
	</g>
</g>
<g>
	<path class="st1" d="M252.5,92.5v0.8c0,1.6-0.6,2.4-1.4,2.4c-0.9,0-1.4-0.9-1.4-2.8c0-1.8,0.5-2.8,1.4-2.8
		C251.9,90.1,252.5,90.9,252.5,92.5z M252.5,84.1v5.4c-0.6-1-1.3-1.5-2.4-1.5c-2.1,0-3.3,1.6-3.3,4.8c0,3.2,1.2,4.8,3.3,4.8
		c1.1,0,1.9-0.5,2.5-1.6c0,0.5,0,1,0.1,1.4h2.6V84.1H252.5z M245.1,91.2c0-2.1-0.9-3.1-2.6-3.1c-1.2,0-2.2,0.6-2.6,1.6
		c0-0.5,0-0.9-0.1-1.4h-2.5c0.1,0.7,0.1,1.4,0.1,2v7.3h2.7v-5.3c0-1.3,0.4-1.9,1.2-1.9c0.7,0,1,0.5,1,1.5v5.7h2.7V91.2z M232.5,93.2
		v0.5c0,1.4-0.5,2.1-1.6,2.1c-0.8,0-1.2-0.5-1.2-1.2c0-1,0.7-1.5,2-1.5C231.9,93.1,232.2,93.1,232.5,93.2z M235.2,92.2
		c0-2.9-0.7-4.2-3.8-4.2c-1,0-2.1,0.2-3.2,0.6l0.1,2.1c0.7-0.6,1.6-0.9,2.4-0.9c1.2,0,1.8,0.5,1.8,1.5v0.3h-0.9
		c-2.9,0-4.4,1.2-4.4,3.2c0,1.7,1.1,2.8,2.7,2.8c1.1,0,2-0.5,2.7-1.4l0.1,1.2h2.5c-0.1-0.6-0.1-1.3-0.1-1.9V92.2z M212.5,88.2
		l3.3,9.5l-0.1,0.4c-0.2,0.8-0.7,1.2-1.5,1.2c-0.1,0-0.4,0-0.7-0.1l-0.2,2c0.6,0.2,1.1,0.2,1.6,0.2c2.1,0,2.8-1.2,3.5-3.4l3.1-9.9
		h-2.6l-1.6,6.8l-1.7-6.8H212.5z M212,88.5c-0.8-0.3-1.5-0.4-2.3-0.4c-2.7,0-4.4,1.8-4.4,4.8c0,3,1.6,4.9,4.2,4.9
		c0.9,0,1.8-0.2,2.6-0.5l-0.1-2.1c-0.6,0.3-1.2,0.5-1.8,0.5c-1.3,0-2-1-2-2.9c0-1.7,0.7-2.5,2.1-2.5c0.5,0,1,0.1,1.6,0.4L212,88.5z
		 M200.8,88.2v9.3h2.7v-9.3H200.8z M200.8,84.2v2.4h2.8v-2.4H200.8z M195.8,84.1v13.4h2.7V84.1H195.8z M189.8,90
		c0.9,0,1.4,1,1.4,2.9c0,1.9-0.5,2.9-1.4,2.9c-0.9,0-1.4-1-1.4-2.9C188.3,91,188.9,90,189.8,90z M189.8,88c-2.7,0-4.3,1.7-4.3,4.8
		c0,3.1,1.6,4.8,4.3,4.8c2.7,0,4.3-1.7,4.3-4.8C194,89.7,192.5,88,189.8,88z M178.5,96.2c0.6,1,1.3,1.5,2.4,1.5
		c2.1,0,3.3-1.6,3.3-4.8c0-3.2-1.2-4.8-3.3-4.8c-1.1,0-1.9,0.5-2.5,1.6c0-0.6,0-1-0.1-1.4h-2.6c0.1,1.4,0.1,2.2,0.1,2.4v10.8h2.7
		V96.2z M178.5,93.3v-0.8c0-1.6,0.6-2.4,1.4-2.4c0.9,0,1.4,0.9,1.4,2.8c0,1.8-0.5,2.8-1.4,2.8C179,95.6,178.5,94.8,178.5,93.3z
		 M160.6,84.1v13.4h2.7v-5.3c0-1.3,0.4-1.9,1.2-1.9c0.7,0,1,0.5,1,1.5v5.7h2.7v-6.3c0-2.1-0.9-3.1-2.6-3.1c-1,0-1.8,0.4-2.3,1.2
		v-5.1H160.6z M157.3,85.5l-2.7,0.8v1.9H153v1.9h1.5v4c0,2.3,0.3,3.5,2.9,3.5c0.5,0,1.1-0.1,1.8-0.2v-2c-0.4,0.1-0.6,0.1-0.9,0.1
		c-0.9,0-1-0.5-1-1.7v-3.9h1.8v-1.9h-1.8V85.5z M149.2,84.1v13.4h2.7V84.1H149.2z M144.4,93.2v0.5c0,1.4-0.5,2.1-1.6,2.1
		c-0.8,0-1.2-0.5-1.2-1.2c0-1,0.7-1.5,2-1.5C143.8,93.1,144.1,93.1,144.4,93.2z M147,92.2c0-2.9-0.7-4.2-3.8-4.2
		c-1,0-2.1,0.2-3.2,0.6l0.1,2.1c0.7-0.6,1.6-0.9,2.4-0.9c1.2,0,1.8,0.5,1.8,1.5v0.3h-0.9c-2.9,0-4.4,1.2-4.4,3.2
		c0,1.7,1.1,2.8,2.7,2.8c1.1,0,2-0.5,2.7-1.4l0.1,1.2h2.5c-0.1-0.6-0.1-1.3-0.1-1.9V92.2z M132.7,93.6h5.2c0-0.2,0-0.4,0-0.6
		c0-3.2-1.5-5-4-5c-2.4,0-4,2-4,4.9c0,3,1.7,4.8,4.6,4.8c0.9,0,1.9-0.2,2.9-0.6l-0.1-2c-0.8,0.5-1.6,0.7-2.4,0.7
		C133.6,95.8,132.9,95.1,132.7,93.6z M135.4,92.1h-2.8c0.1-1.5,0.5-2.2,1.5-2.2c0.8,0,1.3,0.7,1.3,1.8
		C135.5,91.7,135.4,91.9,135.4,92.1z M120.6,84.1v13.4h2.7v-5.3c0-1.3,0.4-1.9,1.2-1.9c0.7,0,1,0.5,1,1.5v5.7h2.7v-6.3
		c0-2.1-0.9-3.1-2.6-3.1c-1,0-1.8,0.4-2.3,1.2v-5.1H120.6z M113.1,91.2c0-2.1-0.9-3.1-2.6-3.1c-1.2,0-2.2,0.6-2.6,1.6
		c0-0.5,0-0.9-0.1-1.4h-2.5c0.1,0.7,0.1,1.4,0.1,2v7.3h2.7v-5.3c0-1.3,0.4-1.9,1.2-1.9c0.7,0,1,0.5,1,1.5v5.7h2.7V91.2z M99.3,90
		c0.9,0,1.4,1,1.4,2.9c0,1.9-0.5,2.9-1.4,2.9c-0.9,0-1.4-1-1.4-2.9C97.9,91,98.5,90,99.3,90z M99.3,88c-2.7,0-4.3,1.7-4.3,4.8
		c0,3.1,1.6,4.8,4.3,4.8c2.7,0,4.3-1.7,4.3-4.8C103.6,89.7,102.1,88,99.3,88z M85.3,84.1v13.4H88V84.1H85.3z M80.4,93.2v0.5
		c0,1.4-0.5,2.1-1.6,2.1c-0.8,0-1.2-0.5-1.2-1.2c0-1,0.7-1.5,2-1.5C79.8,93.1,80.1,93.1,80.4,93.2z M83.1,92.2
		c0-2.9-0.7-4.2-3.8-4.2c-1,0-2.1,0.2-3.2,0.6l0.1,2.1c0.7-0.6,1.6-0.9,2.4-0.9c1.2,0,1.8,0.5,1.8,1.5v0.3h-0.9
		c-2.9,0-4.4,1.2-4.4,3.2c0,1.7,1.1,2.8,2.7,2.8c1.1,0,2-0.5,2.7-1.4l0.1,1.2h2.5c-0.1-0.6-0.1-1.3-0.1-1.9V92.2z M73.7,91.2
		c0-2.1-0.9-3.1-2.6-3.1c-1.2,0-2.2,0.6-2.6,1.6c0-0.5,0-0.9-0.1-1.4h-2.5c0.1,0.7,0.1,1.4,0.1,2v7.3h2.7v-5.3
		c0-1.3,0.4-1.9,1.2-1.9c0.7,0,1,0.5,1,1.5v5.7h2.7V91.2z M64.7,88.1c-0.2,0-0.3,0-0.5,0c-1,0-2,0.7-2.4,1.8v-0.3
		c0-0.4,0-0.9-0.1-1.3h-2.5c0.1,0.7,0.1,1.4,0.1,2v7.3h2.7V93c0-1.7,0.5-2.6,2-2.6c0.2,0,0.4,0,0.6,0.1V88.1z M49.4,88.2v6.4
		c0,2.1,0.9,3.1,2.6,3.1c1.2,0,2.2-0.6,2.6-1.6c0,0.5,0,0.9,0.1,1.4h2.5c-0.1-0.6-0.1-1.3-0.1-2v-7.3h-2.7v5.3
		c0,1.3-0.4,1.9-1.2,1.9c-0.7,0-1-0.5-1-1.5v-5.7H49.4z M43.4,90c0.9,0,1.4,1,1.4,2.9c0,1.9-0.5,2.9-1.4,2.9c-0.9,0-1.4-1-1.4-2.9
		C42,91,42.6,90,43.4,90z M43.4,88c-2.7,0-4.3,1.7-4.3,4.8c0,3.1,1.6,4.8,4.3,4.8c2.7,0,4.3-1.7,4.3-4.8C47.7,89.7,46.2,88,43.4,88z
		 M34.6,88.2v9.3c0,1.3-0.1,1.9-0.9,1.9c-0.1,0-0.3,0-0.5-0.1l-0.1,1.9c0.4,0.1,0.9,0.2,1.3,0.2c2.2,0,2.9-1.3,2.9-3.6v-9.6H34.6z
		 M34.6,84.2v2.4h2.8v-2.4H34.6z M22.3,93.6h5.2c0-0.2,0-0.4,0-0.6c0-3.2-1.5-5-4-5c-2.4,0-4,2-4,4.9c0,3,1.7,4.8,4.6,4.8
		c0.9,0,1.9-0.2,2.9-0.6l-0.1-2c-0.8,0.5-1.6,0.7-2.4,0.7C23.2,95.8,22.5,95.1,22.3,93.6z M25,92.1h-2.8c0.1-1.5,0.5-2.2,1.5-2.2
		c0.8,0,1.3,0.7,1.3,1.8C25.1,91.7,25,91.9,25,92.1z M10.2,84.1v13.4h2.7v-5.3c0-1.3,0.4-1.9,1.2-1.9c0.7,0,1,0.5,1,1.5v5.7h2.7
		v-6.3c0-2.1-0.9-3.1-2.6-3.1c-1,0-1.8,0.4-2.3,1.2v-5.1H10.2z M0.4,85.1v2.2h2.7v10.2H6V87.3h2.7v-2.2H0.4z"/>
	<path class="st1" d="M387.7,84.1v13.4h2.7v-5.3c0-1.3,0.4-1.9,1.2-1.9c0.7,0,1,0.5,1,1.5v5.7h2.7v-6.3c0-2.1-0.9-3.1-2.6-3.1
		c-1,0-1.8,0.4-2.3,1.2v-5.1H387.7z M386.2,88.5c-0.8-0.3-1.5-0.4-2.3-0.4c-2.7,0-4.4,1.8-4.4,4.8c0,3,1.6,4.9,4.2,4.9
		c0.9,0,1.8-0.2,2.6-0.5l-0.1-2.1c-0.6,0.3-1.2,0.5-1.8,0.5c-1.3,0-2-1-2-2.9c0-1.7,0.7-2.5,2.1-2.5c0.5,0,1,0.1,1.6,0.4L386.2,88.5
		z M378.7,88.1c-0.2,0-0.3,0-0.5,0c-1,0-2,0.7-2.4,1.8v-0.3c0-0.4,0-0.9-0.1-1.3h-2.5c0.1,0.7,0.1,1.4,0.1,2v7.3h2.7v-4.5
		c0-1.7,0.5-2.6,2-2.6c0.2,0,0.4,0,0.6,0.1V88.1z M368.6,93.2v0.5c0,1.4-0.5,2.1-1.6,2.1c-0.8,0-1.2-0.5-1.2-1.2c0-1,0.7-1.5,2-1.5
		C368,93.1,368.3,93.1,368.6,93.2z M371.2,92.2c0-2.9-0.7-4.2-3.8-4.2c-1,0-2.1,0.2-3.2,0.6l0.1,2.1c0.7-0.6,1.6-0.9,2.4-0.9
		c1.2,0,1.8,0.5,1.8,1.5v0.3h-0.9c-2.9,0-4.4,1.2-4.4,3.2c0,1.7,1.1,2.8,2.7,2.8c1.1,0,2-0.5,2.7-1.4l0.1,1.2h2.5
		c-0.1-0.6-0.1-1.3-0.1-1.9V92.2z M356.9,93.6h5.2c0-0.2,0-0.4,0-0.6c0-3.2-1.5-5-4-5c-2.4,0-4,2-4,4.9c0,3,1.7,4.8,4.6,4.8
		c0.9,0,1.9-0.2,2.9-0.6l-0.1-2c-0.8,0.5-1.6,0.7-2.4,0.7C357.8,95.8,357.1,95.1,356.9,93.6z M359.6,92.1h-2.8
		c0.1-1.5,0.5-2.2,1.5-2.2c0.8,0,1.3,0.7,1.3,1.8C359.7,91.7,359.6,91.9,359.6,92.1z M352.4,88.4c-0.8-0.3-1.6-0.4-2.4-0.4
		c-2.2,0-3.5,1.1-3.5,3.1c0,1.4,0.7,2,2.3,2.6c1,0.4,1.7,0.6,1.7,1.2c0,0.6-0.5,0.9-1.4,0.9c-0.8,0-1.7-0.3-2.5-0.8l0,2.2
		c0.9,0.3,1.8,0.4,2.5,0.4c2.5,0,3.8-1.1,3.8-3c0-1.8-0.9-2.2-2.5-2.9c-0.9-0.4-1.3-0.5-1.3-1.1c0-0.6,0.4-0.9,1.3-0.9
		c0.7,0,1.4,0.2,2.1,0.6L352.4,88.4z M339.9,93.6h5.2c0-0.2,0-0.4,0-0.6c0-3.2-1.5-5-4-5c-2.4,0-4,2-4,4.9c0,3,1.7,4.8,4.6,4.8
		c0.9,0,1.9-0.2,2.9-0.6l-0.1-2c-0.8,0.5-1.6,0.7-2.4,0.7C340.8,95.8,340,95.1,339.9,93.6z M342.6,92.1h-2.8
		c0.1-1.5,0.5-2.2,1.5-2.2c0.8,0,1.3,0.7,1.3,1.8C342.6,91.7,342.6,91.9,342.6,92.1z M336.4,88.1c-0.2,0-0.3,0-0.5,0
		c-1,0-2,0.7-2.4,1.8v-0.3c0-0.4,0-0.9-0.1-1.3H331c0.1,0.7,0.1,1.4,0.1,2v7.3h2.7v-4.5c0-1.7,0.5-2.6,2-2.6c0.2,0,0.4,0,0.6,0.1
		V88.1z M323.5,88.4c-0.8-0.3-1.6-0.4-2.4-0.4c-2.2,0-3.5,1.1-3.5,3.1c0,1.4,0.7,2,2.3,2.6c1,0.4,1.7,0.6,1.7,1.2
		c0,0.6-0.5,0.9-1.4,0.9c-0.8,0-1.7-0.3-2.5-0.8l0,2.2c0.9,0.3,1.8,0.4,2.5,0.4c2.5,0,3.8-1.1,3.8-3c0-1.8-0.9-2.2-2.5-2.9
		c-0.9-0.4-1.3-0.5-1.3-1.1c0-0.6,0.4-0.9,1.3-0.9c0.7,0,1.4,0.2,2.1,0.6L323.5,88.4z M310.8,89.6c-0.4-1-1.3-1.5-2.5-1.5
		c-1.1,0-2.1,0.6-2.5,1.6c0-0.5,0-0.9-0.1-1.4h-2.5c0.1,0.7,0.1,1.4,0.1,2v7.3h2.7v-5.3c0-1.3,0.4-1.9,1.2-1.9c0.7,0,1,0.5,1,1.5
		v5.7h2.7v-5.3c0-1.3,0.4-1.9,1.2-1.9c0.7,0,1,0.5,1,1.5v5.7h2.7v-6.3c0-2.1-0.9-3.1-2.5-3.1C312.1,88,311.2,88.6,310.8,89.6z
		 M296.3,93.6h5.2c0-0.2,0-0.4,0-0.6c0-3.2-1.5-5-4-5c-2.4,0-4,2-4,4.9c0,3,1.7,4.8,4.6,4.8c0.9,0,1.9-0.2,2.9-0.6l-0.1-2
		c-0.8,0.5-1.6,0.7-2.4,0.7C297.2,95.8,296.4,95.1,296.3,93.6z M299,92.1h-2.8c0.1-1.5,0.5-2.2,1.5-2.2c0.8,0,1.3,0.7,1.3,1.8
		C299,91.7,299,91.9,299,92.1z M290.7,85.5l-2.7,0.8v1.9h-1.5v1.9h1.5v4c0,2.3,0.3,3.5,2.9,3.5c0.5,0,1.1-0.1,1.8-0.2v-2
		c-0.4,0.1-0.6,0.1-0.9,0.1c-0.9,0-1-0.5-1-1.7v-3.9h1.8v-1.9h-1.8V85.5z M285.3,88.4c-0.8-0.3-1.6-0.4-2.4-0.4
		c-2.2,0-3.5,1.1-3.5,3.1c0,1.4,0.7,2,2.3,2.6c1,0.4,1.7,0.6,1.7,1.2c0,0.6-0.5,0.9-1.4,0.9c-0.8,0-1.7-0.3-2.5-0.8l0,2.2
		c0.9,0.3,1.8,0.4,2.5,0.4c2.5,0,3.8-1.1,3.8-3c0-1.8-0.9-2.2-2.5-2.9c-0.9-0.4-1.3-0.5-1.3-1.1c0-0.6,0.4-0.9,1.3-0.9
		c0.7,0,1.4,0.2,2.1,0.6L285.3,88.4z M269.7,88.2l3.3,9.5l-0.1,0.4c-0.2,0.8-0.7,1.2-1.5,1.2c-0.1,0-0.4,0-0.7-0.1l-0.2,2
		c0.6,0.2,1.1,0.2,1.6,0.2c2.1,0,2.8-1.2,3.5-3.4l3.1-9.9H276l-1.6,6.8l-1.7-6.8H269.7z M268.4,88.4c-0.8-0.3-1.6-0.4-2.4-0.4
		c-2.2,0-3.5,1.1-3.5,3.1c0,1.4,0.7,2,2.3,2.6c1,0.4,1.7,0.6,1.7,1.2c0,0.6-0.5,0.9-1.4,0.9c-0.8,0-1.7-0.3-2.5-0.8l0,2.2
		c0.9,0.3,1.8,0.4,2.5,0.4c2.5,0,3.8-1.1,3.8-3c0-1.8-0.9-2.2-2.5-2.9c-0.9-0.4-1.3-0.5-1.3-1.1c0-0.6,0.4-0.9,1.3-0.9
		c0.7,0,1.4,0.2,2.1,0.6L268.4,88.4z"/>
</g>
</svg>
