<?xml version="1.0" encoding="iso-8859-1"?>
<!-- Generator: Adobe Illustrator 19.1.0, SVG Export Plug-In . SVG Version: 6.00 Build 0)  -->
<svg version="1.1" id="Layer_1" xmlns="http://www.w3.org/2000/svg" xmlns:xlink="http://www.w3.org/1999/xlink" x="0px" y="0px"
	 viewBox="0 0 300 106.754" style="enable-background:new 0 0 300 106.754;" xml:space="preserve">
<g>
	<path style="fill:#FFFFFF;" d="M5.275,18.941H0v-3.776h10.189v1.678c0,1.798-0.36,5.455-0.659,7.972h0.18
		c1.199-4.555,2.817-10.19,10.49-10.19c0.42,0,2.877,0.24,3.117,0.479l-0.479,4.435c-0.84-0.3-2.158-0.479-3.357-0.479
		c-6.354,0-9.171,6.234-9.291,11.688L9.95,42.318h5.215v3.776H0.659v-3.776h4.376L5.275,18.941z"/>
	<path style="fill:#FFFFFF;" d="M30.03,31.049c0.18,6.354,2.937,11.688,11.748,11.688c3.357,0,6.714-1.019,9.291-2.338l-0.18,4.256
		c-2.278,1.139-7.073,2.158-10.19,2.158c-9.771,0-15.824-5.334-15.824-16.124c0-9.111,4.915-16.244,14.325-16.244
		c12.228,0,13.367,11.089,13.367,16.604H30.03z M47.413,27.273c0-4.855-3.057-9.051-8.212-9.051c-5.275,0-8.871,3.956-9.171,9.051
		H47.413z"/>
	<path style="fill:#FFFFFF;" d="M80.2,23.736h-4.436l-0.24-4.376c-1.139-0.959-4.016-1.139-5.454-1.139
		c-3.117,0-7.133,1.019-7.133,4.735c0,3.357,2.997,4.376,7.553,5.155c7.852,1.318,11.149,3.716,11.149,8.811
		c0,5.515-3.716,9.89-12.647,9.89c-3.357,0-8.692-0.839-10.61-1.858l-0.24-7.912h4.435l0.24,4.616
		c1.859,0.899,4.975,1.378,7.013,1.378c3.237,0,7.133-1.378,7.133-5.155c0-3.057-3.177-4.136-6.534-4.855
		c-8.272-1.798-12.408-3.237-12.408-9.291c0-4.975,3.297-9.291,12.168-9.291c2.578,0,7.373,0.839,9.771,1.858L80.2,23.736z"/>
	<path style="fill:#FFFFFF;" d="M92.188,31.049c0.18,6.354,2.937,11.688,11.748,11.688c3.357,0,6.714-1.019,9.291-2.338l-0.18,4.256
		c-2.278,1.139-7.073,2.158-10.19,2.158c-9.771,0-15.824-5.334-15.824-16.124c0-9.111,4.915-16.244,14.325-16.244
		c12.228,0,13.367,11.089,13.367,16.604H92.188z M109.572,27.273c0-4.855-3.057-9.051-8.212-9.051c-5.275,0-8.871,3.956-9.171,9.051
		H109.572z"/>
	<path style="fill:#FFFFFF;" d="M126.415,24.276h-4.435v-7.433c3.417-1.379,7.073-2.398,10.849-2.398
		c7.972,0,12.228,2.937,12.228,11.149c0,2.698-0.36,11.149-0.36,16.723h4.435v3.776h-8.871v-1.259c0-1.798,0.36-4.256,0.599-5.454
		h-0.12c-1.858,4.975-4.915,7.432-10.37,7.432c-3.536,0-9.59-1.318-9.59-8.871c0-8.632,9.231-9.471,19.6-9.471v-2.218
		c0-5.814-2.217-8.032-7.073-8.032c-1.738,0-4.675,0.3-6.893,1.259V24.276z M140.381,31.888c-7.313,0-14.686,0-14.686,5.814
		c0,3.476,2.638,5.334,5.815,5.334C134.867,43.037,140.381,41.179,140.381,31.888z"/>
	<path style="fill:#FFFFFF;" d="M158.303,18.941h-5.275v-3.776h10.189v1.678c0,1.798-0.36,5.455-0.659,7.972h0.18
		c1.199-4.555,2.817-10.19,10.49-10.19c0.42,0,2.877,0.24,3.117,0.479l-0.479,4.435c-0.84-0.3-2.158-0.479-3.357-0.479
		c-6.354,0-9.171,6.234-9.291,11.688l-0.24,11.569h5.215v3.776h-14.506v-3.776h4.376L158.303,18.941z"/>
	<path style="fill:#FFFFFF;" d="M202.658,45.315c-2.397,0.719-5.514,1.498-8.931,1.498c-12.228,0-16.124-8.092-16.124-16.184
		c0-11.808,8.571-16.184,15.465-16.184c3.417,0,6.833,0.42,10.01,1.559v8.092h-4.435v-4.855c-1.318-0.479-3.776-0.719-5.155-0.719
		c-8.931,0-10.729,7.073-10.729,12.108c0,1.678,0.24,12.108,11.748,12.108c3.057,0,5.515-0.839,8.392-1.738L202.658,45.315z"/>
	<path style="fill:#FFFFFF;" d="M211.649,3.776h-5.994V0h10.909l-0.06,16.244c0,1.379-0.36,4.436-0.599,5.754h0.12
		c1.318-4.675,6.294-7.553,10.969-7.553c8.511,0,10.61,5.755,10.61,11.629c0,5.275-0.24,11.449-0.24,16.244h4.555v3.776h-13.427
		v-3.776h3.956c0-4.795,0.24-9.83,0.24-14.805c0-2.997-0.12-8.991-7.012-8.991c-4.376,0-9.171,2.637-9.171,11.029l-0.18,12.767
		h4.555v3.776h-13.906v-3.776h4.435L211.649,3.776z"/>
</g>
<g>
	<path style="fill:#FFFFFF;" d="M5.814,90.99c0.18,6.354,2.937,11.688,11.748,11.688c3.357,0,6.714-1.019,9.291-2.338l-0.18,4.256
		c-2.278,1.139-7.073,2.158-10.19,2.158c-9.771,0-15.824-5.334-15.824-16.124c0-9.111,4.915-16.244,14.325-16.244
		c12.228,0,13.367,11.089,13.367,16.604H5.814z M23.197,87.214c0-4.855-3.057-9.051-8.212-9.051c-5.275,0-8.871,3.956-9.171,9.051
		H23.197z"/>
	<path style="fill:#FFFFFF;" d="M29.431,75.106h12.707v3.776h-3.716l7.133,19.84c0.3,0.839,0.479,1.738,0.66,2.638h0.12
		c0.18-0.899,0.36-1.798,0.659-2.638l7.313-19.84h-4.016v-3.776h12.348v3.776h-3.417l-10.67,27.153h-4.915L32.908,78.882h-3.477
		V75.106z"/>
	<path style="fill:#FFFFFF;" d="M71.389,84.217h-4.435v-7.433c3.417-1.379,7.073-2.398,10.849-2.398
		c7.972,0,12.228,2.937,12.228,11.149c0,2.698-0.36,11.149-0.36,16.724h4.435v3.776h-8.871v-1.259c0-1.798,0.36-4.256,0.599-5.454
		h-0.12c-1.858,4.975-4.915,7.432-10.37,7.432c-3.536,0-9.59-1.318-9.59-8.871c0-8.632,9.231-9.471,19.6-9.471v-2.218
		c0-5.814-2.217-8.032-7.073-8.032c-1.738,0-4.675,0.3-6.893,1.259V84.217z M85.355,91.829c-7.313,0-14.686,0-14.686,5.814
		c0,3.476,2.638,5.334,5.815,5.334C79.841,102.978,85.355,101.12,85.355,91.829z"/>
	<path style="fill:#FFFFFF;" d="M103.277,63.717h-5.994v-3.776h10.909l-0.24,42.318h4.915v3.776H98.602v-3.776h4.435L103.277,63.717
		z"/>
	<path style="fill:#FFFFFF;" d="M115.923,75.106h9.89c0,5.634-0.24,11.209-0.24,18.282c0,4.496,0.839,9.291,6.833,9.291
		c8.991,0,9.111-9.77,9.111-14.206v-9.59h-4.855v-3.776h9.89l-0.24,27.153h4.316v3.776h-9.171c0-1.199,0.06-2.877,0.18-3.716
		l0.479-3.117h-0.12c-1.318,3.656-5.155,7.553-10.429,7.553c-8.872,0-10.909-5.634-10.909-12.647c0-5.634,0.18-10.43,0.24-15.225
		h-4.976V75.106z"/>
	<path style="fill:#FFFFFF;" d="M161.778,84.217h-4.435v-7.433c3.417-1.379,7.073-2.398,10.849-2.398
		c7.972,0,12.228,2.937,12.228,11.149c0,2.698-0.36,11.149-0.36,16.724h4.435v3.776h-8.871v-1.259c0-1.798,0.36-4.256,0.599-5.454
		h-0.12c-1.858,4.975-4.915,7.432-10.37,7.432c-3.536,0-9.59-1.318-9.59-8.871c0-8.632,9.231-9.471,19.6-9.471v-2.218
		c0-5.814-2.217-8.032-7.073-8.032c-1.738,0-4.675,0.3-6.893,1.259V84.217z M175.744,91.829c-7.313,0-14.686,0-14.686,5.814
		c0,3.476,2.638,5.334,5.815,5.334C170.23,102.978,175.744,101.12,175.744,91.829z"/>
	<path style="fill:#FFFFFF;" d="M188.511,75.106h4.975l0.24-7.553l4.915-0.3l-0.24,7.852h9.711v3.776h-9.771
		c-0.12,5.155-0.24,10.37-0.24,15.525c0,4.435,0,8.272,4.735,8.272c2.518,0,4.796-0.719,6.114-1.259l-0.18,3.896
		c-1.559,0.779-4.435,1.438-6.953,1.438c-8.631,0-8.631-6.174-8.631-10.13c0-3.776,0.18-13.247,0.24-17.742h-4.915V75.106z"/>
	<path style="fill:#FFFFFF;" d="M216.443,78.882h-5.635v-3.776h10.55l-0.24,27.153h4.915v3.776h-14.745v-3.776h4.915L216.443,78.882
		z M218.301,59.461c2.038,0,3.716,1.678,3.716,3.716c0,2.038-1.678,3.716-3.716,3.716c-2.038,0-3.716-1.678-3.716-3.716
		C214.585,61.14,216.264,59.461,218.301,59.461z"/>
	<path style="fill:#FFFFFF;" d="M245.095,74.386c9.41,0,14.985,6.474,14.985,15.345c0,9.831-5.575,17.023-14.985,17.023
		c-9.411,0-14.985-6.473-14.985-15.345C230.11,81.579,235.684,74.386,245.095,74.386z M245.095,102.678
		c6.593,0,9.83-5.395,9.83-12.108c0-6.714-3.237-12.108-9.83-12.108c-6.594,0-9.831,5.394-9.831,12.108
		C235.264,97.284,238.501,102.678,245.095,102.678z"/>
	<path style="fill:#FFFFFF;" d="M286.573,102.259h3.956c0-4.795,0.24-9.83,0.24-14.805c0-2.997-0.12-8.991-7.012-8.991
		c-4.376,0-9.171,2.637-9.171,11.029l-0.12,12.767h4.495v3.776h-13.426v-3.776h3.956l0.24-23.377h-4.975v-3.776h9.89
		c0,1.199-0.06,2.877-0.18,3.716l-0.479,3.117h0.12c1.318-4.675,6.294-7.553,10.969-7.553c8.511,0,10.61,5.755,10.61,11.629
		c0,5.275-0.24,11.449-0.24,16.244H300v3.776h-13.427V102.259z"/>
</g>
</svg>
