<?xml version="1.0" encoding="utf-8"?>
<!-- Generator: Adobe Illustrator 18.1.1, SVG Export Plug-In . SVG Version: 6.00 Build 0)  -->
<svg version="1.1" id="Layer_1" xmlns="http://www.w3.org/2000/svg" xmlns:xlink="http://www.w3.org/1999/xlink" x="0px" y="0px"
	 viewBox="0 0 368.7 132" enable-background="new 0 0 368.7 132" xml:space="preserve">
<path fill="#4A0D66" d="M26.5,71.2c-4.8,0-8.1-0.1-11.4-0.3v34.8H3.9V29.1h30.3c20.5,0,24.4,12,24.4,19.6
	C58.5,66.5,39,71.2,26.5,71.2L26.5,71.2z M29.4,35.5H15.1v31.3c0,0,2.3,0.1,3.4,0.1c12,0,28.4-3.7,28.4-17.6
	C46.9,41.5,41.8,35.5,29.4,35.5L29.4,35.5z M103.7,105.6V67.6c0-10.3-7-12.1-11.7-12.1c-7.3,0-13,4.1-16.4,9.5v40.7H65V29.1h10.6
	v29.6C81,52.3,87,48.2,96.2,48.2c10.9,0,18,6.4,18,15.8v41.7H103.7L103.7,105.6z M151.4,105.1c-5.5,11.6-12.5,22.9-27.7,22.9
	c-0.7,0-1.4,0-2.1-0.1v-2.9c12.5-3.3,17.4-12.8,21.7-22l1.2-2.5l-22.9-50h11.7L150,88.9l18.1-38.5h9.1L151.4,105.1L151.4,105.1z
	 M205.3,55.1c-4.3,0-12.8,1.7-12.8,8.5c0,4.8,4.2,7.2,13.2,9.5l2.9,0.8c13.7,3.6,17.9,9.5,17.9,16.6c0,8.2-6.5,17.5-23.7,17.5
	c-13.3,0-22.5-6.5-24-17L182,90c1.7,3.1,7.7,11.1,20.5,11.1c6,0,13.2-2.4,13.2-9.2c0-5.3-3.4-7.7-11.8-10.2l-6.7-2
	c-5.1-1.5-15.2-4.7-15.2-15c0-9.1,7.8-16.6,21.5-16.6c11.8,0,20.8,5.4,21.9,15.4l-3.1,1C219.9,60.2,214.7,55.1,205.3,55.1
	L205.3,55.1z M247.5,105.6h-10.6V50.4h10.6V105.6L247.5,105.6z M291.8,55.2c-13.5,0-19.8,11.2-19.8,22.7c0,13.3,7.8,22.8,19.5,22.8
	c8.5,0,15.3-4.9,19.1-11.7l3.1,1c-2.9,11.5-11.7,18-24.8,18c-18.2,0-28.1-13-28.1-29.1c0-16.8,10.2-30.7,29.1-30.7
	c11.4,0,22.3,6.1,23.8,17.7l-3.1,1C306.6,59.7,300.5,55.2,291.8,55.2L291.8,55.2z M344.5,55.1c-4.3,0-12.8,1.7-12.8,8.5
	c0,4.8,4.2,7.2,13.2,9.5l2.9,0.8c13.7,3.6,17.9,9.5,17.9,16.6c0,8.2-6.5,17.5-23.7,17.5c-13.3,0-22.5-6.5-24-17l3.1-0.9
	c1.7,3.1,7.7,11.1,20.5,11.1c6,0,13.2-2.4,13.2-9.2c0-5.3-3.4-7.7-11.8-10.2l-6.7-2c-5.1-1.5-15.2-4.7-15.2-15
	c0-9.1,7.8-16.6,21.5-16.6c11.8,0,20.8,5.4,21.9,15.4l-3.1,1C359,60.2,353.9,55.1,344.5,55.1L344.5,55.1z"/>
<path fill="#4A0D66" d="M364.2,27.3H272C272,27.3,312.5-27.7,364.2,27.3z"/>
<path fill="#4A0D66" d="M274.1,27.3H206C206,27.3,236.5,64.3,274.1,27.3z"/>
<path fill="#4A0D66" d="M173.4,27.3h34.5C207.9,27.3,191.3,8.3,173.4,27.3z"/>
</svg>
