<?xml version="1.0" encoding="utf-8"?>
<!-- Generator: Adobe Illustrator 19.2.1, SVG Export Plug-In . SVG Version: 6.00 Build 0)  -->
<svg version="1.1" id="Layer_1" xmlns="http://www.w3.org/2000/svg" xmlns:xlink="http://www.w3.org/1999/xlink" x="0px" y="0px"
	 viewBox="0 0 300 21.2" style="enable-background:new 0 0 300 21.2;" xml:space="preserve">
<style type="text/css">
	.st0{fill:#4E2560;}
	.st1{fill:#FFFFFF;}
</style>
<path class="st0" d="M8.2,0.3v3.8H4.1v4.4h3.7v3.8H4.1v8.5H0V0.3H8.2z"/>
<path class="st0" d="M18.6,0.3v3.8h-4.1v4.5h3.6v3.8h-3.6V17h4.2v3.8h-8.2V0.3H18.6z"/>
<path class="st0" d="M27.2,0.3l2,12.1h0.1l1.6-12.1h5.4l2.1,20.5h-4.2l-1-14.8h-0.1l-0.7,5.1l-1.7,9.7h-3.1l-2-9.8l-0.7-4.6V6.1H25
	l-0.6,14.8h-4.4l1.8-20.5H27.2z"/>
<path class="st0" d="M48.7,4.9c-0.8-0.7-1.8-1.3-2.9-1.3c-1.3,0-2,0.8-2,2c0,3.4,6.2,3.6,6.2,9.1c0,3.6-2.1,6.4-5.9,6.4
	c-1.1,0-2.6-0.4-3.5-1v-3.9c1,0.7,1.9,1.1,3.1,1.1c1.3,0,2.3-0.9,2.3-2.2c0-1.6-1.3-2.2-2.4-3C41.2,10.6,39.8,9,39.8,6
	c0-3.2,1.9-6,5.4-6c1.3,0,2.5,0.4,3.6,1V4.9z"/>
<g>
	<path class="st1" d="M64.7,0.3l2,12.1h0.1l1.6-12.1h5.4L76,20.8h-4.2l-1-14.8h-0.1l-0.7,5.1l-1.7,9.7h-3.1l-2-9.8l-0.7-4.6V6.1
		h-0.1L62,20.8h-4.4l1.8-20.5H64.7z"/>
	<path class="st1" d="M81.9,0.3v20.5h-4.1V0.3H81.9z"/>
	<path class="st1" d="M94.7,4.2c-0.5-0.1-1-0.2-1.5-0.2c-3.6,0-5.1,3.2-5.1,6.4c0,3,1.6,6.8,5.1,6.8c0.5,0,1-0.1,1.6-0.3v3.8
		c-0.6,0.2-1.2,0.4-1.9,0.4c-5.8,0-9.1-5.3-9.1-10.7c0-5.1,3.4-10.3,8.9-10.3c0.7,0,1.4,0.1,2.1,0.4V4.2z"/>
	<path class="st1" d="M96.5,20.8V0.3h4.1c2.6,0,7.2,0.3,7.2,5.9c0,2.3-0.9,4.2-2.9,5.3l3.6,9.3h-4.3l-3.6-9.5h-0.1v9.5H96.5z
		 M100.6,9.1l0.7,0c1.8,0,2.6-1.3,2.6-2.9c0-1.5-0.7-2.7-2.7-2.6h-0.5V9.1z"/>
	<path class="st1" d="M124.4,10.6c0,7.7-3.6,10.6-7.2,10.6c-3.6,0-7.2-2.9-7.2-10.6c0-7.7,3.6-10.6,7.2-10.6
		C120.8,0,124.4,2.9,124.4,10.6z M117.2,17.4c2.7,0,2.9-5.2,2.9-6.8c0-1.8-0.2-6.8-2.9-6.8c-2.7,0-2.9,5-2.9,6.8
		C114.3,12.2,114.5,17.4,117.2,17.4z"/>
	<path class="st1" d="M126.3,20.8V0.3h4c1.6,0,2.9,0.1,4.2,1.1c1.4,1.1,2.1,2.9,2.1,4.6c0,1.8-0.7,3.2-2.2,4.2
		c1.7,0.8,2.5,3,2.5,4.8c0,4.1-3,5.8-6.7,5.8H126.3z M130.4,3.7v5c1.5,0,2.4-1,2.4-2.6C132.8,4.7,131.9,3.6,130.4,3.7z M130.4,11.9
		v5.5c1.6,0.1,2.6-1.1,2.6-2.8C132.9,13,132,11.8,130.4,11.9z"/>
	<path class="st1" d="M143.1,0.3v20.5h-4.1V0.3H143.1z"/>
	<path class="st1" d="M159.5,10.6c0,7.7-3.6,10.6-7.2,10.6c-3.6,0-7.2-2.9-7.2-10.6c0-7.7,3.6-10.6,7.2-10.6
		C155.9,0,159.5,2.9,159.5,10.6z M152.2,17.4c2.7,0,2.9-5.2,2.9-6.8c0-1.8-0.2-6.8-2.9-6.8c-2.7,0-2.9,5-2.9,6.8
		C149.4,12.2,149.6,17.4,152.2,17.4z"/>
	<path class="st1" d="M165.4,0.3V17h4.2v3.8h-8.3V0.3H165.4z"/>
	<path class="st1" d="M184.9,10.6c0,7.7-3.6,10.6-7.2,10.6c-3.6,0-7.2-2.9-7.2-10.6c0-7.7,3.6-10.6,7.2-10.6
		C181.3,0,184.9,2.9,184.9,10.6z M177.7,17.4c2.7,0,2.9-5.2,2.9-6.8c0-1.8-0.2-6.8-2.9-6.8c-2.7,0-2.9,5-2.9,6.8
		C174.8,12.2,175,17.4,177.7,17.4z"/>
	<path class="st1" d="M200,9.4V11c0,4.4-1.1,10.1-6.6,10.1c-5.5,0-7.3-5.9-7.3-10.5c0-4.7,1.5-10.7,7.3-10.7c3.1,0,5.2,2,6,4.9
		l-3.9,1.5c-0.2-1-0.5-2.6-2.1-2.6c-2.7-0.2-3,4.9-3,6.8c0,2.1,0.1,6.8,3.1,6.8c2.1,0,2.4-2.8,2.4-4.2h-2.6V9.4H200z"/>
	<path class="st1" d="M205,0.3l2.1,5.6l0.3,1h0.1l0.5-1.5l1.8-5.1h4.5L209.5,11v9.8h-4.1V11l-4.9-10.7H205z"/>
	<path class="st1" d="M226.6,0.3V17h4.2v3.8h-8.3V0.3H226.6z"/>
	<path class="st1" d="M240.6,0.3v3.8h-4.1v4.5h3.6v3.8h-3.6V17h4.2v3.8h-8.2V0.3H240.6z"/>
	<path class="st1" d="M252.3,0.3v3.8h-3.2v16.7H245V4.1h-3.2V0.3H252.3z"/>
	<path class="st1" d="M264.2,0.3v3.8H261v16.7h-4.1V4.1h-3.2V0.3H264.2z"/>
	<path class="st1" d="M274,0.3v3.8h-4.1v4.5h3.6v3.8h-3.6V17h4.2v3.8h-8.2V0.3H274z"/>
	<path class="st1" d="M276.2,20.8V0.3h4.1c2.6,0,7.2,0.3,7.2,5.9c0,2.3-0.9,4.2-2.9,5.3l3.6,9.3h-4.3l-3.6-9.5h-0.1v9.5H276.2z
		 M280.3,9.1l0.7,0c1.8,0,2.6-1.3,2.6-2.9c0-1.5-0.7-2.7-2.7-2.6h-0.5V9.1z"/>
	<path class="st1" d="M298.8,4.9c-0.8-0.7-1.8-1.3-2.9-1.3c-1.3,0-2,0.8-2,2c0,3.4,6.2,3.6,6.2,9.1c0,3.6-2.1,6.4-5.9,6.4
		c-1.1,0-2.6-0.4-3.5-1v-3.9c1,0.7,1.9,1.1,3.1,1.1c1.3,0,2.3-0.9,2.3-2.2c0-1.6-1.3-2.2-2.4-3c-2.3-1.6-3.8-3.1-3.8-6.1
		c0-3.2,1.9-6,5.4-6c1.3,0,2.5,0.4,3.6,1V4.9z"/>
</g>
</svg>
