<?xml version="1.0" encoding="utf-8"?>
<!-- Generator: Adobe Illustrator 21.0.0, SVG Export Plug-In . SVG Version: 6.00 Build 0)  -->
<svg version="1.1" id="Layer_1" xmlns="http://www.w3.org/2000/svg" xmlns:xlink="http://www.w3.org/1999/xlink" x="0px" y="0px"
	 viewBox="0 0 28 27.1" style="enable-background:new 0 0 28 27.1;" xml:space="preserve">
<style type="text/css">
	.st0{display:none;}
	.st1{display:inline;fill:none;stroke:#BCBEC0;stroke-width:0.25;stroke-miterlimit:10;}
</style>
<title>download2</title>
<g id="Layer_2">
	<g id="grid" class="st0">
		<rect x="1.1" y="0.3" class="st1" width="2.4" height="2.4"/>
		<rect x="3.5" y="0.3" class="st1" width="2.4" height="2.4"/>
		<rect x="5.9" y="0.3" class="st1" width="2.4" height="2.4"/>
		<rect x="8.2" y="0.3" class="st1" width="2.4" height="2.4"/>
		<rect x="10.6" y="0.3" class="st1" width="2.4" height="2.4"/>
		<rect x="13" y="0.3" class="st1" width="2.4" height="2.4"/>
		<rect x="15.3" y="0.3" class="st1" width="2.4" height="2.4"/>
		<rect x="17.7" y="0.3" class="st1" width="2.4" height="2.4"/>
		<rect x="20.1" y="0.3" class="st1" width="2.4" height="2.4"/>
		<rect x="22.4" y="0.3" class="st1" width="2.4" height="2.4"/>
		<rect x="24.8" y="0.3" class="st1" width="2.4" height="2.4"/>
		<rect x="1.1" y="2.7" class="st1" width="2.4" height="2.4"/>
		<rect x="3.5" y="2.7" class="st1" width="2.4" height="2.4"/>
		<rect x="5.9" y="2.7" class="st1" width="2.4" height="2.4"/>
		<rect x="8.2" y="2.7" class="st1" width="2.4" height="2.4"/>
		<rect x="10.6" y="2.7" class="st1" width="2.4" height="2.4"/>
		<rect x="13" y="2.7" class="st1" width="2.4" height="2.4"/>
		<rect x="15.3" y="2.7" class="st1" width="2.4" height="2.4"/>
		<rect x="17.7" y="2.7" class="st1" width="2.4" height="2.4"/>
		<rect x="20.1" y="2.7" class="st1" width="2.4" height="2.4"/>
		<rect x="22.4" y="2.7" class="st1" width="2.4" height="2.4"/>
		<rect x="24.8" y="2.7" class="st1" width="2.4" height="2.4"/>
		<rect x="1.1" y="5" class="st1" width="2.4" height="2.4"/>
		<rect x="3.5" y="5" class="st1" width="2.4" height="2.4"/>
		<rect x="5.9" y="5" class="st1" width="2.4" height="2.4"/>
		<rect x="8.2" y="5" class="st1" width="2.4" height="2.4"/>
		<rect x="10.6" y="5" class="st1" width="2.4" height="2.4"/>
		<rect x="13" y="5" class="st1" width="2.4" height="2.4"/>
		<rect x="15.3" y="5" class="st1" width="2.4" height="2.4"/>
		<rect x="17.7" y="5" class="st1" width="2.4" height="2.4"/>
		<rect x="20.1" y="5" class="st1" width="2.4" height="2.4"/>
		<rect x="22.4" y="5" class="st1" width="2.4" height="2.4"/>
		<rect x="24.8" y="5" class="st1" width="2.4" height="2.4"/>
		<rect x="1.1" y="7.4" class="st1" width="2.4" height="2.4"/>
		<rect x="3.5" y="7.4" class="st1" width="2.4" height="2.4"/>
		<rect x="5.9" y="7.4" class="st1" width="2.4" height="2.4"/>
		<rect x="8.2" y="7.4" class="st1" width="2.4" height="2.4"/>
		<rect x="10.6" y="7.4" class="st1" width="2.4" height="2.4"/>
		<rect x="13" y="7.4" class="st1" width="2.4" height="2.4"/>
		<rect x="15.3" y="7.4" class="st1" width="2.4" height="2.4"/>
		<rect x="17.7" y="7.4" class="st1" width="2.4" height="2.4"/>
		<rect x="20.1" y="7.4" class="st1" width="2.4" height="2.4"/>
		<rect x="22.4" y="7.4" class="st1" width="2.4" height="2.4"/>
		<rect x="24.8" y="7.4" class="st1" width="2.4" height="2.4"/>
		<rect x="1.1" y="9.8" class="st1" width="2.4" height="2.4"/>
		<rect x="3.5" y="9.8" class="st1" width="2.4" height="2.4"/>
		<rect x="5.9" y="9.8" class="st1" width="2.4" height="2.4"/>
		<rect x="8.2" y="9.8" class="st1" width="2.4" height="2.4"/>
		<rect x="10.6" y="9.8" class="st1" width="2.4" height="2.4"/>
		<rect x="13" y="9.8" class="st1" width="2.4" height="2.4"/>
		<rect x="15.3" y="9.8" class="st1" width="2.4" height="2.4"/>
		<rect x="17.7" y="9.8" class="st1" width="2.4" height="2.4"/>
		<rect x="20.1" y="9.8" class="st1" width="2.4" height="2.4"/>
		<rect x="22.4" y="9.8" class="st1" width="2.4" height="2.4"/>
		<rect x="24.8" y="9.8" class="st1" width="2.4" height="2.4"/>
		<rect x="1.1" y="12.1" class="st1" width="2.4" height="2.4"/>
		<rect x="3.5" y="12.1" class="st1" width="2.4" height="2.4"/>
		<rect x="5.9" y="12.1" class="st1" width="2.4" height="2.4"/>
		<rect x="8.2" y="12.1" class="st1" width="2.4" height="2.4"/>
		<rect x="10.6" y="12.1" class="st1" width="2.4" height="2.4"/>
		<rect x="13" y="12.1" class="st1" width="2.4" height="2.4"/>
		<rect x="15.3" y="12.1" class="st1" width="2.4" height="2.4"/>
		<rect x="17.7" y="12.1" class="st1" width="2.4" height="2.4"/>
		<rect x="20.1" y="12.1" class="st1" width="2.4" height="2.4"/>
		<rect x="22.4" y="12.1" class="st1" width="2.4" height="2.4"/>
		<rect x="24.8" y="12.1" class="st1" width="2.4" height="2.4"/>
		<rect x="1.1" y="14.5" class="st1" width="2.4" height="2.4"/>
		<rect x="3.5" y="14.5" class="st1" width="2.4" height="2.4"/>
		<rect x="5.9" y="14.5" class="st1" width="2.4" height="2.4"/>
		<rect x="8.2" y="14.5" class="st1" width="2.4" height="2.4"/>
		<rect x="10.6" y="14.5" class="st1" width="2.4" height="2.4"/>
		<rect x="13" y="14.5" class="st1" width="2.4" height="2.4"/>
		<rect x="15.3" y="14.5" class="st1" width="2.4" height="2.4"/>
		<rect x="17.7" y="14.5" class="st1" width="2.4" height="2.4"/>
		<rect x="20.1" y="14.5" class="st1" width="2.4" height="2.4"/>
		<rect x="22.4" y="14.5" class="st1" width="2.4" height="2.4"/>
		<rect x="24.8" y="14.5" class="st1" width="2.4" height="2.4"/>
		<rect x="1.1" y="16.8" class="st1" width="2.4" height="2.4"/>
		<rect x="3.5" y="16.8" class="st1" width="2.4" height="2.4"/>
		<rect x="5.9" y="16.8" class="st1" width="2.4" height="2.4"/>
		<rect x="8.2" y="16.8" class="st1" width="2.4" height="2.4"/>
		<rect x="10.6" y="16.8" class="st1" width="2.4" height="2.4"/>
		<rect x="13" y="16.8" class="st1" width="2.4" height="2.4"/>
		<rect x="15.3" y="16.8" class="st1" width="2.4" height="2.4"/>
		<rect x="17.7" y="16.8" class="st1" width="2.4" height="2.4"/>
		<rect x="20.1" y="16.8" class="st1" width="2.4" height="2.4"/>
		<rect x="22.4" y="16.8" class="st1" width="2.4" height="2.4"/>
		<rect x="24.8" y="16.8" class="st1" width="2.4" height="2.4"/>
		<rect x="1.1" y="19.2" class="st1" width="2.4" height="2.4"/>
		<rect x="3.5" y="19.2" class="st1" width="2.4" height="2.4"/>
		<rect x="5.9" y="19.2" class="st1" width="2.4" height="2.4"/>
		<rect x="8.2" y="19.2" class="st1" width="2.4" height="2.4"/>
		<rect x="10.6" y="19.2" class="st1" width="2.4" height="2.4"/>
		<rect x="13" y="19.2" class="st1" width="2.4" height="2.4"/>
		<rect x="15.3" y="19.2" class="st1" width="2.4" height="2.4"/>
		<rect x="17.7" y="19.2" class="st1" width="2.4" height="2.4"/>
		<rect x="20.1" y="19.2" class="st1" width="2.4" height="2.4"/>
		<rect x="22.4" y="19.2" class="st1" width="2.4" height="2.4"/>
		<rect x="24.8" y="19.2" class="st1" width="2.4" height="2.4"/>
		<rect x="1.1" y="21.6" class="st1" width="2.4" height="2.4"/>
		<rect x="3.5" y="21.6" class="st1" width="2.4" height="2.4"/>
		<rect x="5.9" y="21.6" class="st1" width="2.4" height="2.4"/>
		<rect x="8.2" y="21.6" class="st1" width="2.4" height="2.4"/>
		<rect x="10.6" y="21.6" class="st1" width="2.4" height="2.4"/>
		<rect x="13" y="21.6" class="st1" width="2.4" height="2.4"/>
		<rect x="15.3" y="21.6" class="st1" width="2.4" height="2.4"/>
		<rect x="17.7" y="21.6" class="st1" width="2.4" height="2.4"/>
		<rect x="20.1" y="21.6" class="st1" width="2.4" height="2.4"/>
		<rect x="22.4" y="21.6" class="st1" width="2.4" height="2.4"/>
		<rect x="24.8" y="21.6" class="st1" width="2.4" height="2.4"/>
		<rect x="1.1" y="23.9" class="st1" width="2.4" height="2.4"/>
		<rect x="3.5" y="23.9" class="st1" width="2.4" height="2.4"/>
		<rect x="5.9" y="23.9" class="st1" width="2.4" height="2.4"/>
		<rect x="8.2" y="23.9" class="st1" width="2.4" height="2.4"/>
		<rect x="10.6" y="23.9" class="st1" width="2.4" height="2.4"/>
		<rect x="13" y="23.9" class="st1" width="2.4" height="2.4"/>
		<rect x="15.3" y="23.9" class="st1" width="2.4" height="2.4"/>
		<rect x="17.7" y="23.9" class="st1" width="2.4" height="2.4"/>
		<rect x="20.1" y="23.9" class="st1" width="2.4" height="2.4"/>
		<rect x="22.4" y="23.9" class="st1" width="2.4" height="2.4"/>
		<rect x="24.8" y="23.9" class="st1" width="2.4" height="2.4"/>
	</g>
	<g id="Layer_1-2">
		<polygon points="18.1,20 16.8,18.7 14.7,20.8 14.7,0 12.8,0 12.8,20.5 11,18.7 9.7,20 13.9,24.2 		"/>
		<polygon points="26.1,21.5 26.1,25.2 1.8,25.2 1.8,21.5 0,21.5 0,27 28,27 28,21.5 		"/>
	</g>
</g>
</svg>
