<svg xmlns="http://www.w3.org/2000/svg" viewBox="0 0 25.19 16"><title>Asset 1</title><g id="Layer_2" data-name="Layer 2"><g id="Layer_1-2" data-name="Layer 1"><path d="M8,6.86c0,.91,0,1.82,0,2.73,1.52,0,3.05,0,4.58,0-.67,3.38-5.27,4.48-7.7,2.27a5.12,5.12,0,0,1,.22-8,5.28,5.28,0,0,1,6.22.16,28.47,28.47,0,0,0,2-2.1A8.11,8.11,0,0,0,8,0,8,8,0,0,0,5.1,15.46c3.12,1.2,7.11.38,9.1-2.42a9.17,9.17,0,0,0,1.44-6.18C13.1,6.84,10.55,6.85,8,6.86Z"/><path d="M22.9,6.84c0-.76,0-1.52,0-2.28H20.62c0,.76,0,1.52,0,2.28l-2.28,0V9.13l2.28,0c0,.76,0,1.52,0,2.28h2.28c0-.76,0-1.52,0-2.28l2.28,0V6.86Z"/></g></g></svg>