<?xml version="1.0" encoding="utf-8"?>
<!-- Generator: Adobe Illustrator 21.0.0, SVG Export Plug-In . SVG Version: 6.00 Build 0)  -->
<svg version="1.1" id="Layer_1" xmlns="http://www.w3.org/2000/svg" xmlns:xlink="http://www.w3.org/1999/xlink" x="0px" y="0px"
	 viewBox="0 0 18.5 19.8" style="enable-background:new 0 0 18.5 19.8;" xml:space="preserve">
<style type="text/css">
	.st0{display:none;}
	.st1{display:inline;fill:none;stroke:#BCBEC0;stroke-width:0.25;stroke-miterlimit:10;}
	.st2{fill:#0AEBA5;stroke:#0AEBA5;stroke-width:4.000000e-02;stroke-miterlimit:10;}
</style>
<title>open-access</title>
<g id="Layer_2">
	<g id="grid" class="st0">
		<rect x="0.1" y="1.5" class="st1" width="1.7" height="1.7"/>
		<rect x="1.8" y="1.5" class="st1" width="1.7" height="1.7"/>
		<rect x="3.4" y="1.5" class="st1" width="1.7" height="1.7"/>
		<rect x="5.1" y="1.5" class="st1" width="1.7" height="1.7"/>
		<rect x="6.8" y="1.5" class="st1" width="1.7" height="1.7"/>
		<rect x="8.4" y="1.5" class="st1" width="1.7" height="1.7"/>
		<rect x="10.1" y="1.5" class="st1" width="1.7" height="1.7"/>
		<rect x="11.7" y="1.5" class="st1" width="1.7" height="1.7"/>
		<rect x="13.4" y="1.5" class="st1" width="1.7" height="1.7"/>
		<rect x="15" y="1.5" class="st1" width="1.7" height="1.7"/>
		<rect x="16.7" y="1.5" class="st1" width="1.7" height="1.7"/>
		<rect x="0.1" y="3.1" class="st1" width="1.7" height="1.7"/>
		<rect x="1.8" y="3.1" class="st1" width="1.7" height="1.7"/>
		<rect x="3.4" y="3.1" class="st1" width="1.7" height="1.7"/>
		<rect x="5.1" y="3.1" class="st1" width="1.7" height="1.7"/>
		<rect x="6.8" y="3.1" class="st1" width="1.7" height="1.7"/>
		<rect x="8.4" y="3.1" class="st1" width="1.7" height="1.7"/>
		<rect x="10.1" y="3.1" class="st1" width="1.7" height="1.7"/>
		<rect x="11.7" y="3.1" class="st1" width="1.7" height="1.7"/>
		<rect x="13.4" y="3.1" class="st1" width="1.7" height="1.7"/>
		<rect x="15" y="3.1" class="st1" width="1.7" height="1.7"/>
		<rect x="16.7" y="3.1" class="st1" width="1.7" height="1.7"/>
		<rect x="0.1" y="4.8" class="st1" width="1.7" height="1.7"/>
		<rect x="1.8" y="4.8" class="st1" width="1.7" height="1.7"/>
		<rect x="3.4" y="4.8" class="st1" width="1.7" height="1.7"/>
		<rect x="5.1" y="4.8" class="st1" width="1.7" height="1.7"/>
		<rect x="6.8" y="4.8" class="st1" width="1.7" height="1.7"/>
		<rect x="8.4" y="4.8" class="st1" width="1.7" height="1.7"/>
		<rect x="10.1" y="4.8" class="st1" width="1.7" height="1.7"/>
		<rect x="11.7" y="4.8" class="st1" width="1.7" height="1.7"/>
		<rect x="13.4" y="4.8" class="st1" width="1.7" height="1.7"/>
		<rect x="15" y="4.8" class="st1" width="1.7" height="1.7"/>
		<rect x="16.7" y="4.8" class="st1" width="1.7" height="1.7"/>
		<rect x="0.1" y="6.5" class="st1" width="1.7" height="1.7"/>
		<rect x="1.8" y="6.5" class="st1" width="1.7" height="1.7"/>
		<rect x="3.4" y="6.5" class="st1" width="1.7" height="1.7"/>
		<rect x="5.1" y="6.5" class="st1" width="1.7" height="1.7"/>
		<rect x="6.8" y="6.5" class="st1" width="1.7" height="1.7"/>
		<rect x="8.4" y="6.5" class="st1" width="1.7" height="1.7"/>
		<rect x="10.1" y="6.5" class="st1" width="1.7" height="1.7"/>
		<rect x="11.7" y="6.5" class="st1" width="1.7" height="1.7"/>
		<rect x="13.4" y="6.5" class="st1" width="1.7" height="1.7"/>
		<rect x="15" y="6.5" class="st1" width="1.7" height="1.7"/>
		<rect x="16.7" y="6.5" class="st1" width="1.7" height="1.7"/>
		<rect x="0.1" y="8.1" class="st1" width="1.7" height="1.7"/>
		<rect x="1.8" y="8.1" class="st1" width="1.7" height="1.7"/>
		<rect x="3.4" y="8.1" class="st1" width="1.7" height="1.7"/>
		<rect x="5.1" y="8.1" class="st1" width="1.7" height="1.7"/>
		<rect x="6.8" y="8.1" class="st1" width="1.7" height="1.7"/>
		<rect x="8.4" y="8.1" class="st1" width="1.7" height="1.7"/>
		<rect x="10.1" y="8.1" class="st1" width="1.7" height="1.7"/>
		<rect x="11.7" y="8.1" class="st1" width="1.7" height="1.7"/>
		<rect x="13.4" y="8.1" class="st1" width="1.7" height="1.7"/>
		<rect x="15" y="8.1" class="st1" width="1.7" height="1.7"/>
		<rect x="16.7" y="8.1" class="st1" width="1.7" height="1.7"/>
		<rect x="0.1" y="9.8" class="st1" width="1.7" height="1.7"/>
		<rect x="1.8" y="9.8" class="st1" width="1.7" height="1.7"/>
		<rect x="3.4" y="9.8" class="st1" width="1.7" height="1.7"/>
		<rect x="5.1" y="9.8" class="st1" width="1.7" height="1.7"/>
		<rect x="6.8" y="9.8" class="st1" width="1.7" height="1.7"/>
		<rect x="8.4" y="9.8" class="st1" width="1.7" height="1.7"/>
		<rect x="10.1" y="9.8" class="st1" width="1.7" height="1.7"/>
		<rect x="11.7" y="9.8" class="st1" width="1.7" height="1.7"/>
		<rect x="13.4" y="9.8" class="st1" width="1.7" height="1.7"/>
		<rect x="15" y="9.8" class="st1" width="1.7" height="1.7"/>
		<rect x="16.7" y="9.8" class="st1" width="1.7" height="1.7"/>
		<rect x="0.1" y="11.4" class="st1" width="1.7" height="1.7"/>
		<rect x="1.8" y="11.4" class="st1" width="1.7" height="1.7"/>
		<rect x="3.4" y="11.4" class="st1" width="1.7" height="1.7"/>
		<rect x="5.1" y="11.4" class="st1" width="1.7" height="1.7"/>
		<rect x="6.8" y="11.4" class="st1" width="1.7" height="1.7"/>
		<rect x="8.4" y="11.4" class="st1" width="1.7" height="1.7"/>
		<rect x="10.1" y="11.4" class="st1" width="1.7" height="1.7"/>
		<rect x="11.7" y="11.4" class="st1" width="1.7" height="1.7"/>
		<rect x="13.4" y="11.4" class="st1" width="1.7" height="1.7"/>
		<rect x="15" y="11.4" class="st1" width="1.7" height="1.7"/>
		<rect x="16.7" y="11.4" class="st1" width="1.7" height="1.7"/>
		<rect x="0.1" y="13.1" class="st1" width="1.7" height="1.7"/>
		<rect x="1.8" y="13.1" class="st1" width="1.7" height="1.7"/>
		<rect x="3.4" y="13.1" class="st1" width="1.7" height="1.7"/>
		<rect x="5.1" y="13.1" class="st1" width="1.7" height="1.7"/>
		<rect x="6.8" y="13.1" class="st1" width="1.7" height="1.7"/>
		<rect x="8.4" y="13.1" class="st1" width="1.7" height="1.7"/>
		<rect x="10.1" y="13.1" class="st1" width="1.7" height="1.7"/>
		<rect x="11.7" y="13.1" class="st1" width="1.7" height="1.7"/>
		<rect x="13.4" y="13.1" class="st1" width="1.7" height="1.7"/>
		<rect x="15" y="13.1" class="st1" width="1.7" height="1.7"/>
		<rect x="16.7" y="13.1" class="st1" width="1.7" height="1.7"/>
		<rect x="0.1" y="14.7" class="st1" width="1.7" height="1.7"/>
		<rect x="1.8" y="14.7" class="st1" width="1.7" height="1.7"/>
		<rect x="3.4" y="14.7" class="st1" width="1.7" height="1.7"/>
		<rect x="5.1" y="14.7" class="st1" width="1.7" height="1.7"/>
		<rect x="6.8" y="14.7" class="st1" width="1.7" height="1.7"/>
		<rect x="8.4" y="14.7" class="st1" width="1.7" height="1.7"/>
		<rect x="10.1" y="14.7" class="st1" width="1.7" height="1.7"/>
		<rect x="11.7" y="14.7" class="st1" width="1.7" height="1.7"/>
		<rect x="13.4" y="14.7" class="st1" width="1.7" height="1.7"/>
		<rect x="15" y="14.7" class="st1" width="1.7" height="1.7"/>
		<rect x="16.7" y="14.7" class="st1" width="1.7" height="1.7"/>
		<rect x="0.1" y="16.4" class="st1" width="1.7" height="1.7"/>
		<rect x="1.8" y="16.4" class="st1" width="1.7" height="1.7"/>
		<rect x="3.4" y="16.4" class="st1" width="1.7" height="1.7"/>
		<rect x="5.1" y="16.4" class="st1" width="1.7" height="1.7"/>
		<rect x="6.8" y="16.4" class="st1" width="1.7" height="1.7"/>
		<rect x="8.4" y="16.4" class="st1" width="1.7" height="1.7"/>
		<rect x="10.1" y="16.4" class="st1" width="1.7" height="1.7"/>
		<rect x="11.7" y="16.4" class="st1" width="1.7" height="1.7"/>
		<rect x="13.4" y="16.4" class="st1" width="1.7" height="1.7"/>
		<rect x="15" y="16.4" class="st1" width="1.7" height="1.7"/>
		<rect x="16.7" y="16.4" class="st1" width="1.7" height="1.7"/>
		<rect x="0.1" y="18.1" class="st1" width="1.7" height="1.7"/>
		<rect x="1.8" y="18.1" class="st1" width="1.7" height="1.7"/>
		<rect x="3.4" y="18.1" class="st1" width="1.7" height="1.7"/>
		<rect x="5.1" y="18.1" class="st1" width="1.7" height="1.7"/>
		<rect x="6.8" y="18.1" class="st1" width="1.7" height="1.7"/>
		<rect x="8.4" y="18.1" class="st1" width="1.7" height="1.7"/>
		<rect x="10.1" y="18.1" class="st1" width="1.7" height="1.7"/>
		<rect x="11.7" y="18.1" class="st1" width="1.7" height="1.7"/>
		<rect x="13.4" y="18.1" class="st1" width="1.7" height="1.7"/>
		<rect x="15" y="18.1" class="st1" width="1.7" height="1.7"/>
		<rect x="16.7" y="18.1" class="st1" width="1.7" height="1.7"/>
	</g>
	<g id="Layer_1-2">
		<path class="st2" d="M7.8,9.6l-1.7,1.7v4.1l1.7,1.7h4.1l1.7-1.7v-4.1l-1.7-1.7H7.8z M12.4,15l-1,1H8.3l-1-1v-3.1l1-1h3.1l1,1V15z"
			/>
		<path class="st2" d="M16,6.2V2.8L13.3,0H6.4L3.7,2.8v3.4h1.2V3.3l2-2h5.8l2,2v2.9l0,0v2.6l-1.5-1.5H6.4L3.7,10v6.8l2.7,2.7h6.8
			l2.7-2.7V10l0,0V6.2z M14.8,16.3l-2,2H7l-2-2v-5.8l2-2h5.8l2,2L14.8,16.3z"/>
	</g>
</g>
</svg>
