<?xml version="1.0" encoding="utf-8"?>
<!-- Generator: Adobe Illustrator 19.1.0, SVG Export Plug-In . SVG Version: 6.00 Build 0)  -->
<svg version="1.1" id="Layer_1" xmlns="http://www.w3.org/2000/svg" xmlns:xlink="http://www.w3.org/1999/xlink" x="0px" y="0px"
	 viewBox="-240 105 94 91" style="enable-background:new -240 105 94 91;" xml:space="preserve">
<style type="text/css">
	.st0{fill:#30925E;}
	.st1{fill:#FFFFFF;}
</style>
<g>
	<path class="st0" d="M-163.433,129.4733c0,14.2286,0,28.4573,0,42.6859c-25.5224,0-50.982,0-76.567,0
		c0-14.2286,0-28.4573,0-42.6859C-214.4777,129.4733-189.018,129.4733-163.433,129.4733z M-201.497,165.7088
		c0.2508-6.7665,0.5017-13.533,0.7525-20.2995c0.8779,6.8297,2.4456,13.533,3.6371,20.2995c1.5677,0,2.9473,0,4.515,0
		c1.066-6.893,2.1948-13.786,3.1981-20.2995c0.3763,6.4503,0.8152,13.3433,1.2542,20.2995c1.944,0,3.8252,0,5.8319,0
		c-1.0033-9.9917-1.944-19.8568-2.9473-29.7853c-2.571,0-5.0794,0-7.5877,0c-0.7525,5.7547-1.4423,11.3829-2.1948,17.0744h-0.0627
		c-0.8779-5.6915-1.7558-11.3829-2.6338-17.0744c-2.5083,0-4.954,0-7.3996,0c-0.8152,9.9284-1.6304,19.7936-2.4456,29.7853
		C-205.5103,165.7088-203.5664,165.7088-201.497,165.7088z M-215.481,141.4885c1.8185,0,3.6371,0,5.4556,0
		c0-1.8971,0-3.7311,0-5.6282c-3.7625,0-7.4623,0-11.1621,0c0,9.9917,0,19.8568,0,29.7853c3.7625,0,7.525,0,11.2875,0
		c0-1.8971,0-3.6678,0-5.6282c-1.8813,0-3.6998,0-5.5811,0c0-2.2133,0-4.3634,0-6.64c1.6304,0,3.1981,0,4.8286,0
		c0-1.8971,0-3.7311,0-5.6282c-1.6304,0-3.1981,0-4.8286,0C-215.481,145.6623-215.481,143.6386-215.481,141.4885z
		 M-168.9513,136.8721c-0.8779-0.6324-1.8813-1.0751-2.8846-1.2648c-3.01-0.6956-5.6438-0.0632-7.6504,2.5295
		c-2.2575,2.9722-2.9473,9.2328,0.8152,12.7741c1.066,1.0118,2.1948,1.8339,3.3235,2.7193
		c0.5644,0.4427,1.1288,0.8853,1.5677,1.3912c0.9406,1.0751,1.1287,2.7825,0.439,3.984c-0.6271,1.1383-1.8813,1.6442-3.3235,1.5177
		c-1.066-0.1265-2.0067-0.5059-2.8846-1.0751c-0.1881-0.1265-0.439-0.253-0.7525-0.4427c-0.0627,0.253-0.0627,0.3162-0.0627,0.4427
		c0,1.7074,0,3.4149,0,5.1223c0.8779,0.7589,1.8185,1.0751,2.8219,1.328c4.3269,1.0751,8.2775-1.0751,9.5944-5.3753
		c0.3135-0.9486,0.439-1.8971,0.5644-2.909c0.2508-2.9722-0.6898-5.565-2.9473-7.5886c-0.8152-0.7589-1.7558-1.4545-2.6338-2.2133
		c-0.6271-0.5059-1.1915-1.0118-1.7558-1.581c-0.8779-0.9486-1.2542-2.0236-1.066-3.2884c0.1881-1.3912,1.066-2.2133,2.4456-2.2766
		c1.3796-0.0632,2.4456,0.5059,3.5117,1.2648c0.2508,0.1897,0.439,0.3162,0.7525,0.5691
		C-168.9513,140.6664-168.9513,138.8325-168.9513,136.8721z M-234.8579,135.9236c0,9.9917,0,19.9201,0,29.7853
		c1.8813,0,3.6998,0,5.6438,0c0-4.1105,0-8.1578,0-12.3315c1.7558,0,3.3863,0,5.0167,0c0-1.9604,0-3.7311,0-5.6915
		c-1.6931,0-3.3235,0-4.954,0c0-2.1501,0-4.1105,0-6.1974c1.8813,0,3.6998,0,5.5183,0c0-1.8972,0-3.7311,0-5.565
		C-227.3956,135.9236-231.0954,135.9236-234.8579,135.9236z"/>
	<path class="st1" d="M-201.497,165.7088c-2.0694,0-4.0133,0-6.0827,0c0.8152-9.9917,1.6304-19.8568,2.4456-29.8485
		c2.5083,0,4.8913,0,7.3996,0c0.8779,5.6915,1.7558,11.3829,2.6338,17.0744h0.0627c0.6898-5.6915,1.4423-11.3197,2.1948-17.0744
		c2.5083,0,5.0167,0,7.5877,0c1.0033,9.9917,2.0067,19.8568,2.9473,29.8485c-2.0067,0-3.8879,0-5.8319,0
		c-0.439-6.9562-0.8779-13.786-1.2542-20.2995c-1.0033,6.5135-2.1321,13.4065-3.1981,20.2995c-1.5677,0-2.9473,0-4.515,0
		c-1.1915-6.7665-2.7592-13.4698-3.6371-20.2995C-200.9326,152.1758-201.1835,158.9423-201.497,165.7088z"/>
	<path class="st1" d="M-215.481,141.4885c0,2.1501,0,4.1737,0,6.3238c1.5677,0,3.1981,0,4.8286,0c0,1.8971,0,3.7311,0,5.6282
		c-1.5677,0-3.1981,0-4.8286,0c0,2.2133,0,4.3634,0,6.64c1.8813,0,3.6998,0,5.5811,0c0,1.8972,0,3.7311,0,5.6282
		c-3.7625,0-7.4623,0-11.2875,0c0-9.9284,0-19.8568,0-29.7853c3.7625,0,7.3996,0,11.1621,0c0,1.8972,0,3.6678,0,5.6282
		C-211.8439,141.4885-213.6624,141.4885-215.481,141.4885z"/>
	<path class="st1" d="M-168.9513,136.8721c0,1.8972,0,3.7943,0,5.7547c-0.3135-0.253-0.5644-0.4427-0.7525-0.5691
		c-1.066-0.7589-2.1321-1.328-3.5117-1.2648c-1.3796,0.0632-2.2575,0.8853-2.4456,2.2766c-0.1881,1.2648,0.1881,2.4031,1.066,3.2884
		c0.5644,0.5691,1.1288,1.0751,1.7558,1.581c0.8779,0.7589,1.7558,1.3912,2.6338,2.2133c2.1948,2.0236,3.1981,4.5532,2.9473,7.5886
		c-0.0627,0.9486-0.2508,1.9604-0.5644,2.909c-1.3796,4.3002-5.2675,6.4503-9.5944,5.3753c-1.0033-0.253-1.944-0.6324-2.8219-1.328
		c0-1.7074,0-3.4149,0-5.1223c0-0.1265,0.0627-0.253,0.0627-0.4427c0.3135,0.1897,0.5017,0.3162,0.7525,0.4427
		c0.8779,0.5691,1.8185,0.9486,2.8846,1.0751c1.505,0.1897,2.6965-0.3794,3.3235-1.5177c0.6898-1.2015,0.5017-2.909-0.439-3.984
		c-0.5017-0.5059-1.066-0.9486-1.5677-1.3912c-1.1288-0.8853-2.3202-1.7707-3.3236-2.7193
		c-3.7625-3.6046-3.0727-9.8652-0.8152-12.7741c1.944-2.5295,4.5777-3.2252,7.6504-2.5295
		C-170.8326,135.8603-169.8292,136.2398-168.9513,136.8721z"/>
	<path class="st1" d="M-234.8579,135.9236c3.7625,0,7.4623,0,11.2248,0c0,1.8339,0,3.6678,0,5.565c-1.8185,0-3.6371,0-5.5183,0
		c0,2.0869,0,4.1105,0,6.1974c1.6304,0,3.2608,0,4.954,0c0,1.9604,0,3.7311,0,5.6915c-1.6304,0-3.2608,0-5.0167,0
		c0,4.1737,0,8.221,0,12.3315c-1.944,0-3.7625,0-5.6438,0C-234.8579,155.7804-234.8579,145.9152-234.8579,135.9236z"/>
	<g>
		<path class="st1" d="M-221.4383,117.1418l0.8779,0.8853l-0.9406,0.9486l1.0033,1.0118l0.8779-0.8221l0.8779,0.8853l-0.8779,0.8221
			l1.944,1.9604l-1.0033,0.9486l-4.6404-4.7429L-221.4383,117.1418z"/>
		<path class="st1" d="M-218.4283,114.549l0.7525,0.9486l-1.0033,0.8853l0.9406,1.1383l0.8779-0.7589l0.7525,0.9486l-0.8779,0.7589
			l0.9406,1.1383l1.066-0.8853l0.7525,0.9486l-2.0694,1.7074l-4.2015-5.1223L-218.4283,114.549z"/>
		<path class="st1" d="M-213.6624,119.2286l-3.6371-5.565l0.8152-0.5691c0.1881-0.1265,2.2575-1.9604,4.3269,1.1383
			c1.066,1.581,1.1915,3.1619-0.5017,4.3002L-213.6624,119.2286z M-213.2862,115.0549c-0.439-0.6956-1.4423-1.7074-2.3202-1.0751
			l2.3829,3.6046C-212.3456,117.0153-212.7845,115.7505-213.2862,115.0549z"/>
		<path class="st1" d="M-210.527,109.6164l0.5644,1.0751l-1.1915,0.6324l0.6898,1.2648l1.0033-0.5691l0.5644,1.0751l-1.0033,0.6324
			l0.6898,1.328l1.1915-0.6324l0.5644,1.0751l-2.3202,1.2648l-3.0727-5.8812L-210.527,109.6164z"/>
		<path class="st1" d="M-206.8272,115.1814l-2.4456-6.1974l1.2542-0.5059c0.7525-0.3162,2.1948-0.7589,2.8846,0.8853
			c0.2508,0.6956,0.2508,1.3912-0.2508,1.9604l2.1948,2.4031l-1.2542,0.5059l-2.1948-2.4031l0,0l1.1288,2.8457L-206.8272,115.1814z
			 M-207.0153,111.1974l0.2508-0.0632c0.5644-0.253,0.6271-0.6956,0.439-1.2015c-0.1881-0.4427-0.5017-0.6956-1.1288-0.4427
			l-0.1881,0.0632L-207.0153,111.1974z"/>
		<path class="st1" d="M-201.8105,106.4545l3.2608,6.0709l-1.3796,0.3794l-0.5644-1.0751l-1.2542,0.3162l0.0627,1.1383
			l-1.2542,0.3162l-0.1881-6.8297L-201.8105,106.4545z M-201.6851,109.237l-0.3763-0.9486l0,0l0.1254,1.0118l0.1881,1.7707
			l0.8779-0.253L-201.6851,109.237z"/>
		<path class="st1" d="M-196.7312,105.4427l0.1881,1.2015l-1.0033,0.1897l0.8779,5.3753l-1.3169,0.1897l-0.8779-5.3753
			l-1.0033,0.1897l-0.1881-1.2015L-196.7312,105.4427z"/>
		<path class="st1" d="M-194.3482,105.253l0.6271,6.64l-1.3169,0.1265l-0.6271-6.64L-194.3482,105.253z"/>
		<path class="st1" d="M-188.4536,108.4781c-0.0627,2.5295-1.1915,3.4149-2.3829,3.4149c-1.1915,0-2.3202-0.9486-2.2575-3.4781
			c0.0627-2.5295,1.1914-3.4149,2.3829-3.4149C-189.5824,105-188.3909,105.9486-188.4536,108.4781z M-190.8366,110.6915
			c0.8779,0,1.0033-1.7074,1.0033-2.2133c0-0.5691,0-2.2133-0.8779-2.2133s-0.9406,1.6442-0.9406,2.2133
			C-191.7145,108.984-191.7145,110.6282-190.8366,110.6915z"/>
		<path class="st1" d="M-185.8199,105.3794l1.066,4.237l0,0c-0.0627-0.3162,0-0.6956,0-1.0118l0.3763-2.9722l1.4423,0.1265
			l-0.8779,6.64l-1.2542-0.1897l-1.066-4.1737l0,0v0.6956v0.253l-0.3763,3.0354l-1.3169-0.1897l0.8779-6.64L-185.8199,105.3794z"/>
		<path class="st1" d="M-175.7238,111.2606c-0.7525,2.4031-2.1948,2.909-3.2608,2.5295c-1.1288-0.3794-1.944-1.6442-1.1288-3.984
			c0.7525-2.4031,2.1948-2.909,3.2608-2.5295C-175.7865,107.5928-174.9713,108.8575-175.7238,111.2606z M-178.6084,112.6518
			c0.8152,0.253,1.3796-1.328,1.5677-1.8339c0.1881-0.5691,0.6271-2.1501-0.1881-2.4031c-0.8152-0.253-1.3796,1.2648-1.5677,1.8339
			C-178.9847,110.7547-179.4236,112.3357-178.6084,112.6518z"/>
		<path class="st1" d="M-171.0834,109.7429l-0.5017,1.1383l-1.1915-0.5691l-0.5644,1.328l1.066,0.5059l-0.5017,1.1383l-1.066-0.5059
			l-1.1287,2.5295l-1.1915-0.5691l2.7592-6.0709L-171.0834,109.7429z"/>
		<path class="st1" d="M-165.5023,113.0313l-0.6898,1.0118l-1.1288-0.6956l-0.7525,1.2015l1.0033,0.6324l-0.6898,1.0118
			l-1.0033-0.6324l-0.8152,1.2648l1.1288,0.7589l-0.6898,1.0118l-2.2575-1.4545l3.5744-5.6282L-165.5023,113.0313z"/>
		<path class="st1" d="M-163.3702,114.6122l-2.6965,3.3516c-0.3135,0.3794-0.8152,0.9486-0.2508,1.3912
			c0.5017,0.3794,0.8152,0,1.1288-0.3794l2.8846-3.6046l1.0033,0.8221l-3.01,3.7943c-0.439,0.5691-1.2542,1.4545-2.6965,0.253
			c-0.9406-0.7589-1.1915-1.7074-0.3762-2.656l3.0727-3.8575L-163.3702,114.6122z"/>
		<path class="st1" d="M-164.8753,122.0111l4.7031-4.6796l0.9406,0.9486c0.5644,0.5691,1.5677,1.7074,0.2508,3.0354
			c-0.5017,0.5059-1.1915,0.7589-1.8813,0.5059l-1.3169,2.9722l-0.9406-1.0118l1.3796-2.9722l0,0l-2.1948,2.1501L-164.8753,122.0111
			z M-161.2382,120.3037l0.1254,0.1897c0.439,0.4427,0.8779,0.3162,1.2542-0.0632c0.3135-0.3162,0.439-0.7589-0.0627-1.2015
			l-0.1254-0.1265L-161.2382,120.3037z"/>
		<path class="st1" d="M-156.3469,126.8805c-2.0067,1.5177-3.3863,1.1383-4.1388,0.1897c-0.6898-0.9486-0.6898-2.4031,1.3169-3.9208
			c2.0067-1.5177,3.3863-1.1383,4.1388-0.1897C-154.3402,123.845-154.4029,125.3628-156.3469,126.8805z M-159.545,126.3746
			c0.5017,0.6956,1.8812-0.253,2.3202-0.5691c0.439-0.3794,1.6931-1.3912,1.1915-2.0869c-0.5016-0.6957-1.8186,0.253-2.3202,0.5691
			C-158.7925,124.6039-160.0467,125.6157-159.545,126.3746z"/>
		<path class="st1" d="M-158.7298,129.41l5.7065-3.3516l0.6898,1.2015c0.1254,0.253,1.3169,1.8339-0.5644,2.9722
			c-1.066,0.6324-2.0694,0.3162-2.6965-0.7589l-0.1254-0.253l-2.3829,1.3912L-158.7298,129.41z M-154.7792,128.5879
			c0.3135,0.5691,0.6898,0.7589,1.2542,0.3794c0.439-0.253,0.6271-0.5691,0.3763-1.0751l-0.1254-0.1897L-154.7792,128.5879z"/>
		<path class="st1" d="M-149.5117,132.6984l-1.1288,0.5059l-0.5644-1.2015l-1.3169,0.6324l0.5017,1.0751l-1.1288,0.5059
			l-0.5017-1.0751l-1.3794,0.6324l0.5644,1.2015l-1.1288,0.5059l-1.1287-2.4031l6.02-2.7825L-149.5117,132.6984z"/>
		<path class="st1" d="M-148.1321,136.4295l-5.7692,3.6678l-0.439-1.328l1.0033-0.5691l-0.439-1.2648l-1.1287,0.1265l-0.439-1.2648
			l6.7725-0.6956L-148.1321,136.4295z M-150.8913,136.7457l0.8779-0.4427l0,0l-1.0033,0.1897l-1.7558,0.3162l0.3135,0.8853
			L-150.8913,136.7457z"/>
		<path class="st1" d="M-147.066,140.4135l-3.5744,2.4031l0,0c0.3135-0.1265,0.6271-0.253,0.9406-0.3162l2.8846-0.6324
			l0.2508,1.2648l-6.459,1.328l-0.2508-1.2015l3.5744-2.4031l0,0l-0.6271,0.1897l-0.2508,0.0632l-2.9473,0.6324l-0.2508-1.2648
			l6.459-1.328L-147.066,140.4135z"/>
		<path class="st1" d="M-146,149.4566l-3.8879,0.6956l0,0l3.8879,0.4427v1.7707l-6.5844,0.8221v-1.328l4.7658-0.3794l0,0
			l-1.6304-0.1897l-3.1354-0.5059v-1.0118l3.1354-0.6956l1.4423-0.253h0.1254l0,0l-4.7658-0.1265v-1.3912l6.6471,0.5058V149.4566z"
			/>
		<path class="st1" d="M-146.3135,155.8436l-6.5217-0.6956l0.1254-1.328l6.5844,0.6956L-146.3135,155.8436z"/>
		<path class="st1" d="M-148.2575,160.2703c0.0627-0.1265,0.1254-0.3162,0.1881-0.5059c0.1881-1.1383-0.7525-1.8339-1.7558-2.0236
			c-0.9406-0.1897-2.2575,0.0632-2.4456,1.2015c0,0.1897,0,0.3162,0,0.5059l-1.1915-0.253c-0.0627-0.1897-0.0627-0.4427,0-0.6324
			c0.3135-1.8971,2.1948-2.5928,3.8879-2.2766c1.6304,0.3162,3.0727,1.7074,2.7592,3.4781
			c-0.0627,0.253-0.1254,0.4427-0.2508,0.6324L-148.2575,160.2703z"/>
		<path class="st1" d="M-153.7131,159.8909l6.3335,1.9604l-0.3762,1.2648c-0.2508,0.8221-0.7525,2.2133-2.5083,1.7074
			c-0.6898-0.1897-1.1915-0.6956-1.3796-1.3912l-3.1981,0.253l0.3763-1.328l3.2608-0.1897l0,0l-2.9473-0.8853L-153.7131,159.8909z
			 M-150.4523,162.2307l-0.0627,0.1897c-0.1881,0.5692,0.1254,0.9486,0.6898,1.0751c0.439,0.1265,0.8779,0,1.066-0.6324
			l0.0627-0.1897L-150.4523,162.2307z"/>
		<path class="st1" d="M-153.8386,169.6928c-2.2575-1.0118-2.6338-2.4663-2.1948-3.5413c0.5017-1.0751,1.8186-1.7707,4.076-0.7589
			c2.2575,1.0118,2.6338,2.4663,2.1948,3.5413C-150.2642,170.009-151.5811,170.7047-153.8386,169.6928z M-154.9046,166.6574
			c-0.3763,0.8221,1.1288,1.5177,1.6304,1.7707c0.5644,0.253,2.0067,0.8221,2.3829,0.0632c0.3763-0.8221-1.066-1.5177-1.6304-1.7707
			C-152.9606,166.4677-154.5284,165.8353-154.9046,166.6574z"/>
		<path class="st1" d="M-157.1621,168.8708l5.7065,3.4149l-0.6898,1.1383c-0.2508,0.4427-0.5017,0.8221-1.0033,1.0118
			c-0.5017,0.1897-1.1288,0.1265-1.6304-0.1897c-0.5017-0.3162-0.7525-0.6956-0.8152-1.328
			c-0.5017,0.3162-1.2542,0.1897-1.7558-0.0632c-1.1288-0.6956-1.1288-1.7707-0.5017-2.8457L-157.1621,168.8708z
			 M-155.3436,171.4635l-1.505-0.9486c-0.3135,0.4427-0.1254,0.8853,0.3762,1.2015
			C-156.0961,172.0327-155.5944,171.9062-155.3436,171.4635z M-153.0861,172.8548l-1.3796-0.8221
			c-0.2508,0.4427-0.1254,0.8221,0.3135,1.1383C-153.7758,173.3607-153.3369,173.2974-153.0861,172.8548z"/>
		<path class="st1" d="M-154.7792,177.3447l-5.3929-3.8575l0.7525-1.0751l5.3929,3.8575L-154.7792,177.3447z"/>
		<path class="st1" d="M-160.9873,179.7477c-1.8813-1.6442-1.8185-3.1619-1.066-4.0473c0.7525-0.8853,2.2575-1.1383,4.0761,0.5059
			c1.8813,1.6442,1.8185,3.1619,1.066,4.0473C-157.6637,181.139-159.1061,181.3919-160.9873,179.7477z M-161.1755,176.5226
			c-0.5644,0.6324,0.6271,1.8339,1.066,2.1501c0.439,0.3794,1.6931,1.3912,2.2575,0.7589c0.5644-0.6324-0.6271-1.7707-1.066-2.1501
			C-159.2942,176.902-160.5484,175.827-161.1755,176.5226z"/>
		<path class="st1" d="M-160.423,183.7318l-3.6371-3.984l-1.0033,0.9486l-0.8152-0.8853l1.944-1.8339l4.515,4.8694
			L-160.423,183.7318z"/>
		<path class="st1" d="M-167.8853,185.5024c-1.505-2.0236-1.1288-3.4781-0.1881-4.1737c0.9406-0.6956,2.4456-0.6324,3.8879,1.328
			c1.505,2.0236,1.1287,3.4781,0.1881,4.1737C-164.8753,187.5261-166.3803,187.4628-167.8853,185.5024z M-167.3209,182.2773
			c-0.6898,0.5059,0.2508,1.8972,0.5644,2.3398c0.3763,0.5059,1.3796,1.7707,2.0694,1.2015
			c0.6898-0.5059-0.2508-1.8972-0.5644-2.3398C-165.565,183.0994-166.6311,181.7714-167.3209,182.2773z"/>
		<path class="st1" d="M-172.2748,188.4746l-0.2508-0.4427c-0.6898-1.2648-1.3169-3.0354,0.2508-3.9208
			c1.5677-0.8853,3.01,0.5059,3.6998,1.7707c0.7525,1.328,1.2542,3.2884-0.3763,4.1737c-0.8779,0.5059-1.7558,0.253-2.4456-0.4427
			l0.8779-1.0751c0.1881,0.253,0.5644,0.6956,1.0033,0.4427c0.8152-0.3794,0.0627-1.8971-0.2508-2.4031
			c-0.3135-0.6324-1.1288-1.8971-1.944-1.4545c-0.5644,0.3162-0.2508,1.1383,0,1.581l0.7525-0.4427l0.6271,1.0751
			L-172.2748,188.4746z"/>
		<path class="st1" d="M-173.1528,192.0792l-2.6965-6.0709l1.1915-0.5691l2.6965,6.0709L-173.1528,192.0792z"/>
		<path class="st1" d="M-177.9813,192.5851c0.1881,0,0.3135-0.0632,0.5017-0.1265c1.066-0.3794,1.1915-1.581,0.8779-2.5295
			c-0.3135-0.9486-1.1915-1.8971-2.2575-1.5177c-0.1881,0.0632-0.3135,0.1265-0.439,0.253l-0.439-1.2015
			c0.1254-0.1265,0.3135-0.253,0.5017-0.3162c1.7558-0.6324,3.3235,0.6324,3.8879,2.2766c0.5644,1.581,0.0627,3.5413-1.5677,4.1105
			c-0.1881,0.0632-0.439,0.1265-0.6898,0.1265L-177.9813,192.5851z"/>
		<path class="st1" d="M-181.2422,194.7352l-3.0727-6.1341l1.3796-0.3162l0.5017,1.0118l1.3169-0.3162v-1.1383l1.2542-0.3162v6.8297
			L-181.2422,194.7352z M-181.3049,191.8895l0.3763,0.9486l0,0l-0.0627-1.0118l-0.1254-1.7707l-0.8779,0.1897L-181.3049,191.8895z"
			/>
		<path class="st1" d="M-185.1928,195.3676l-0.6898-5.3753l-1.3796,0.1897l-0.1881-1.2015l2.6338-0.3162l0.8779,6.64
			L-185.1928,195.3676z"/>
		<path class="st1" d="M-192.8432,194.2293c0.2508,0.253,0.5644,0.4427,0.9406,0.4427s0.6898-0.2529,0.6898-0.6324
			c0-1.0751-1.944-1.2015-1.944-2.9722c0-1.2015,0.6898-2.0869,1.944-2.0236c0.3763,0,0.8152,0.1265,1.1288,0.3794v1.2648
			c-0.3135-0.1897-0.6271-0.3794-1.0033-0.3794c-0.439,0-0.7525,0.253-0.7525,0.6956c0,0.5059,0.3763,0.6956,0.7525,1.0118
			c0.7525,0.5059,1.1915,1.0118,1.1915,2.0236c0,1.0751-0.6271,1.9604-1.7558,1.9604c-0.439,0-0.8152-0.1265-1.1288-0.3162
			L-192.8432,194.2293z"/>
		<path class="st1" d="M-198.6751,191.763c0.3135-2.4663,1.5677-3.2884,2.7592-3.0987c1.1288,0.1265,2.1948,1.2015,1.8813,3.7311
			c-0.3135,2.4663-1.5677,3.2884-2.7592,3.0987C-197.9226,195.3044-198.9887,194.2293-198.6751,191.763z M-196.0414,189.8659
			c-0.8779-0.1265-1.1288,1.581-1.1915,2.0869c-0.0627,0.5691-0.2508,2.2133,0.6271,2.3398s1.1288-1.5177,1.1915-2.0869
			C-195.3516,191.6366-195.2262,189.9924-196.0414,189.8659z"/>
		<path class="st1" d="M-203.3155,192.7116c0.1254,0.0632,0.3135,0.1265,0.439,0.1897c1.1288,0.253,1.8813-0.6324,2.1321-1.581
			c0.2508-0.9486,0.0627-2.2766-1.066-2.5295c-0.1881-0.0632-0.3135-0.0632-0.5017,0l0.3135-1.2015c0.1881,0,0.439,0,0.6271,0.0632
			c1.8185,0.4427,2.4456,2.4031,2.0067,4.1105c-0.3763,1.581-1.8813,2.9722-3.5744,2.5295
			c-0.2508-0.0632-0.439-0.1265-0.6271-0.2529L-203.3155,192.7116z"/>
		<path class="st1" d="M-205.9493,193.1543l2.1321-6.3238l1.2542,0.4427l-2.1321,6.3238L-205.9493,193.1543z"/>
		<path class="st1" d="M-209.6491,191.6366l0.5017-1.1383l1.1915,0.5059l0.5644-1.328l-1.066-0.4427l0.5017-1.1383l1.066,0.4427
			l0.5644-1.3912l-1.2542-0.5059l0.5017-1.1383l2.4456,1.0118l-2.571,6.1341L-209.6491,191.6366z"/>
		<path class="st1" d="M-213.537,189.6129l0.5644-1.0751l0.9406,0.5059l2.5083-4.8061l1.1288,0.6324l-2.5083,4.8061l0.8779,0.5059
			l-0.5644,1.0751L-213.537,189.6129z"/>
		<path class="st1" d="M-215.5437,188.3482l3.5744-5.6282l1.1288,0.6956l-3.5744,5.6282L-215.5437,188.3482z"/>
		<path class="st1" d="M-218.7418,186.0083l0.7525-1.0118l1.066,0.8221l0.8779-1.1383l-0.9406-0.6956l0.7525-1.0118l0.9406,0.6956
			l0.8779-1.2015l-1.066-0.8221l0.7525-1.0118l2.1321,1.581l-3.9506,5.3753L-218.7418,186.0083z"/>
		<path class="st1" d="M-220.8739,182.214c0.0627,0.3794,0.1254,0.6956,0.439,0.9486c0.3135,0.253,0.6271,0.253,0.9406-0.0632
			c0.7525-0.8221-0.6898-2.2133,0.5017-3.5414c0.8152-0.8853,1.8813-1.0751,2.8219-0.253c0.2508,0.253,0.5644,0.6324,0.6271,1.0118
			l-0.8152,0.9486c-0.0627-0.3794-0.1881-0.6956-0.5017-0.9486c-0.3135-0.253-0.7525-0.3162-1.066,0.0632
			c-0.3135,0.3794-0.1881,0.8221-0.0627,1.2648c0.2508,0.8853,0.2508,1.581-0.3763,2.2766
			c-0.6898,0.7589-1.7558,1.0751-2.571,0.3162c-0.3135-0.253-0.5017-0.6324-0.6271-1.0118L-220.8739,182.214z"/>
	</g>
</g>
</svg>
