<?xml version="1.0" encoding="utf-8"?>
<!-- Generator: Adobe Illustrator 19.1.0, SVG Export Plug-In . SVG Version: 6.00 Build 0)  -->
<svg version="1.1" id="Layer_1" xmlns="http://www.w3.org/2000/svg" xmlns:xlink="http://www.w3.org/1999/xlink" x="0px" y="0px"
	 viewBox="0 50.8 300 21.2" style="enable-background:new 0 50.8 300 21.2;" xml:space="preserve">
<style type="text/css">
	.st0{fill:#FFFFFF;}
</style>
<path class="st0" d="M8.2,51.1v3.8H4.1v4.4h3.7v3.8H4.1v8.5H0V51.1H8.2z"/>
<path class="st0" d="M18.6,51.1v3.8h-4.1v4.5h3.6v3.8h-3.6v4.6h4.2v3.8h-8.2V51.1H18.6z"/>
<path class="st0" d="M27.2,51.1l2,12.1h0.1l1.6-12.1h5.4l2.1,20.5h-4.2l-1-14.8h-0.1l-0.7,5.1l-1.7,9.7h-3.1l-2-9.8l-0.7-4.6v-0.3
	H25l-0.6,14.8H20l1.8-20.5L27.2,51.1L27.2,51.1z"/>
<path class="st0" d="M48.7,55.7c-0.8-0.7-1.8-1.3-2.9-1.3c-1.3,0-2,0.8-2,2c0,3.4,6.2,3.6,6.2,9.1c0,3.6-2.1,6.4-5.9,6.4
	c-1.1,0-2.6-0.4-3.5-1V67c1,0.7,1.9,1.1,3.1,1.1c1.3,0,2.3-0.9,2.3-2.2c0-1.6-1.3-2.2-2.4-3c-2.4-1.5-3.8-3.1-3.8-6.1
	c0-3.2,1.9-6,5.4-6c1.3,0,2.5,0.4,3.6,1L48.7,55.7L48.7,55.7z"/>
<g>
	<path class="st0" d="M64.7,51.1l2,12.1h0.1l1.6-12.1h5.4L76,71.6h-4.2l-1-14.8h-0.1L70,61.9l-1.7,9.7h-3.1l-2-9.8l-0.7-4.6v-0.3
		h-0.1L62,71.6h-4.4l1.8-20.5C59.4,51.1,64.7,51.1,64.7,51.1z"/>
	<path class="st0" d="M81.9,51.1v20.5h-4.1V51.1H81.9z"/>
	<path class="st0" d="M94.7,55c-0.5-0.1-1-0.2-1.5-0.2c-3.6,0-5.1,3.2-5.1,6.4c0,3,1.6,6.8,5.1,6.8c0.5,0,1-0.1,1.6-0.3v3.8
		c-0.6,0.2-1.2,0.4-1.9,0.4c-5.8,0-9.1-5.3-9.1-10.7c0-5.1,3.4-10.3,8.9-10.3c0.7,0,1.4,0.1,2.1,0.4L94.7,55L94.7,55z"/>
	<path class="st0" d="M96.5,71.6V51.1h4.1c2.6,0,7.2,0.3,7.2,5.9c0,2.3-0.9,4.2-2.9,5.3l3.6,9.3h-4.3l-3.6-9.5h-0.1v9.5H96.5z
		 M100.6,59.9h0.7c1.8,0,2.6-1.3,2.6-2.9c0-1.5-0.7-2.7-2.7-2.6h-0.5L100.6,59.9L100.6,59.9z"/>
	<path class="st0" d="M124.4,61.4c0,7.7-3.6,10.6-7.2,10.6s-7.2-2.9-7.2-10.6s3.6-10.6,7.2-10.6S124.4,53.7,124.4,61.4z M117.2,68.2
		c2.7,0,2.9-5.2,2.9-6.8c0-1.8-0.2-6.8-2.9-6.8c-2.7,0-2.9,5-2.9,6.8C114.3,63,114.5,68.2,117.2,68.2z"/>
	<path class="st0" d="M126.3,71.6V51.1h4c1.6,0,2.9,0.1,4.2,1.1c1.4,1.1,2.1,2.9,2.1,4.6c0,1.8-0.7,3.2-2.2,4.2
		c1.7,0.8,2.5,3,2.5,4.8c0,4.1-3,5.8-6.7,5.8H126.3z M130.4,54.5v5c1.5,0,2.4-1,2.4-2.6C132.8,55.5,131.9,54.4,130.4,54.5z
		 M130.4,62.7v5.5c1.6,0.1,2.6-1.1,2.6-2.8C132.9,63.8,132,62.6,130.4,62.7z"/>
	<path class="st0" d="M143.1,51.1v20.5H139V51.1H143.1z"/>
	<path class="st0" d="M159.5,61.4c0,7.7-3.6,10.6-7.2,10.6c-3.6,0-7.2-2.9-7.2-10.6s3.6-10.6,7.2-10.6S159.5,53.7,159.5,61.4z
		 M152.2,68.2c2.7,0,2.9-5.2,2.9-6.8c0-1.8-0.2-6.8-2.9-6.8s-2.9,5-2.9,6.8C149.4,63,149.6,68.2,152.2,68.2z"/>
	<path class="st0" d="M165.4,51.1v16.7h4.2v3.8h-8.3V51.1H165.4z"/>
	<path class="st0" d="M184.9,61.4c0,7.7-3.6,10.6-7.2,10.6c-3.6,0-7.2-2.9-7.2-10.6s3.6-10.6,7.2-10.6
		C181.3,50.8,184.9,53.7,184.9,61.4z M177.7,68.2c2.7,0,2.9-5.2,2.9-6.8c0-1.8-0.2-6.8-2.9-6.8s-2.9,5-2.9,6.8
		C174.8,63,175,68.2,177.7,68.2z"/>
	<path class="st0" d="M200,60.2v1.6c0,4.4-1.1,10.1-6.6,10.1s-7.3-5.9-7.3-10.5c0-4.7,1.5-10.7,7.3-10.7c3.1,0,5.2,2,6,4.9l-3.9,1.5
		c-0.2-1-0.5-2.6-2.1-2.6c-2.7-0.2-3,4.9-3,6.8c0,2.1,0.1,6.8,3.1,6.8c2.1,0,2.4-2.8,2.4-4.2h-2.6v-3.7H200z"/>
	<path class="st0" d="M205,51.1l2.1,5.6l0.3,1h0.1l0.5-1.5l1.8-5.1h4.5l-4.8,10.7v9.8h-4.1v-9.8l-4.9-10.7
		C200.5,51.1,205,51.1,205,51.1z"/>
	<path class="st0" d="M226.6,51.1v16.7h4.2v3.8h-8.3V51.1H226.6z"/>
	<path class="st0" d="M240.6,51.1v3.8h-4.1v4.5h3.6v3.8h-3.6v4.6h4.2v3.8h-8.2V51.1H240.6z"/>
	<path class="st0" d="M252.3,51.1v3.8h-3.2v16.7H245V54.9h-3.2v-3.8H252.3z"/>
	<path class="st0" d="M264.2,51.1v3.8H261v16.7h-4.1V54.9h-3.2v-3.8H264.2z"/>
	<path class="st0" d="M274,51.1v3.8h-4.1v4.5h3.6v3.8h-3.6v4.6h4.2v3.8h-8.2V51.1H274z"/>
	<path class="st0" d="M276.2,71.6V51.1h4.1c2.6,0,7.2,0.3,7.2,5.9c0,2.3-0.9,4.2-2.9,5.3l3.6,9.3h-4.3l-3.6-9.5h-0.1v9.5H276.2z
		 M280.3,59.9h0.7c1.8,0,2.6-1.3,2.6-2.9c0-1.5-0.7-2.7-2.7-2.6h-0.5v5.5H280.3z"/>
	<path class="st0" d="M298.8,55.7c-0.8-0.7-1.8-1.3-2.9-1.3c-1.3,0-2,0.8-2,2c0,3.4,6.2,3.6,6.2,9.1c0,3.6-2.1,6.4-5.9,6.4
		c-1.1,0-2.6-0.4-3.5-1V67c1,0.7,1.9,1.1,3.1,1.1c1.3,0,2.3-0.9,2.3-2.2c0-1.6-1.3-2.2-2.4-3c-2.3-1.6-3.8-3.1-3.8-6.1
		c0-3.2,1.9-6,5.4-6c1.3,0,2.5,0.4,3.6,1v3.9H298.8z"/>
</g>
</svg>
