<?xml version="1.0" encoding="utf-8"?>
<!-- Generator: Adobe Illustrator 19.0.0, SVG Export Plug-In . SVG Version: 6.00 Build 0)  -->
<svg version="1.1" id="Layer_1" xmlns="http://www.w3.org/2000/svg" xmlns:xlink="http://www.w3.org/1999/xlink" x="0px" y="0px"
	 viewBox="0 0 257 40" enable-background="new 0 0 257 40" xml:space="preserve">
<g id="XMLID_42_">
	<path id="XMLID_43_" fill="#FFFFFF" d="M1.463,26.409V13.665h8.751v2.312H4.042v2.904h5.102v2.312H4.042v2.904h6.611v2.312H1.463z"
		/>
	<path id="XMLID_45_" fill="#FFFFFF" d="M15.258,26.409l-4.07-9.209h2.656l2.541,6.114l2.446-6.114h2.541l-3.955,9.209H15.258z"/>
	<path id="XMLID_47_" fill="#FFFFFF" d="M23.857,16.149c-0.497,0-0.87-0.14-1.118-0.42c-0.248-0.28-0.373-0.592-0.373-0.936
		c0-0.331,0.124-0.637,0.373-0.917c0.248-0.28,0.621-0.42,1.118-0.42c0.496,0,0.869,0.14,1.118,0.42
		c0.248,0.28,0.373,0.586,0.373,0.917c0,0.344-0.124,0.656-0.373,0.936C24.726,16.009,24.353,16.149,23.857,16.149z M22.614,26.409
		v-9.209h2.484v9.209H22.614z"/>
	<path id="XMLID_50_" fill="#FFFFFF" d="M33.467,26.409l-0.114-0.707c-0.229,0.243-0.529,0.456-0.898,0.64
		c-0.37,0.185-0.809,0.277-1.318,0.277c-0.662,0-1.252-0.134-1.767-0.401c-0.516-0.267-0.949-0.625-1.299-1.07
		c-0.351-0.446-0.615-0.961-0.793-1.548c-0.179-0.585-0.268-1.196-0.268-1.835c0-0.598,0.095-1.184,0.287-1.757
		c0.191-0.573,0.477-1.086,0.86-1.538c0.382-0.452,0.86-0.815,1.433-1.089c0.573-0.274,1.248-0.411,2.026-0.411
		c0.522,0,1.07,0.089,1.643,0.268v-3.573h2.484v12.744H33.467z M33.257,19.244c-0.471-0.178-0.917-0.268-1.338-0.268
		s-0.787,0.077-1.098,0.229c-0.312,0.153-0.57,0.36-0.774,0.621c-0.204,0.261-0.357,0.554-0.459,0.879
		c-0.102,0.325-0.153,0.659-0.153,1.003c0,0.383,0.044,0.748,0.134,1.099c0.089,0.351,0.223,0.656,0.401,0.917
		c0.178,0.261,0.405,0.471,0.679,0.63c0.274,0.16,0.602,0.239,0.984,0.239c0.305,0,0.618-0.079,0.936-0.239
		c0.318-0.159,0.548-0.347,0.688-0.564V19.244z"/>
	<path id="XMLID_53_" fill="#FFFFFF" d="M40.155,22.396c0.064,0.778,0.302,1.338,0.717,1.682c0.413,0.344,0.876,0.516,1.385,0.516
		c0.445,0,0.847-0.079,1.204-0.239c0.356-0.159,0.726-0.506,1.108-1.042l1.854,1.127c-0.522,0.803-1.127,1.367-1.815,1.691
		c-0.688,0.325-1.497,0.487-2.427,0.487c-0.611,0-1.191-0.095-1.739-0.287c-0.548-0.191-1.029-0.487-1.443-0.888
		c-0.414-0.401-0.742-0.902-0.984-1.501c-0.242-0.598-0.363-1.311-0.363-2.139c0-0.777,0.117-1.465,0.354-2.064
		c0.236-0.599,0.557-1.102,0.965-1.509c0.408-0.408,0.882-0.72,1.424-0.936c0.541-0.217,1.118-0.325,1.729-0.325
		c1.287,0,2.322,0.449,3.105,1.347c0.783,0.898,1.187,2.258,1.213,4.079H40.155z M43.9,20.696c-0.051-0.611-0.258-1.07-0.621-1.375
		c-0.363-0.306-0.749-0.459-1.156-0.459c-0.217,0-0.43,0.041-0.64,0.124s-0.405,0.204-0.583,0.363
		c-0.179,0.16-0.328,0.354-0.449,0.583c-0.121,0.229-0.201,0.484-0.239,0.764H43.9z"/>
	<path id="XMLID_56_" fill="#FFFFFF" d="M48.256,26.409v-9.209h2.274l0.114,0.726c0.383-0.306,0.822-0.541,1.318-0.707
		c0.497-0.165,0.994-0.248,1.49-0.248c0.51,0,0.978,0.074,1.404,0.22c0.427,0.146,0.793,0.379,1.099,0.697
		c0.305,0.319,0.545,0.733,0.716,1.242c0.172,0.509,0.258,1.121,0.258,1.834v5.445h-2.503v-5.254c0-0.7-0.153-1.242-0.459-1.624
		c-0.306-0.383-0.733-0.574-1.28-0.574c-0.382,0-0.739,0.096-1.07,0.287c-0.331,0.191-0.618,0.401-0.86,0.63v6.534H48.256z"/>
	<path id="XMLID_58_" fill="#FFFFFF" d="M67.21,24.193c-0.395,0.828-0.927,1.44-1.595,1.835s-1.449,0.591-2.341,0.591
		c-0.586,0-1.15-0.102-1.691-0.305c-0.542-0.203-1.019-0.506-1.433-0.907c-0.414-0.402-0.745-0.899-0.993-1.49
		c-0.248-0.593-0.373-1.284-0.373-2.074c0-0.815,0.121-1.528,0.363-2.139c0.242-0.611,0.564-1.121,0.965-1.529
		c0.401-0.408,0.863-0.71,1.385-0.907c0.522-0.197,1.064-0.297,1.624-0.297c0.56,0,1.061,0.08,1.5,0.239
		c0.439,0.16,0.822,0.366,1.146,0.621c0.325,0.255,0.593,0.541,0.803,0.86c0.21,0.318,0.372,0.637,0.487,0.955l-1.968,0.975
		c-0.217-0.612-0.487-1.041-0.812-1.29c-0.325-0.248-0.691-0.373-1.098-0.373c-0.255,0-0.497,0.057-0.726,0.172
		c-0.229,0.114-0.437,0.286-0.621,0.516c-0.185,0.229-0.331,0.522-0.439,0.879c-0.108,0.357-0.162,0.783-0.162,1.281
		c0,0.878,0.194,1.56,0.582,2.045c0.388,0.483,0.895,0.725,1.519,0.725c0.484,0,0.879-0.12,1.185-0.362
		c0.305-0.242,0.579-0.586,0.822-1.032L67.21,24.193z"/>
	<path id="XMLID_60_" fill="#FFFFFF" d="M70.592,22.396c0.064,0.778,0.302,1.338,0.717,1.682c0.413,0.344,0.876,0.516,1.385,0.516
		c0.445,0,0.847-0.079,1.204-0.239c0.356-0.159,0.726-0.506,1.108-1.042l1.854,1.127c-0.522,0.803-1.127,1.367-1.815,1.691
		c-0.688,0.325-1.497,0.487-2.427,0.487c-0.611,0-1.191-0.095-1.739-0.287c-0.548-0.191-1.029-0.487-1.443-0.888
		c-0.414-0.401-0.742-0.902-0.984-1.501c-0.242-0.598-0.363-1.311-0.363-2.139c0-0.777,0.117-1.465,0.354-2.064
		c0.236-0.599,0.557-1.102,0.965-1.509c0.408-0.408,0.882-0.72,1.424-0.936c0.541-0.217,1.118-0.325,1.729-0.325
		c1.287,0,2.322,0.449,3.105,1.347c0.783,0.898,1.187,2.258,1.213,4.079H70.592z M74.337,20.696
		c-0.051-0.611-0.258-1.07-0.621-1.375c-0.363-0.306-0.749-0.459-1.156-0.459c-0.217,0-0.43,0.041-0.64,0.124
		c-0.21,0.083-0.405,0.204-0.583,0.363c-0.179,0.16-0.328,0.354-0.449,0.583c-0.121,0.229-0.201,0.484-0.239,0.764H74.337z"/>
	<path id="XMLID_63_" fill="#FFFFFF" d="M78.178,22.569v-2.274h4.853v2.274H78.178z"/>
	<path id="XMLID_65_" fill="#FFFFFF" d="M85.228,26.409V13.665h4.547c0.611,0,1.175,0.076,1.691,0.229
		c0.516,0.153,0.959,0.379,1.328,0.678c0.369,0.3,0.659,0.662,0.87,1.089c0.21,0.427,0.315,0.907,0.315,1.443
		c0,0.573-0.137,1.07-0.411,1.49c-0.274,0.42-0.653,0.777-1.137,1.07c0.688,0.242,1.239,0.628,1.653,1.156
		c0.414,0.529,0.621,1.195,0.621,1.997c0,0.675-0.192,1.318-0.574,1.93c-0.382,0.611-0.962,1.064-1.739,1.356
		c-0.293,0.102-0.608,0.179-0.946,0.229c-0.338,0.051-0.666,0.077-0.984,0.077H85.228z M87.769,18.881h1.261
		c0.293,0,0.573-0.013,0.841-0.038c0.268-0.026,0.459-0.07,0.573-0.134c0.331-0.153,0.57-0.347,0.716-0.582
		c0.146-0.236,0.22-0.481,0.22-0.736c0-0.306-0.099-0.589-0.296-0.85c-0.198-0.261-0.494-0.455-0.889-0.583
		c-0.064-0.012-0.15-0.028-0.258-0.048c-0.109-0.019-0.229-0.032-0.363-0.038c-0.134-0.006-0.268-0.013-0.401-0.019
		c-0.134-0.006-0.252-0.009-0.354-0.009h-1.051V18.881z M87.769,24.231h1.834c0.446,0,0.796-0.019,1.051-0.057
		c0.255-0.038,0.465-0.102,0.63-0.191c0.28-0.153,0.484-0.342,0.612-0.564c0.127-0.223,0.191-0.456,0.191-0.697
		c0-0.281-0.08-0.554-0.239-0.822c-0.159-0.268-0.398-0.484-0.716-0.65c-0.204-0.102-0.437-0.175-0.697-0.22
		c-0.261-0.044-0.551-0.067-0.87-0.067h-1.796V24.231z"/>
	<path id="XMLID_69_" fill="#FFFFFF" d="M101.526,26.409l-0.115-0.687c-0.267,0.281-0.608,0.501-1.022,0.66
		c-0.414,0.159-0.87,0.238-1.367,0.238c-0.408,0-0.806-0.067-1.194-0.2c-0.388-0.134-0.729-0.324-1.022-0.574
		c-0.294-0.247-0.529-0.554-0.707-0.917c-0.179-0.362-0.268-0.774-0.268-1.232c0-0.459,0.096-0.863,0.287-1.214
		c0.191-0.35,0.445-0.646,0.764-0.888c0.318-0.242,0.685-0.439,1.099-0.592c0.413-0.153,0.85-0.268,1.309-0.344
		c0.318-0.063,0.669-0.111,1.051-0.143c0.382-0.032,0.701-0.06,0.956-0.086v-0.306c0-0.369-0.128-0.669-0.382-0.898
		c-0.255-0.229-0.554-0.344-0.898-0.344c-0.217,0-0.491,0.057-0.822,0.172c-0.331,0.114-0.65,0.331-0.956,0.65l-1.7-1.185
		c0.242-0.305,0.519-0.56,0.831-0.764s0.631-0.363,0.956-0.478c0.325-0.114,0.646-0.194,0.965-0.239
		c0.318-0.045,0.611-0.067,0.879-0.067c0.535,0,1.025,0.067,1.471,0.201c0.446,0.134,0.831,0.344,1.156,0.63
		c0.325,0.287,0.576,0.65,0.755,1.089c0.178,0.439,0.268,0.972,0.268,1.595v5.923H101.526z M101.316,22.11
		c-0.255,0.013-0.525,0.035-0.812,0.067c-0.287,0.032-0.557,0.074-0.812,0.125c-0.535,0.102-0.907,0.277-1.118,0.524
		c-0.21,0.249-0.315,0.52-0.315,0.813c0,0.304,0.114,0.55,0.344,0.735c0.229,0.185,0.567,0.277,1.013,0.277
		c0.318,0,0.627-0.063,0.927-0.191c0.299-0.128,0.557-0.287,0.774-0.477V22.11z"/>
	<path id="XMLID_72_" fill="#FFFFFF" d="M107.411,23.313c0.217,0.409,0.519,0.749,0.907,1.023c0.388,0.273,0.876,0.411,1.462,0.411
		c0.509,0,0.907-0.08,1.194-0.24c0.287-0.159,0.43-0.378,0.43-0.658c0-0.268-0.153-0.504-0.459-0.707
		c-0.306-0.204-0.873-0.383-1.701-0.535c-0.484-0.089-0.927-0.207-1.328-0.354s-0.742-0.335-1.022-0.564
		c-0.28-0.229-0.496-0.503-0.65-0.822c-0.153-0.319-0.229-0.701-0.229-1.147c0-0.815,0.341-1.478,1.022-1.987
		c0.682-0.509,1.602-0.765,2.761-0.765c1.044,0,1.872,0.169,2.484,0.507c0.612,0.337,1.083,0.748,1.414,1.232l-1.758,1.204
		c-0.229-0.306-0.522-0.56-0.879-0.765c-0.356-0.203-0.777-0.305-1.261-0.305c-0.535,0-0.904,0.08-1.108,0.239
		c-0.204,0.16-0.306,0.366-0.306,0.621c0,0.293,0.127,0.503,0.383,0.63c0.254,0.128,0.726,0.261,1.414,0.401
		c0.56,0.115,1.061,0.248,1.5,0.401c0.439,0.153,0.812,0.347,1.118,0.583c0.306,0.236,0.538,0.519,0.697,0.85
		c0.159,0.332,0.239,0.72,0.239,1.165c0,0.497-0.102,0.927-0.306,1.29s-0.484,0.662-0.841,0.898s-0.777,0.411-1.261,0.526
		c-0.484,0.114-1,0.171-1.548,0.171c-1.096,0-1.984-0.206-2.665-0.621c-0.682-0.413-1.201-0.933-1.558-1.558L107.411,23.313z"/>
	<path id="XMLID_74_" fill="#FFFFFF" d="M117.442,22.396c0.064,0.778,0.302,1.338,0.717,1.682c0.413,0.344,0.876,0.516,1.385,0.516
		c0.445,0,0.847-0.079,1.204-0.239c0.356-0.159,0.726-0.506,1.108-1.042l1.854,1.127c-0.522,0.803-1.127,1.367-1.815,1.691
		c-0.688,0.325-1.497,0.487-2.427,0.487c-0.611,0-1.191-0.095-1.739-0.287c-0.548-0.191-1.029-0.487-1.443-0.888
		c-0.414-0.401-0.742-0.902-0.984-1.501c-0.242-0.598-0.363-1.311-0.363-2.139c0-0.777,0.117-1.465,0.354-2.064
		c0.236-0.599,0.557-1.102,0.965-1.509c0.408-0.408,0.882-0.72,1.424-0.936c0.541-0.217,1.118-0.325,1.729-0.325
		c1.287,0,2.322,0.449,3.105,1.347c0.783,0.898,1.187,2.258,1.213,4.079H117.442z M121.187,20.696
		c-0.051-0.611-0.258-1.07-0.621-1.375c-0.363-0.306-0.749-0.459-1.156-0.459c-0.217,0-0.43,0.041-0.64,0.124
		c-0.21,0.083-0.405,0.204-0.583,0.363c-0.179,0.16-0.328,0.354-0.449,0.583c-0.121,0.229-0.201,0.484-0.239,0.764H121.187z"/>
	<path id="XMLID_77_" fill="#FFFFFF" d="M131.428,26.409l-0.114-0.707c-0.229,0.243-0.529,0.456-0.898,0.64
		c-0.37,0.185-0.809,0.277-1.318,0.277c-0.662,0-1.252-0.134-1.767-0.401c-0.516-0.267-0.949-0.625-1.299-1.07
		c-0.351-0.446-0.615-0.961-0.793-1.548c-0.179-0.585-0.268-1.196-0.268-1.835c0-0.598,0.095-1.184,0.287-1.757
		c0.191-0.573,0.477-1.086,0.86-1.538c0.382-0.452,0.86-0.815,1.433-1.089c0.573-0.274,1.248-0.411,2.026-0.411
		c0.522,0,1.07,0.089,1.643,0.268v-3.573h2.484v12.744H131.428z M131.218,19.244c-0.471-0.178-0.917-0.268-1.338-0.268
		c-0.42,0-0.787,0.077-1.098,0.229c-0.312,0.153-0.57,0.36-0.774,0.621c-0.204,0.261-0.357,0.554-0.459,0.879
		c-0.102,0.325-0.153,0.659-0.153,1.003c0,0.383,0.044,0.748,0.134,1.099c0.089,0.351,0.223,0.656,0.401,0.917
		c0.178,0.261,0.405,0.471,0.679,0.63c0.273,0.16,0.602,0.239,0.984,0.239c0.305,0,0.618-0.079,0.936-0.239
		c0.318-0.159,0.548-0.347,0.688-0.564V19.244z"/>
	<path id="XMLID_80_" fill="#FFFFFF" d="M140.237,26.409V13.665h2.637l3.764,8.484l3.401-8.484h2.656v12.744h-2.541v-7.126
		l-3.076,7.203h-0.917l-3.382-7.28v7.203H140.237z"/>
	<path id="XMLID_82_" fill="#FFFFFF" d="M157.337,22.396c0.064,0.778,0.302,1.338,0.717,1.682c0.413,0.344,0.876,0.516,1.385,0.516
		c0.445,0,0.847-0.079,1.204-0.239c0.356-0.159,0.726-0.506,1.108-1.042l1.854,1.127c-0.522,0.803-1.127,1.367-1.815,1.691
		c-0.688,0.325-1.497,0.487-2.427,0.487c-0.611,0-1.191-0.095-1.739-0.287c-0.548-0.191-1.029-0.487-1.443-0.888
		c-0.414-0.401-0.742-0.902-0.984-1.501c-0.242-0.598-0.363-1.311-0.363-2.139c0-0.777,0.117-1.465,0.354-2.064
		c0.236-0.599,0.557-1.102,0.965-1.509c0.408-0.408,0.882-0.72,1.424-0.936c0.541-0.217,1.118-0.325,1.729-0.325
		c1.287,0,2.322,0.449,3.105,1.347c0.783,0.898,1.187,2.258,1.213,4.079H157.337z M161.083,20.696
		c-0.051-0.611-0.258-1.07-0.621-1.375c-0.363-0.306-0.749-0.459-1.156-0.459c-0.217,0-0.43,0.041-0.64,0.124
		c-0.21,0.083-0.405,0.204-0.583,0.363c-0.179,0.16-0.328,0.354-0.449,0.583c-0.121,0.229-0.201,0.484-0.239,0.764H161.083z"/>
	<path id="XMLID_85_" fill="#FFFFFF" d="M165.439,26.409v-9.209h2.274l0.114,0.726c0.383-0.306,0.822-0.541,1.318-0.707
		c0.497-0.165,0.994-0.248,1.49-0.248c0.51,0,0.978,0.074,1.404,0.22s0.793,0.379,1.099,0.697c0.305,0.319,0.545,0.733,0.716,1.242
		c0.172,0.509,0.258,1.121,0.258,1.834v5.445h-2.503v-5.254c0-0.7-0.153-1.242-0.459-1.624c-0.306-0.383-0.733-0.574-1.28-0.574
		c-0.382,0-0.739,0.096-1.07,0.287c-0.331,0.191-0.618,0.401-0.86,0.63v6.534H165.439z"/>
	<path id="XMLID_87_" fill="#FFFFFF" d="M179.425,23.81c0,0.294,0.067,0.495,0.201,0.603c0.134,0.108,0.264,0.161,0.391,0.161
		c0.255,0,0.503-0.063,0.745-0.191c0.242-0.128,0.452-0.261,0.63-0.401l0.898,1.7c-0.42,0.28-0.863,0.507-1.328,0.679
		c-0.465,0.172-0.959,0.257-1.48,0.257c-0.319,0-0.63-0.044-0.936-0.134c-0.306-0.088-0.576-0.229-0.812-0.42
		c-0.236-0.191-0.427-0.442-0.573-0.754c-0.147-0.312-0.22-0.691-0.22-1.137v-5.063h-1.356v-1.911h1.356v-2.388h2.484v2.388h2.236
		v1.911h-2.236V23.81z"/>
	<path id="XMLID_89_" fill="#FFFFFF" d="M188.673,26.409l-0.115-0.687c-0.267,0.281-0.608,0.501-1.022,0.66
		c-0.414,0.159-0.87,0.238-1.367,0.238c-0.408,0-0.806-0.067-1.194-0.2s-0.729-0.324-1.022-0.574
		c-0.294-0.247-0.529-0.554-0.707-0.917c-0.179-0.362-0.268-0.774-0.268-1.232c0-0.459,0.096-0.863,0.287-1.214
		c0.191-0.35,0.445-0.646,0.764-0.888c0.318-0.242,0.685-0.439,1.099-0.592c0.413-0.153,0.85-0.268,1.309-0.344
		c0.318-0.063,0.669-0.111,1.051-0.143c0.382-0.032,0.701-0.06,0.956-0.086v-0.306c0-0.369-0.128-0.669-0.382-0.898
		c-0.255-0.229-0.554-0.344-0.898-0.344c-0.217,0-0.491,0.057-0.822,0.172c-0.331,0.114-0.65,0.331-0.956,0.65l-1.7-1.185
		c0.242-0.305,0.519-0.56,0.831-0.764s0.631-0.363,0.956-0.478c0.325-0.114,0.646-0.194,0.965-0.239
		c0.318-0.045,0.611-0.067,0.879-0.067c0.535,0,1.025,0.067,1.471,0.201s0.831,0.344,1.156,0.63c0.325,0.287,0.576,0.65,0.755,1.089
		c0.178,0.439,0.268,0.972,0.268,1.595v5.923H188.673z M188.463,22.11c-0.255,0.013-0.525,0.035-0.812,0.067
		c-0.287,0.032-0.557,0.074-0.812,0.125c-0.535,0.102-0.907,0.277-1.118,0.524c-0.21,0.249-0.315,0.52-0.315,0.813
		c0,0.304,0.114,0.55,0.344,0.735c0.229,0.185,0.567,0.277,1.013,0.277c0.318,0,0.627-0.063,0.927-0.191
		c0.299-0.128,0.557-0.287,0.774-0.477V22.11z"/>
	<path id="XMLID_92_" fill="#FFFFFF" d="M193.392,26.409V13.665h2.503v12.744H193.392z"/>
	<path id="XMLID_94_" fill="#FFFFFF" d="M202.43,26.409V13.665h2.579v5.044h5.064v-5.044h2.579v12.744h-2.579v-5.388h-5.064v5.388
		H202.43z"/>
	<path id="XMLID_96_" fill="#FFFFFF" d="M217.295,22.396c0.064,0.778,0.302,1.338,0.717,1.682c0.413,0.344,0.876,0.516,1.385,0.516
		c0.446,0,0.848-0.079,1.204-0.239c0.356-0.159,0.727-0.506,1.108-1.042l1.854,1.127c-0.522,0.803-1.127,1.367-1.815,1.691
		c-0.688,0.325-1.498,0.487-2.428,0.487c-0.611,0-1.19-0.095-1.738-0.287c-0.548-0.191-1.029-0.487-1.443-0.888
		c-0.413-0.401-0.741-0.902-0.984-1.501c-0.243-0.598-0.362-1.311-0.362-2.139c0-0.777,0.117-1.465,0.354-2.064
		c0.236-0.599,0.556-1.102,0.964-1.509c0.408-0.408,0.882-0.72,1.424-0.936c0.54-0.217,1.118-0.325,1.728-0.325
		c1.287,0,2.322,0.449,3.105,1.347c0.784,0.898,1.187,2.258,1.213,4.079H217.295z M221.04,20.696
		c-0.051-0.611-0.258-1.07-0.621-1.375c-0.363-0.306-0.749-0.459-1.157-0.459c-0.216,0-0.43,0.041-0.64,0.124
		s-0.405,0.204-0.582,0.363c-0.179,0.16-0.328,0.354-0.449,0.583c-0.122,0.229-0.2,0.484-0.24,0.764H221.04z"/>
	<path id="XMLID_99_" fill="#FFFFFF" d="M230.498,26.409l-0.115-0.687c-0.267,0.281-0.608,0.501-1.022,0.66
		s-0.869,0.238-1.366,0.238c-0.408,0-0.806-0.067-1.194-0.2c-0.388-0.134-0.73-0.324-1.022-0.574
		c-0.293-0.247-0.528-0.554-0.707-0.917c-0.179-0.362-0.267-0.774-0.267-1.232c0-0.459,0.096-0.863,0.287-1.214
		c0.191-0.35,0.446-0.646,0.764-0.888c0.318-0.242,0.685-0.439,1.099-0.592c0.413-0.153,0.849-0.268,1.309-0.344
		c0.318-0.063,0.668-0.111,1.051-0.143c0.381-0.032,0.7-0.06,0.955-0.086v-0.306c0-0.369-0.128-0.669-0.381-0.898
		c-0.255-0.229-0.555-0.344-0.899-0.344c-0.217,0-0.49,0.057-0.822,0.172c-0.331,0.114-0.649,0.331-0.955,0.65l-1.701-1.185
		c0.242-0.305,0.519-0.56,0.831-0.764s0.63-0.363,0.956-0.478c0.325-0.114,0.646-0.194,0.965-0.239
		c0.318-0.045,0.611-0.067,0.878-0.067c0.536,0,1.025,0.067,1.471,0.201s0.832,0.344,1.157,0.63c0.324,0.287,0.576,0.65,0.754,1.089
		c0.179,0.439,0.267,0.972,0.267,1.595v5.923H230.498z M230.288,22.11c-0.255,0.013-0.525,0.035-0.812,0.067
		c-0.287,0.032-0.557,0.074-0.812,0.125c-0.534,0.102-0.907,0.277-1.118,0.524c-0.21,0.249-0.315,0.52-0.315,0.813
		c0,0.304,0.115,0.55,0.344,0.735c0.229,0.185,0.567,0.277,1.013,0.277c0.318,0,0.628-0.063,0.927-0.191
		c0.299-0.128,0.557-0.287,0.774-0.477V22.11z"/>
	<path id="XMLID_102_" fill="#FFFFFF" d="M235.218,26.409V13.665h2.502v12.744H235.218z"/>
	<path id="XMLID_104_" fill="#FFFFFF" d="M243.089,23.81c0,0.294,0.067,0.495,0.201,0.603c0.134,0.108,0.263,0.161,0.391,0.161
		c0.255,0,0.503-0.063,0.745-0.191c0.242-0.128,0.452-0.261,0.63-0.401l0.899,1.7c-0.42,0.28-0.864,0.507-1.329,0.679
		c-0.465,0.172-0.958,0.257-1.48,0.257c-0.319,0-0.63-0.044-0.937-0.134c-0.306-0.088-0.576-0.229-0.812-0.42
		c-0.236-0.191-0.427-0.442-0.573-0.754c-0.147-0.312-0.22-0.691-0.22-1.137v-5.063h-1.357v-1.911h1.357v-2.388h2.484v2.388h2.236
		v1.911h-2.236V23.81z"/>
	<path id="XMLID_106_" fill="#FFFFFF" d="M247.235,26.409V13.665h2.503v4.146c0.305-0.229,0.672-0.427,1.098-0.593
		c0.427-0.165,0.94-0.248,1.539-0.248c0.624,0,1.152,0.096,1.586,0.287c0.432,0.191,0.79,0.459,1.069,0.802
		c0.28,0.344,0.484,0.762,0.612,1.252c0.128,0.491,0.191,1.035,0.191,1.634v5.464h-2.502v-5.292c0-0.764-0.157-1.315-0.468-1.653
		c-0.312-0.337-0.673-0.506-1.079-0.506c-0.409,0-0.796,0.105-1.166,0.315c-0.37,0.21-0.663,0.405-0.879,0.583v6.553H247.235z"/>
</g>
</svg>
